/* XPM */
static const char *gold6[] = {
/* columns rows colors chars-per-pixel */
"65 65 182 2 ",
"   c #161C2E",
".  c #1D232E",
"X  c #1C2230",
"o  c #242A2F",
"O  c #252631",
"+  c #262735",
"@  c #232C32",
"#  c #2C2D33",
"$  c #342F36",
"%  c #2B3231",
"&  c #2D3D3A",
"*  c #353235",
"=  c #383436",
"-  c #333A33",
";  c #3E3936",
":  c #473C3A",
">  c #384336",
",  c #33453C",
"<  c #3E4238",
"1  c #3A4C3E",
"2  c #474D33",
"3  c #4F4639",
"4  c #46493A",
"5  c #54423F",
"6  c #5B4F3C",
"7  c #4A5437",
"8  c #575E34",
"9  c #53553E",
"0  c #66573E",
"q  c #51613B",
"w  c #55693F",
"e  c #596B3E",
"r  c #656C36",
"t  c #727837",
"y  c #787F38",
"u  c #333848",
"i  c #384C40",
"p  c #3B5142",
"a  c #3C4150",
"s  c #5A4641",
"d  c #435B44",
"f  c #695045",
"g  c #7D5C4A",
"h  c #496348",
"j  c #576140",
"k  c #587249",
"l  c #5B7C52",
"z  c #656542",
"x  c #726041",
"c  c #7D6943",
"v  c #677444",
"b  c #667B40",
"n  c #6A7E42",
"m  c #617E4D",
"M  c #777947",
"N  c #505462",
"B  c #5E626F",
"V  c #5A7C66",
"C  c #856849",
"Z  c #807041",
"A  c #8D7546",
"S  c #967A49",
"D  c #8F6850",
"F  c #996E52",
"G  c #A47555",
"H  c #AF7D57",
"J  c #AC7A58",
"K  c #7F8639",
"L  c #5E8355",
"P  c #6D8546",
"I  c #698449",
"U  c #768746",
"Y  c #718844",
"T  c #7A9649",
"R  c #648752",
"E  c #668E58",
"W  c #6B9157",
"Q  c #6F9A5D",
"!  c #739D5C",
"~  c #78A25B",
"^  c #7FAB5F",
"/  c #6C8C67",
"(  c #6E976F",
")  c #73986E",
"_  c #7D9D6C",
"`  c #618970",
"'  c #679175",
"]  c #6A9373",
"[  c #749771",
"{  c #779870",
"}  c #75A365",
"|  c #75A366",
" . c #79A863",
".. c #8A903A",
"X. c #9EA53C",
"o. c #A3AA3D",
"O. c #ABB23D",
"+. c #B2B63F",
"@. c #B5BC3E",
"#. c #80864C",
"$. c #84884C",
"%. c #89884C",
"&. c #829A47",
"*. c #9E9642",
"=. c #A3844B",
"-. c #AB8B4C",
";. c #B7934F",
":. c #B48457",
">. c #BB8D56",
",. c #BF9853",
"<. c #87A149",
"1. c #8BA649",
"2. c #8EAC4B",
"3. c #93AE4B",
"4. c #94B24C",
"5. c #99B74F",
"6. c #9BB94E",
"7. c #84A557",
"8. c #8AAC52",
"9. c #84AD5B",
"0. c #89AB5B",
"q. c #8FB355",
"w. c #94B452",
"e. c #9BB554",
"r. c #9FB850",
"t. c #BFAF4A",
"y. c #A0B24F",
"u. c #A0B94F",
"i. c #A7A656",
"p. c #ADAC55",
"a. c #B1AD56",
"s. c #A2B950",
"d. c #A7B35D",
"f. c #ADB65A",
"g. c #B2B956",
"h. c #B2B55C",
"j. c #B7B858",
"k. c #BDBA5A",
"l. c #849E6C",
"z. c #B78C6F",
"x. c #84AA61",
"c. c #90AE60",
"v. c #C19555",
"b. c #C69C54",
"n. c #C99E54",
"m. c #C6AD4F",
"M. c #CBB74D",
"N. c #D4BA4F",
"B. c #CEA554",
"V. c #D1AD52",
"C. c #D4B650",
"Z. c #C5CC40",
"A. c #D8C34E",
"S. c #D5CB4A",
"D. c #DBCB4C",
"F. c #CED541",
"G. c #D9D646",
"H. c #DDD947",
"J. c #E2DE47",
"K. c #E1DB48",
"L. c #DBE242",
"P. c #E3E246",
"I. c #E7EB44",
"U. c #E9F044",
"Y. c #EAF04F",
"T. c #EBF159",
"R. c #EDF268",
"E. c #EFF378",
"W. c #7B7F89",
"Q. c #8A8D96",
"!. c #999BA3",
"~. c #B2B3B9",
"^. c #D1B6A4",
"/. c #DBCC91",
"(. c #F1F58A",
"). c #F5F8A7",
"_. c #F6F9B8",
"`. c #E6D7CD",
"'. c #FAFBD5",
"]. c #F6F2E5",
"[. c #FAF7F5",
"{. c #FFFFFF",
/* pixels */
"k.k.k.k.k.h.h.h.h.k.k.k.k.j.u.6.6.6.g.k.k.k.h.x. .d.k.k.k.k.k.k.k.k.s.6.6.6.6.6.6.6.6.u.s.w.w.( [ h.k.l.{ h.k.k.k.k.k.k.k.k.k.k.k.",
"j.k.k.k.h.x. . . .d.j.j.k.s.6.6.6.6.6.g.h.h.x. . . .h.k.k.k.k.k.j.j.j.u.6.6.6.6.6.u.s.j.k.l.{ { h.k.k.k.k.j.j.j.k.k.k.M.k.j.j.j.j.",
"w.f.h.h.x. . . . . .w.6.g.u.6.6.6.w.w.w.^  . . . . .f.j.j.j.j.j.u.6.6.6.6.6.6.u.s.j.k.k.k.k.k.k.k.k.k.k.j.u.6.6.g.k.k.k.j.u.6.w.w.",
" . . . . . . . . .^ w.6.6.6.6.6.w.^  . . . . . . . .q.6.6.6.6.6.6.6.6.6.6.6.u.j.k.j.j.j.k.k.k.k.k.k.j.j.u.6.6.6.6.j.k.k.s.6.w. . .",
" . . . . . . . . .q.w.w.w.6.6.w.^  . . . .^ ^  . . . .q.6.6.6.6.6.6.6.6.u.s.j.k.j.u.6.6.g.k.k.k.j.j.u.6.6.6.6.6.6.g.j.k.s.6.9. . .",
" . . . . . . . . . . . . .q.w.^  . . . .^ w.6.9.^  . . .q.w.6.6.6.6.6.6.g.j.j.j.u.6.6.6.6.g.j.j.u.6.6.6.6.6.6.6.6.6.6.g.e.w.^  . .",
"^ ^ ^  . . . . . . . . . . . . . . . . .w.6.6.6.6.9.^ ^ ^ ^ w.6.6.6.6.6.6.6.6.6.6.6.6.6.6.6.6.6.6.6.6.6.6.6.w.w.w.w.w.w.^  . . .^ ",
"w.6.6.9. . .^ ^ ^  . . . . . . .^ ^  . .w.6.6.6.6.6.6.6.6.6.6.6.6.6.6.6.6.6.w.w.w.6.6.6.6.6.6.6.6.6.6.6.6.6.9.^ ^  . . . . . .^ w.",
"6.6.6.6.^ ^ w.6.6.9.^  . . . .^ w.6.9. .q.6.6.6.6.6.6.6.6.6.6.6.6.6.6.6.6.w.^  . .q.6.6.6.6.6.6.6.6.6.6.r.r.6.6.6.9.^ ^  . . .w.6.",
"6.6.6.6.9.w.6.6.6.6.6.9.^ ^ ^ w.6.6.6.9.^ w.6.6.6.6.6.6.6.6.w.w.w.6.6.6.w.^  . . . .w.6.6.6.6.6.6.6.6.6.6.6.s.s.6.6.6.6.9.^ ^ w.6.",
"s.6.6.6.6.6.6.6.6.6.6.6.6.6.6.6.6.6.6.6.6.6.6.6.6.6.6.6.6.w.^  . .8.w w h h E  . . .w.6.6.6.6.6.6.6.6.6.6.u.j.k.s.6.6.6.6.u.s.s.s.",
"k.s.s.6.6.6.6.6.6.6.6.w.w.w.w.6.6.6.6.6.6.6.6.6.6.6.6.6.w.^  . . .!         & p p p q.w.w.6.6.6.6.6.6.u.s.j.k.k.k.s.s.s.s.j.k.k.k.",
"h.h.h.e.6.6.w.w.w.w.w.^  . . .q.w.6.6.w.w.w.w.6.6.6.6.w.^  . . . .!   2 @.r         & & h q.w.w.w.w.r.j.M.M.k.k.k.k.k.k.k.k.k.k.h.",
"x. . . .q.w.^  . . . . . . . . . .q.w.^  . . .q.w.w.w.^  . . . . .!   . ..L.F.F.F.F.-.  X h  . .^ ^ f.j.j.k.k.k.k.k.k.k.k.k.k.h.x.",
"^ ^ ^  . . . . . . . . . . . . . . . . . . . . .} } } }  . . . . . .E   t U.A.J.U.B.B.B.S   h ^ w.6.6.6.6.g.k.k.k.k.k.k.j.h.h.x.^ ",
"w.6.6.9.^ ^ ^  . . . . . . . . . . . . . . . .} ] ' ' ' }  .^ ^ ^ ^ W X   y N.B.P.B.B.B.A   e 6.6.6.u.s.s.s.j.k.k.k.M.j.u.9.^ ^ w.",
"6.6.w.w.w.w.w.^  . . . . . . . . . . .} } }  .] ' ' ' ' ' 0.w.w.w.w.5.Y     x -.B.B.B.A   @ b 6.u.s.j.k.k.k.k.k.k.k.M.s.6.6.6.6.6.",
"6.6.9.^  . . . . . . . . . . . . . .} ] ' ' | ] ' ' ' ' ' ' ' ' ' ' 7.j u B u   Z S A   @ b 6.r.j.k.k.k.k.k.k.k.k.k.j.u.6.6.6.6.6.",
"6.6.6.6.9.^  . . . . . . . . . . .} ] ' ' ' [ { { { ] ] ' ' [ { { { V   W.{.~.W.+       1 e.s.j.j.j.j.j.j.k.k.k.k.k.s.6.6.6.6.6.6.",
"6.6.6.6.6.6.9.^ ^ ^  . . . . . . .] ' ' [ { h.k.k.k.l.] ' [ h.k.k.k./   W.{.{.{.!.K y   @ $.j.j.u.6.6.6.6.g.k.k.k.M.s.6.u.s.6.6.6.",
"6.6.6.6.6.6.6.6.6.6.^  . . . .} } ] ' [ h.k.k.k.k.k.k.{ [ h.k.z 9 9 4   a ~.{.{.{.U.L.    z s.6.6.6.6.6.6.6.g.j.k.k.k.s.j.k.s.6.6.",
"w.6.6.6.6.6.6.6.6.6.9.x.x.x.x._ { ] [ h.k.k.k.k.k.M.k.l.h.v 4 .           u N N N 2 2   < i.s.s.s.s.6.6.6.6.6.6.g.k.k.M.j.j.j.s.6.",
"^ w.6.6.6.6.6.6.6.6.u.j.j.j.k.k.k.l.h.M.k.k.k.k.k.k.k.M # .     F.F.F.F.F.t             4 M.s.j.M.k.s.6.6.6.6.6.6.g.j.j.u.6.6.g.u.",
"6.6.6.6.6.6.6.6.6.6.j.j.u.6.g.k.k.k.M.k.k.k.k.j.j.j.%.      @.U.U.{.'.U.U.U.U.U.V.    - M.k.k.k.k.k.k.s.6.6.u.s.6.6.6.6.6.6.6.6.6.",
"6.6.6.6.6.6.6.6.6.6.g.u.6.6.6.g.j.j.j.k.k.k.j.u.6.6.#.  . X.U.U.{.{.{.{.{.{.{.E.V.O   - j.k.k.k.k.k.k.s.6.u.j.k.s.s.6.6.6.6.6.6.6.",
"s.s.s.6.6.6.6.6.6.6.6.6.6.6.6.6.r.6.6.g.k.k.s.6.6.6.Y   K U.U.U.{.{.{.{.{.{.].R.N.B.*   4 p.k.k.k.k.k.s.s.j.k.k.k.k.s.s.s.s.s.s.s.",
"j.j.j.u.6.6.6.6.6.6.6.6.6.6.6.6.6.6.6.6.g.j.u.6.6.3.w - o.U.U.U.{.{.[.`.].{.(.U.U.B.n.:   j j.j.k.k.M.M.k.k.k.k.k.j.j.j.j.j.j.j.j.",
"w.w.6.6.6.6.6.6.6.6.6.6.6.6.6.6.6.6.6.6.6.6.6.6.v q   t U.U.U.U.{.{.^.J ^.{.(.U.U.B.B.-.  q 6.6.g.j.j.j.j.j.j.j.j.u.6.6.w.w.w.w.w.",
" . .q.6.w.w.w.w.6.6.6.6.6.6.u.s.s.6.6.6.6.n e e     - O.U.o.K K Q.^.J z.`.'.R.U.U.D.B.-.  q 6.6.6.6.6.6.6.6.6.6.6.6.w.w.^  . . . .",
" . . .q.^  . . .q.6.6.6.u.s.j.k.k.s.6.6.b @       O S A.*.-       5 J z./.R.U.U.U.U.B.-.  q 6.6.6.r.6.6.6.6.6.6.w.w.^  . . . . . .",
" . . . . . . . . .e.s.s.j.k.k.k.k.k.s.n @     @.+.=.n.A #     A   X J J m.U.U.U.U.U.B.-.  q 6.6.6.6.6.6.6.6.6.w.^  . . . . . . . .",
" . . . . . . . . .d.h.h.k.k.k.k.k.k.k.z     @.U.I.B.B.c       ;.;.X J J m.U.U.U.U.U.B.-.  q 6.6.6.6.6.6.6.w.w.^  . . .^ ^ ^ ^ ^  .",
"9. . . . . . . . . . . .d.h.k.k.k.h.v     @.U.U.I.B.B.c     =.B.U.U.H.J J M.U.U.U.B.B.-.  q w.w.6.6.6.w.w.^  . . . .^ w.6.6.6.6.9.",
"6.^  .^ w.6.6.9.^ ^ ^ ^ ^ ^ f.j.j.m   . X.'.{.{.U.U.K.c       -.I.U.U.U.U.U.U.U.I.B.B.-.  9 ^  .q.6.6.9.^ ^ ^ ^ ^ ^ w.6.6.6.6.6.6.",
"6.9.^ w.6.r.6.6.6.6.6.6.6.6.6.6.&.  o ..T.'.{.{.U.U.J.Z         -.Z.U.U.U.U.U.U.V.B.B.-.  d  . . .q.w.w.6.6.6.6.6.6.6.6.6.6.6.6.6.",
"6.6.6.6.6.6.6.w.w.w.w.w.w.5.6.5.k   t U._.{.{.{.I.S.G.O.8 %       . +.K.P.U.U.J.V.B.v.=.  d  . .^ ^ ^ ^ w.6.6.6.6.6.6.6.6.6.6.6.6.",
"w.w.5.6.6.u.s.l.{ ] ' ' ' 0.e.8.    t U._.{._.).I.J ,.U.U.r   r     = B.C.D.D.V.B.>.J D   d 9.9.w.6.6.6.6.6.6.6.w.w.w.w.w.5.6.w.w.",
"' ' 0.5.u.j.M.M.k.l.{ ] ' ' 0./   * *.U.E.).Y.U.I.J S K K K K L.x   = B.b.>.>.>.>.J J D   q 6.6.6.6.6.6.6.6.6.w.( ' ' ' ' 0.w.( ' ",
"{ { { e.j.k.k.k.k.k.k.l.] ' ' `   3 C.K.U.U.U.U.I.M.g     2 Z.U.6   = B.n.:.J J J J J D   q 6.6.6.6.6.6.6.w.w.( [ { { { ] ' ' [ { ",
"k.k.k.k.k.k.k.k.k.k.k.k.l.] ' /   3 B.D.U.U.U.U.U.I.t.5     > 2     > J.A.n.:.J J J G $ > <.6.6.6.6.w.w.w.( [ { h.k.k.k.l.{ { h.k.",
"k.k.k.k.k.k.k.h.h.h.k.k.k.l.] i.  3 B.D.U.U.U.U.U.U.S.G F :       o F.U.I.A.B.:.J J O   , q.w.w.r.w.( [ { { h.k.k.k.k.k.k.k.k.k.k.",
"k.k.k.k.k.k.h.x. . .d.k.k.k.l.i.  3 B.D.U.U.U.U.U.H.J J J J J J   o U.U.U.D.B.:.J       1 x.x.x.h.l.{ h.k.k.k.k.k.k.h.h.h.k.k.k.k.",
"k.h.h.h.h.h.x. . . . .d.h.h.j.p.  3 B.B.H.U.U.U.U.H.J m.U.U.U.U.U.U.U.U.U.D.B.:.J J G   4 k.k.k.j.j.j.j.j.j.k.k.h.h.x. . .d.h.k.k.",
"h.x. . . . . . . . . . . . .q.2.  3 B.B.D.I.U.U.U.H.:.M.U.U.U.U.U.U.U.U.U.D.B.:.J J G # < i.j.j.u.6.6.6.6.6.g.j.0.^ ^ ^  . . .d.h.",
" . . . . . . . . . . . . . . .} & ; -.B.B.J.U.U.U.P.M.U.U.U.U.U.U.U.U.U.U.D.B.:.J J J D   q 6.6.6.6.6.6.6.6.6.6.6.6.6.6.9.^ ^ ^  .",
"9.^ ^ ^  . . . . . . . . . . . .E   0 B.B.A.I.U.U.U.U.U.U.U.U.U.U.U.U.U.P.N.b.:.J J J D   q 6.u.s.s.s.6.6.6.6.6.6.6.6.6.6.6.6.6.9.",
"w.w.w.w.^  . .^ ^ ^  . . . . . .E   ; =.B.B.A.D.U.U.U.U.U.U.U.U.U.U.U.P.N.B.>.J J J G 5   q u.j.k.k.k.s.6.6.6.6.6.6.6.6.6.6.6.6.w.",
"^  . . . . .^ w.6.6.9. . . . . .Q ,   x B.B.B.B.A.A.D.U.U.U.U.U.U.I.A.N.B.B.>.J J J G   - &.j.k.k.k.k.k.s.s.s.6.6.6.6.w.w.w.w.w.^ ",
"^ ^ ^ ^ ^ ^ w.6.6.6.6.^  . . .^ R d   # S B.B.B.B.B.V.C.C.C.C.C.C.C.B.B.B.v.H J J J =   < i.k.k.j.j.j.k.k.k.k.s.6.6.6.9.^ 9.^ ^ ^ ",
"6.6.6.6.6.6.6.6.6.6.6.9.^ ^ ^ Y Y P 7   O =.B.B.B.B.B.B.B.B.B.B.B.B.B.B.v.H J J J +   @ M %.i.j.u.6.6.g.k.k.k.k.s.6.6.6.6.6.6.6.6.",
"6.6.6.6.6.6.6.6.6.6.6.6.6.6.Y Y Y U $.9   C n.B.B.B.B.B.B.B.B.B.B.B.b.J J J J J +     % Y Y #.1.6.6.6.6.g.j.j.j.j.u.6.6.6.6.6.6.6.",
"6.6.6.6.6.6.6.6.6.6.6.6.6.6.Y Y P U #.#.4     G G B.B.B.B.B.B.B.B.J J J G G :       @ Y Y Y Y 1.6.6.6.6.6.6.6.6.6.6.6.6.6.6.6.6.6.",
"6.6.6.6.6.6.6.6.6.6.6.6.6.6.Y P l l l l l ,     X D F J >.b.b.H J J G D s       @ @ I P P P P 1.6.6.6.6.6.6.6.6.6.6.6.6.6.6.6.6.6.",
"w.6.6.6.6.6.6.6.6.6.6.6.w.w.T l l l l l P Y , &     * g g g g g g g f       @ & k l l l l l L 7.w.w.w.w.w.w.w.w.6.6.6.6.6.6.6.6.6.",
"^ w.6.6.6.6.6.6.6.6.6.6.9.^ ^ W l l P Y Y Y Y m , &                 X , , , h l l l l l l L Q  . . . . .^ ^ ^ ^ w.6.6.6.6.6.6.6.6.",
"6.6.6.6.6.6.6.6.6.6.6.6.6.6.6.5.&.Y Y Y Y Y Y Y Y n 1 i i i 1 1 1 1 p l l l l l l l l L W Q ^ ^ ^ ^ ^ ^ w.6.6.6.6.6.6.6.6.6.6.6.6.",
"6.6.w.w.w.w.w.5.6.6.6.w.w.w.w.w.4.1.1.T Y Y U U U Y Y l l l P Y Y Y m l l l l l l ! ! ! ^ ^ w.6.6.6.6.6.6.6.6.6.6.6.6.6.6.6.6.6.6.",
"w.w.] ' ' ] ] 0.5.6.w.( ' ' ' ' 0.e.6.4.2.3.p.a.%.U Y l l P Y Y Y Y Y m T 2.2.~ ! w.6.6.6.6.6.6.6.6.6.6.6.6.6.6.6.6.6.6.6.6.6.6.w.",
"' ' [ { { ] ] ] 0.w.( ' [ [ { { ] 0.e.6.u.j.k.k.j.j.y.7.~ 8.4.4.4.4.4.4.5.6.6.6.6.6.6.u.s.s.s.s.6.6.6.6.6.6.6.6.6.6.6.6.6.6.6.w.( ",
") ) h.k.k.l.{ ] ' ' ' [ h.k.k.k.l.{ 0.e.j.k.k.k.k.k.k.k.c.9.w.6.6.6.6.6.6.6.u.s.s.s.s.j.k.k.k.k.s.6.6.6.6.w.w.w.w.w.5.6.w.w.w.( ' ",
"u.j.k.k.k.k.k.l.{ ] [ h.k.k.k.k.k.k.l.e.j.k.k.M.k.M.k.k.k.s.6.6.6.6.6.u.s.s.j.k.k.k.k.k.k.k.k.j.u.6.6.6.w.( ' ' ' ' 0.w.( ' ' ' ' ",
"u.j.k.k.k.k.k.k.k.l.h.k.k.k.k.k.k.M.k.k.k.k.k.M.k.k.k.k.k.s.s.6.6.6.6.j.k.k.k.k.k.k.k.k.k.j.j.u.w.w.5.w.( ' [ { ] ' ' ' ' [ { ] ' ",
"g.k.k.k.k.k.k.k.k.k.k.k.k.k.k.k.M.M.k.k.k.k.k.k.k.k.k.k.k.k.k.s.6.6.6.g.j.j.j.j.j.j.j.j.j.u.6.w.( ' 0.( ' [ h.k.l.] ' ' [ h.k.l.{ ",
"6.g.k.k.j.j.j.k.k.k.M.M.k.k.j.j.j.j.k.k.k.k.k.h.h.k.k.k.k.k.k.s.s.s.6.6.6.6.6.6.6.6.6.6.6.6.6.) ' [ { ] ' f.k.k.k.l.{ { h.k.k.k.k.",
"6.6.g.k.s.6.6.f.k.k.k.k.k.j.u.6.6.6.g.k.k.k.h.x. .d.k.k.k.k.k.k.k.k.s.6.6.6.6.6.6.6.6.u.s.w.w.( [ h.k.l.{ h.k.k.k.k.k.k.k.k.k.k.k."
};
