/* XPM */
static const char *gold7[] = {
/* columns rows colors chars-per-pixel */
"65 65 182 2 ",
"   c #161C2E",
".  c #1A1F2E",
"X  c #1D222F",
"o  c #1D2330",
"O  c #23292F",
"+  c #222530",
"@  c #282733",
"#  c #232C34",
"$  c #2B2E33",
"%  c #2B3433",
"&  c #343334",
"*  c #383535",
"=  c #363836",
"-  c #3B3A35",
";  c #463B3B",
":  c #3D4433",
">  c #374739",
",  c #494837",
"<  c #41463A",
"1  c #5B4F3C",
"2  c #4D5736",
"3  c #44533A",
"4  c #565838",
"5  c #695A3F",
"6  c #58653A",
"7  c #5A6C3E",
"8  c #656837",
"9  c #6C7337",
"0  c #787F38",
"q  c #2E3F43",
"w  c #333848",
"e  c #3A4E40",
"r  c #3E4349",
"t  c #3A5041",
"y  c #5A4741",
"u  c #475B4C",
"i  c #484D5B",
"p  c #634C44",
"a  c #6A5045",
"s  c #735648",
"d  c #7D5C4A",
"f  c #55744E",
"g  c #5C764A",
"h  c #5A7C52",
"j  c #56705C",
"k  c #6A6B44",
"l  c #746142",
"z  c #7D6943",
"x  c #617440",
"c  c #657B42",
"v  c #697E42",
"b  c #797C49",
"n  c #617D51",
"m  c #575B68",
"M  c #62736B",
"N  c #805E4B",
"B  c #867547",
"V  c #947A48",
"C  c #99794C",
"Z  c #8F6850",
"A  c #976D52",
"S  c #A67656",
"D  c #AF7F56",
"F  c #AC7A58",
"G  c #B07F57",
"H  c #7F8639",
"J  c #5E8254",
"K  c #6D8445",
"L  c #6F8A49",
"P  c #728845",
"I  c #768948",
"U  c #7C9346",
"Y  c #799549",
"T  c #678852",
"R  c #638957",
"E  c #668F59",
"W  c #6C945A",
"Q  c #739B59",
"!  c #79A35C",
"~  c #7FAB5F",
"^  c #668B69",
"/  c #6F9A62",
"(  c #6E976F",
")  c #73986E",
"_  c #789D69",
"`  c #679175",
"'  c #6A9373",
"]  c #749771",
"[  c #779870",
"{  c #75A366",
"}  c #76A465",
"|  c #79A863",
" . c #828939",
".. c #8C933A",
"X. c #959C3B",
"o. c #99A03B",
"O. c #A6AC3D",
"+. c #ABB13D",
"@. c #B4BB3E",
"#. c #BAC13F",
"$. c #80864E",
"%. c #85884B",
"&. c #8A894D",
"*. c #839D48",
"=. c #94944F",
"-. c #9D9849",
";. c #979550",
":. c #9B9C50",
">. c #A8894C",
",. c #A19344",
"<. c #B4924F",
"1. c #B38357",
"2. c #B58956",
"3. c #BA8C56",
"4. c #BC9653",
"5. c #8AA349",
"6. c #93AE4B",
"7. c #99B64F",
"8. c #9BB94E",
"9. c #84AD5B",
"0. c #89AB5B",
"q. c #8FB355",
"w. c #94B452",
"e. c #9AB454",
"r. c #9FB850",
"t. c #B2AD4D",
"y. c #A0B94F",
"u. c #A8A654",
"i. c #A2B950",
"p. c #A7B35D",
"a. c #ADB65B",
"s. c #B2B956",
"d. c #B2B55C",
"f. c #B7B959",
"g. c #BDBA5A",
"h. c #849E6C",
"j. c #B88D70",
"k. c #84AA61",
"l. c #90AE60",
"z. c #C39755",
"x. c #C59B54",
"c. c #CA9F54",
"v. c #C6AD4F",
"b. c #C8B14E",
"n. c #D5BB4F",
"m. c #CEA554",
"M. c #D1AD52",
"N. c #D3B351",
"B. c #C5C742",
"V. c #D2C24B",
"C. c #D9C54D",
"Z. c #DCCC4B",
"A. c #CED541",
"S. c #D0D741",
"D. c #DDD947",
"F. c #E1D949",
"G. c #DCE342",
"H. c #E3E246",
"J. c #E6EA45",
"K. c #E8EE44",
"L. c #E9F044",
"P. c #EBF156",
"I. c #EDF36A",
"U. c #EFF47B",
"Y. c #7B7F89",
"T. c #888B93",
"R. c #999BA3",
"E. c #D0B4A1",
"W. c #F1F58A",
"Q. c #EAEE90",
"!. c #D9C2B3",
"~. c #E2D6A7",
"^. c #F3F7A1",
"/. c #C4C6CA",
"(. c #E4D4CA",
"). c #F8FAC4",
"_. c #EFE6DF",
"`. c #F5F7DB",
"'. c #ECEDEE",
"]. c #FCFDE7",
"[. c #F9F7EB",
"{. c #FFFFFF",
/* pixels */
"g.g.g.g.g.d.d.d.d.g.g.g.g.f.y.8.8.8.s.g.g.g.d.k.| p.g.g.g.g.g.g.g.g.i.8.8.8.8.8.8.8.8.y.i.w.w.( ] d.g.h.[ d.g.g.g.g.g.g.g.g.g.g.g.",
"f.g.g.g.d.k.| | | p.f.f.g.i.8.8.8.8.8.s.d.d.k.| | | d.g.g.g.g.g.f.f.f.y.8.8.8.8.8.y.i.f.g.h.[ [ d.g.g.g.g.f.f.f.g.g.g.g.g.f.f.f.f.",
"w.a.d.d.k.| | | | | w.8.s.y.8.8.8.w.w.w.~ | | | | | a.f.f.f.f.f.y.8.8.8.8.8.8.y.i.f.g.g.g.g.g.g.g.g.g.g.f.y.8.8.s.g.g.g.f.y.8.w.w.",
"| | | | | | | | | ~ w.8.8.8.8.8.w.~ | | | | | | | | q.8.8.8.8.8.8.8.8.8.8.8.y.f.g.f.f.f.g.g.g.g.g.g.f.f.y.8.8.8.8.f.g.g.i.8.w.~ | ",
"| | | | | | | | | q.w.w.w.8.8.w.~ | | | | ~ ~ | | | | q.8.8.8.8.8.8.8.8.y.i.f.g.f.y.8.8.s.g.g.g.f.f.y.8.8.8.8.8.8.s.f.g.i.8.9.| | ",
"| | | | | | | | | | | | | q.w.~ | | | | ~ w.8.9.~ | | | q.w.8.8.8.8.8.8.s.f.f.f.y.8.8.8.8.s.f.f.y.8.8.8.8.8.8.8.8.8.8.s.e.w.~ | | ",
"~ ~ ~ | | | | | | | | | | | | | | | | | w.8.8.8.8.9.~ ~ ~ ~ w.8.8.8.8.8.8.8.8.8.8.8.8.8.8.8.8.8.8.8.8.8.8.8.w.w.w.w.w.w.~ | | | ~ ",
"w.8.8.9.| | ~ ~ ~ | | | | | | | ~ ~ | | w.8.8.8.8.8.8.8.8.8.8.8.8.8.8.8.8.8.w.w.w.8.8.8.8.8.8.8.8.8.8.8.8.8.9.~ ~ | | | | | | ~ w.",
"8.8.8.8.~ ~ w.8.8.9.~ | | | | ~ w.8.9.| q.8.8.8.8.8.8.8.8.8.8.8.8.8.8.8.8.w.~ | | q.8.8.8.8.8.8.8.8.8.8.r.8.8.8.8.9.~ ~ | | | w.8.",
"8.8.8.8.9.w.8.8.8.8.8.9.~ ~ ~ w.8.8.8.9.~ w.8.8.8.8.8.8.8.8.w.w.w.8.8.8.w.~ | | | | w.8.8.8.8.8.8.8.8.8.8.8.i.i.8.8.8.8.9.~ ~ w.8.",
"i.8.8.8.8.8.8.8.8.8.8.8.8.8.8.8.8.8.8.8.8.8.8.8.8.8.8.8.8.w.~ | | q.w.w.~ | | | | | w.8.8.8.8.8.8.8.8.8.8.y.f.g.i.8.8.8.8.y.i.i.i.",
"g.i.i.8.8.8.8.8.8.8.8.w.w.w.w.8.8.8.8.8.8.8.8.8.8.8.8.8.w.~ | | | | | | | | | | u t 3 3 g 8.8.8.8.8.8.y.i.f.g.g.g.i.i.i.i.f.g.g.g.",
"d.d.d.e.8.8.w.w.w.w.w.~ | | | q.w.8.8.w.w.w.w.8.8.8.8.w.~ | | | | | | | | | | | #       o > c w.w.w.r.f.b.b.g.g.g.g.g.g.g.g.g.g.d.",
"k.| | | q.w.~ | | | | | | | | | | q.w.~ | | | q.w.w.w.~ | | | | | | | | | | | | #   B.      o h ~ ~ a.f.f.g.g.g.g.g.g.g.g.g.g.d.k.",
"~ ~ ~ | | | | | | | | | | | | | | | | | | | | | } { { { | | | | | | | | | | | | #   L.L.L...    Y 8.8.8.8.s.g.g.g.g.g.g.f.d.d.k.~ ",
"w.8.8.9.~ ~ ~ | | | | | | | | | | | | | | | | } ' ` ` ` { | ~ ~ ~ ~ ~ ~ ~ } / / #   K.J.K.L.L.9 . *.y.i.i.i.f.g.g.g.b.f.y.9.~ ~ w.",
"8.8.w.w.w.w.w.~ | | | | | | | | | | | } { { | ' ` ` ` ` ` 0.w.w.w.w.7.8.w.^ q       J.m.n.J.L.J.8 . :.g.g.g.g.g.g.g.b.i.8.8.8.8.8.",
"8.8.9.~ | | | | | | | | | | | | | | } ' ` ` { ' ` ` ` ` ` ` ` ` ` ` 0.w.( u         O.m.M.Z.J.n.m.$   &.g.g.g.g.g.g.f.y.8.8.8.8.8.",
"8.8.8.8.9.~ | | | | | | | | | | | } ' ` ` ` ] [ [ [ ' ` ` ` ] [ [ [ ' ` M <   M Y.Y.X z -.H.n.m.m.l   + f.g.g.g.g.b.i.8.8.8.8.8.8.",
"8.8.8.8.8.8.9.~ ~ ~ | | | | | | | ' ` ` ] [ d.g.g.g.h.' ` ] b k k k u u <     /.{.{.T.  - ,.m.V l l   o 8.s.g.g.g.g.i.8.y.i.8.8.8.",
"8.8.8.8.8.8.8.8.8.8.~ | | | | } { ' ` ] d.g.g.g.g.g.g.[ j 2 #                 m '.{.{.T.  & 1 $     v K 8.8.s.f.g.g.g.i.f.g.i.8.8.",
"w.8.8.8.8.8.8.8.8.8.9.k.k.k.k._ [ ' ] d.g.g.g.g.g.g.;.= $       @.@.@.@.@.8     i {.{.`. .      x U 8.8.8.8.8.8.s.g.g.b.f.f.f.i.8.",
"~ w.8.8.8.8.8.8.8.8.y.f.f.f.g.g.g.h.d.b.g.g.g.g.g.u.#       O.A.L.].].].^.G.A.,   w r P.H.H     =.g.i.8.8.8.8.8.8.s.f.f.y.8.8.s.y.",
"8.8.8.8.8.8.8.8.8.8.f.f.y.8.s.g.g.g.b.g.g.g.g.f.f.:.      o.L.L.{.{.{.{.{.{.W.L.M.    : L...    =.g.g.i.8.8.y.i.8.8.8.8.8.8.8.8.8.",
"8.8.8.8.8.8.8.8.8.8.s.y.8.8.8.s.f.f.f.g.g.g.f.y.6.      H L.L.L.{.{.{.{.{.{.W.L.L.m.          X ;.g.g.i.8.y.f.g.i.i.8.8.8.8.8.8.8.",
"i.i.i.8.8.8.8.8.8.8.8.8.8.8.8.8.r.8.8.s.g.g.i.8.U   O : X.L.L.L.{.{.{._.[.{.W.L.L.m.*       # &.g.g.g.i.i.f.g.g.g.g.i.i.i.i.i.i.i.",
"f.f.f.y.8.8.8.8.8.8.8.8.8.8.8.8.8.8.8.8.s.f.U P     4 L.L.L.L.L.{.{.!.F E.{.W.L.L.n.c., -   k f.g.g.b.g.g.g.g.g.g.f.f.f.f.f.f.f.f.",
"w.w.8.8.8.8.8.8.8.8.8.8.8.8.8.8.8.8.*.x x x X     O X.L.#.......R.!.F j.(.{.W.L.L.L.m.m.V   > *.s.f.f.f.f.f.f.f.f.y.8.8.w.w.w.w.w.",
"| | q.8.w.w.w.w.8.8.8.8.8.8.y.i.i.5.>           p l Z.t.2         p F j.~.^.I.L.L.L.m.m.V     v 8.8.8.8.8.8.8.8.8.8.w.w.~ | | | | ",
"| | | q.~ | | | q.8.8.8.y.i.f.g.u.:       0 o.B 4.1.>.-     5 B   o F F v.L.L.L.L.L.m.m.V     v 8.8.8.8.8.8.8.8.w.w.~ | | | | | | ",
"| | | | | | | | | e.i.i.f.g.g.f.-   6 @.@.G.K.m.m.x.V     5 x.m.@.@.V.F 1.V.L.L.L.L.m.m.4.5   v 8.8.8.8.8.8.8.w.~ | | | | | | | | ",
"| | | | | | | | | p.d.d.g.g.g.$   2 Q.].].].P.J.H.m.V     + >.m.L.L.K.H.H.J.L.L.L.M.m.m.m.z   v 8.8.8.8.8.w.w.~ | | | ~ ~ ~ ~ ~ | ",
"9.| | | | | | | | | | | p.d.    : L.^.{.{.{.P.L.J.m.V         <.m.L.L.L.L.L.L.L.L.m.m.m.m.z   c 8.8.8.w.w.~ | | | | ~ w.8.8.8.8.9.",
"8.~ | ~ w.8.8.9.~ ~ ~ ~ ~ !   O L.U.{.{.{.{.P.J.J.L.+.O X         O G.J.K.L.L.L.M.m.m.m.z.a   f q.8.8.9.~ ~ ~ ~ ~ ~ w.8.8.8.8.8.8.",
"8.9.~ w.8.8.8.8.8.8.8.8.8.#   O L.U.{.{.].`.P.F D D.L.D.9   = *     * m.n.H.H.H.M.m.x.F F a   f | q.w.w.8.8.8.8.8.8.8.8.8.8.8.8.8.",
"8.8.8.8.8.8.8.w.w.w.w.w.w.#   1 L.I.).).U.L.L.F F 2.B.8   : B.M.,   * m.c.z.z.z.z.z.F F F a   f ~ ~ ~ ~ w.8.8.8.8.8.8.8.8.8.8.8.8.",
"w.w.7.8.8.y.i.h.[ ' ` ` ` #   m.D.L.L.L.L.L.L.v.F F d     o.L.Z.z   * m.x.1.F F F F F F A ;   f w.8.8.8.8.8.8.8.w.w.w.w.w.7.8.w.w.",
"` ` 0.7.y.f.b.b.g.h.[ ' ` #   m.N.L.L.L.L.L.L.L.b.F A p * 4 H H     - Z.n.x.1.F F F F A ;   > *.8.8.8.8.8.8.8.w.( ` ` ` ` 0.w.( ` ",
"[ [ [ e.f.g.g.g.g.g.g.h.' #   m.N.L.L.L.L.L.L.L.J.F F F Z s s +   X O.L.H.n.x.1.F F S ;     7 8.8.8.8.8.8.w.w.( ] [ [ [ ' ` ` ] [ ",
"g.g.g.g.g.g.g.g.g.g.g.g.h.#   m.N.L.L.L.L.L.L.L.4.F F F F F F @   O L.L.L.Z.m.1.F F *       7 8.8.8.w.w.w.( ] [ d.g.g.g.h.[ [ d.g.",
"g.g.g.g.g.g.g.d.d.d.g.g.g.#   m.m.C.L.L.L.L.L.L.F F 4.H.H.H.H.S.A.S.L.L.L.Z.m.1.F F A N     7 w.r.w.( ] [ [ d.g.g.g.g.g.g.g.g.g.g.",
"g.g.g.g.g.g.d.k.| | p.g.g.$   m.m.m.C.L.L.L.L.L.F 3.L.L.L.L.L.L.L.L.L.L.L.Z.m.1.F F F F d     g d.h.[ d.g.g.g.g.g.g.d.d.d.g.g.g.g.",
"g.d.d.d.d.d.k.| | | | p.d.d.  + m.m.m.Z.K.L.L.L.L.L.L.L.L.L.L.L.L.L.L.L.K.Z.m.1.F F F F d     B f.f.f.f.f.f.g.g.d.d.k.| | p.d.g.g.",
"d.k.| | | | | | | | | | | |   X <.m.m.m.Z.H.H.L.L.L.L.L.L.L.L.L.L.L.L.J.C.m.c.1.F F F S a     b y.8.8.8.8.8.s.f.0.~ ~ ~ | | | p.d.",
"| | | | | | | | | | | | | | >   * m.m.m.m.m.m.F.F.F.L.L.L.L.L.L.L.K.F.Z.m.m.3.F F F F Z     % U 8.8.8.8.8.8.8.8.8.8.8.8.9.~ ~ ~ | ",
"9.~ ~ ~ | | | | | | | | | | W   @ V m.m.m.m.m.m.m.M.Z.Z.Z.Z.Z.Z.Z.Z.m.m.m.x.1.F F F S y     2 7.i.i.i.8.8.8.8.8.8.8.8.8.8.8.8.8.9.",
"w.w.w.w.~ | | ~ ~ ~ | | | W h >   & C m.m.m.m.m.m.m.m.m.m.m.m.m.m.m.m.m.x.1.F F F F y     % 7 =.f.g.g.i.8.8.8.8.8.8.8.8.8.8.8.8.w.",
"~ | | | | | ~ w.8.8.9.| | J h h e   & Z x.m.m.m.m.m.m.m.m.m.m.m.m.m.c.3.1.F F F y ;       < %.&.t.g.g.g.i.i.i.8.8.8.8.w.w.w.w.w.~ ",
"~ ~ ~ ~ ~ ~ w.8.8.8.8.~ | J h h h e   @ ; C 1.m.m.m.m.m.m.m.m.m.m.1.1.F F F p * .       & b &.&.u.f.f.g.g.g.g.i.8.8.8.9.~ 9.~ ~ ~ ",
"8.8.8.8.8.8.8.8.8.8.8.9.~ T h K P K 3     + @ $ & G G 3.m.m.2.G G S @ @ @ @ X       X c b %.&.%.6.8.8.s.g.g.g.g.i.8.8.8.8.8.8.8.8.",
"8.8.8.8.8.8.8.8.8.8.8.8.8.8.P P P I %.&.<                                     7 P P P P P P %.5.8.8.8.8.s.f.f.f.f.y.8.8.8.8.8.8.8.",
"8.8.8.8.8.8.8.8.8.8.8.8.8.8.8.P L I $.$.$.$.$.$.o o o o o o o o o o % I I I I K K K P P P P 5.8.8.8.8.8.8.8.8.8.8.8.8.8.8.8.8.8.8.",
"8.8.8.8.8.8.8.8.8.8.8.8.8.8.8.w.! J J J h h h h h h h h h I $.$.$.$.$.$.$.$.$.n h h L L Y w.w.8.8.8.8.8.8.8.8.8.8.8.8.8.8.8.8.8.8.",
"w.8.8.8.8.8.8.8.8.8.8.8.w.w.w.~ | | ~ Q Y U T R h h h h h h h h h h h h h J R R R R | | | | | q.w.w.w.w.w.w.w.w.8.8.8.8.8.8.8.8.8.",
"~ w.8.8.8.8.8.8.8.8.8.8.9.~ ~ ~ 9.9.w.8.8.8.8.9.W W E E E E E E E E E E E Q | | | | | | | | | | | | | | ~ ~ ~ ~ w.8.8.8.8.8.8.8.8.",
"8.8.8.8.8.8.8.8.8.8.8.8.8.8.8.8.8.8.8.8.8.8.8.8.8.8.9.| | | ~ ~ ~ ~ | | | | | | | | | | | | ~ ~ ~ ~ ~ ~ w.8.8.8.8.8.8.8.8.8.8.8.8.",
"8.8.w.w.w.w.w.e.8.8.8.w.w.w.w.w.7.8.8.8.8.8.y.i.i.8.8.~ | ~ w.8.8.8.9.| ~ ~ ~ | | ~ ~ ~ ~ ~ w.8.8.8.8.8.8.8.8.8.8.8.8.8.8.8.8.8.8.",
"w.w.' ` ` ` ` 0.7.8.w.( ` ` ` ` 0.r.8.8.8.8.f.g.g.i.8.~ | w.8.8.8.8.8.9.w.8.8.9.9.w.8.8.8.8.8.8.8.8.8.8.8.8.8.8.8.8.8.8.8.8.8.8.w.",
"` ` ] [ [ ' ` ` 0.w.( ` ] ] [ [ ' 0.r.8.y.f.g.g.g.g.i.0.| q.8.8.8.8.8.8.8.8.8.8.8.8.8.y.i.i.i.i.8.8.8.8.8.8.8.8.8.8.8.8.8.8.8.w.( ",
") ) d.g.g.h.[ ' ` ` ` ] d.g.g.g.h.[ 0.r.f.g.g.g.b.g.g.g.l.9.w.8.8.8.8.8.8.8.y.i.i.i.i.f.g.g.g.g.i.8.8.8.8.w.w.w.w.w.7.8.w.w.w.( ` ",
"y.f.g.g.g.b.g.h.[ ' ] d.g.g.g.g.g.g.h.e.f.g.g.g.b.g.g.g.g.i.8.8.8.8.8.y.i.i.f.g.g.g.g.g.g.g.g.f.y.8.8.8.w.( ` ` ` ` 0.w.( ` ` ` ` ",
"y.f.g.g.g.g.g.g.g.h.d.g.g.g.g.g.g.b.g.g.g.g.g.g.b.b.g.g.g.i.i.8.8.8.8.f.g.g.g.g.g.g.g.g.g.f.f.y.w.w.7.w.( ` ] [ ' ` ` ` ` ] [ ' ` ",
"s.g.g.g.g.g.g.g.g.g.g.g.g.g.g.g.b.b.g.g.g.g.g.b.g.g.g.g.g.g.g.i.8.8.8.s.f.f.f.f.f.f.f.f.f.y.8.w.( ` 0.( ` ] d.g.h.' ` ` ] d.g.h.[ ",
"8.s.g.g.f.f.f.g.g.g.b.b.g.g.f.f.f.f.g.g.g.g.g.d.d.g.g.g.g.g.g.i.i.i.8.8.8.8.8.8.8.8.8.8.8.8.8.) ` ] [ ' ` a.g.g.g.h.[ [ d.g.g.g.g.",
"8.8.s.g.i.8.8.a.g.g.g.g.g.f.y.8.8.8.s.g.g.g.d.k.| p.g.g.g.g.g.g.g.g.i.8.8.8.8.8.8.8.8.y.i.w.w.( ] d.g.h.[ d.g.g.g.g.g.g.g.g.g.g.g."
};
