/* XPM */
static const char *gold4[] = {
/* columns rows colors chars-per-pixel */
"65 65 183 2 ",
"   c #161C2E",
".  c #181E2E",
"X  c #1B212F",
"o  c #1C2231",
"O  c #21272F",
"+  c #242A2F",
"@  c #222532",
"#  c #282733",
"$  c #232C33",
"%  c #2B2C32",
"&  c #252B3C",
"*  c #322D36",
"=  c #2E3430",
"-  c #333433",
";  c #383535",
":  c #383934",
">  c #3B3338",
",  c #433D37",
"<  c #4E3F3D",
"1  c #374335",
"2  c #3C4333",
"3  c #39473B",
"4  c #3D513F",
"5  c #444A32",
"6  c #4E4639",
"7  c #554B3B",
"8  c #5B4F3C",
"9  c #4A5435",
"0  c #465539",
"q  c #5C503C",
"w  c #575B38",
"e  c #65573E",
"r  c #6B5B3F",
"t  c #52603B",
"y  c #656B36",
"u  c #2D3E42",
"i  c #574540",
"p  c #425944",
"a  c #674F44",
"s  c #6A5045",
"d  c #755B46",
"f  c #775849",
"g  c #4A664A",
"h  c #506E4D",
"j  c #58754D",
"k  c #526A59",
"l  c #557650",
"z  c #5B7C52",
"x  c #796544",
"c  c #7D6943",
"v  c #6C7843",
"b  c #627F4D",
"n  c #797B48",
"m  c #617D51",
"M  c #517061",
"N  c #5F6370",
"B  c #8B7246",
"V  c #957B48",
"C  c #8F6850",
"Z  c #916950",
"A  c #AC7A58",
"S  c #7D8438",
"D  c #5C8053",
"F  c #6D8646",
"G  c #698449",
"H  c #728844",
"J  c #798947",
"K  c #77844A",
"L  c #7A9346",
"P  c #678552",
"I  c #6C955B",
"U  c #7A9954",
"Y  c #729D5D",
"T  c #7FAB5F",
"R  c #6E976F",
"E  c #73986E",
"W  c #679175",
"Q  c #6A9274",
"!  c #749771",
"~  c #779870",
"^  c #76A464",
"/  c #78A763",
"(  c #79A863",
")  c #72A069",
"_  c #8C8C3C",
"`  c #8C933A",
"'  c #94973D",
"]  c #989D3C",
"[  c #9AA13B",
"{  c #A3A93C",
"}  c #B4BB3E",
"|  c #C1C83F",
" . c #80864E",
".. c #86884C",
"X. c #8A884D",
"o. c #98884C",
"O. c #839D48",
"+. c #94974F",
"@. c #989852",
"#. c #A6874C",
"$. c #B7934F",
"%. c #B38556",
"&. c #B78856",
"*. c #BA8C56",
"=. c #A09E53",
"-. c #BF9255",
";. c #BE9D52",
":. c #85A34C",
">. c #8AA34A",
",. c #8DA94B",
"<. c #96A74D",
"1. c #92AC4C",
"2. c #96B34C",
"3. c #99B74F",
"4. c #9BB94E",
"5. c #84AD5B",
"6. c #89AB5B",
"7. c #9CA055",
"8. c #8FB355",
"9. c #94B452",
"0. c #9AB454",
"q. c #9FB850",
"w. c #A0B94F",
"e. c #A4A453",
"r. c #AAA755",
"t. c #A6AC51",
"y. c #AEAA56",
"u. c #B2AE57",
"i. c #A2B950",
"p. c #A7B35D",
"a. c #ADB55C",
"s. c #B2B956",
"d. c #B2B55C",
"f. c #BAB559",
"g. c #B7B959",
"h. c #BDBA5A",
"j. c #849E6C",
"k. c #84AA61",
"l. c #98A967",
"z. c #C39D51",
"x. c #C59A54",
"c. c #C0A34D",
"v. c #C6AD4F",
"b. c #CAB94B",
"n. c #D6BB4F",
"m. c #CEA554",
"M. c #D0AC52",
"N. c #D4B650",
"B. c #C2BF7B",
"V. c #C3C741",
"C. c #D3C64B",
"Z. c #D9C44D",
"A. c #D6CB4A",
"S. c #DDCE4B",
"D. c #CED541",
"F. c #D1D746",
"G. c #D3DA41",
"H. c #DDD34A",
"J. c #E1DE47",
"K. c #E0D749",
"L. c #E3E346",
"P. c #E6EB45",
"I. c #E8EE44",
"U. c #E9F044",
"Y. c #EAF04F",
"T. c #EAF153",
"R. c #ECF261",
"E. c #EDF36C",
"W. c #EFF47C",
"Q. c #91949D",
"!. c #999BA3",
"~. c #B2B4BA",
"^. c #D0B4A1",
"/. c #F1F58B",
"(. c #F2F695",
"). c #F5F8AD",
"_. c #F7F9B8",
"`. c #D8D9DC",
"'. c #E5D5CA",
"]. c #F8FAC4",
"[. c #FCFDE7",
"{. c #FCFDEC",
"}. c white",
/* pixels */
"h.h.h.h.h.d.d.d.d.h.h.h.h.g.w.4.4.4.s.h.h.h.d.k.( p.h.h.h.h.h.h.h.h.i.4.4.4.4.4.4.4.4.w.i.9.9.R ! d.h.j.~ d.h.h.h.h.h.h.h.h.h.h.h.",
"g.h.h.h.d.k.( ( ( p.g.g.h.i.4.4.4.4.4.s.d.d.k.( ( ( d.h.h.h.h.h.g.g.g.w.4.4.4.4.4.w.i.g.h.j.~ ~ d.h.h.v.h.g.g.g.h.h.h.v.h.g.g.g.g.",
"9.a.d.d.k.( ( ( ( ( 9.4.s.w.4.4.4.9.9.9.T ( ( ( ( ( a.g.g.g.g.g.w.4.4.4.4.4.4.w.i.g.h.h.h.h.h.h.h.h.h.h.g.w.4.4.s.h.h.h.g.w.4.9.9.",
"( ( ( ( ( ( ( ( ( T 9.4.4.4.4.4.9.T ( ( ( ( ( ( ( ( 8.4.4.4.4.4.4.4.4.4.4.4.w.g.h.g.g.g.h.h.h.h.h.h.g.g.w.4.4.4.4.g.h.h.i.4.9.( ( ",
"( ( ( ( ( ( ( ( ( 8.9.9.9.4.4.9.T ( ( ( ( T T ( ( ( ( 8.4.4.4.4.4.4.4.4.w.i.g.h.g.w.4.4.s.h.h.h.g.g.w.4.4.4.4.4.4.s.g.h.i.4.5.( ( ",
"( ( ( ( ( ( ( ( ( ( ( ( ( 8.9.T ( ( ( ( T 9.4.5.T ( ( ( 8.9.4.4.4.4.4.4.s.g.g.g.w.4.4.4.4.s.g.g.i.4.4.4.4.4.4.4.4.4.4.s.0.9.T ( ( ",
"T T T ( ( ( ( ( ( ( ( ( ( ( ( ( ( ( ( ( 9.4.4.4.4.5.T T T T 9.4.4.4.4.4.4.4.4.4.4.4.4.4.4.4.4.4.4.4.4.4.4.4.9.9.9.9.9.9.T ( ( ( T ",
"9.4.4.5.( ( T T T ( ( ( ( ( ( ( T T ( ( 9.4.4.4.4.4.4.4.4.4.4.4.4.4.4.4.4.4.9.1 1 1 1 1 1 1 >.4.4.4.4.4.4.4.5.T T ( ( ( ( ( ( T 9.",
"4.4.4.4.T T 9.4.4.5.T ( ( ( ( T 9.4.5.( 8.4.4.4.4.4.4.4.4.4.4.4.4.4.4.4.4.9.T     5 D.S     $ $ 4.4.4.4.4.4.4.4.4.5.T T ( ( ( 9.4.",
"4.4.4.4.5.9.4.4.4.4.4.5.T T T 9.4.4.4.5.T 9.4.4.4.4.4.4.4.4.9.9.9.4.4.4.9.T ( (   9 U.U.U.U.2     4.4.4.4.4.i.i.4.4.4.4.5.T T 9.4.",
"i.4.4.4.4.4.4.4.4.4.4.4.4.4.4.4.4.4.4.4.4.4.4.4.4.4.4.4.4.9.T ( ( 8.9.9.T ( ( ( I   y I.P.I.U.2   $ 2.4.4.w.g.h.i.4.4.4.4.w.i.i.i.",
"h.i.i.4.4.4.4.4.4.4.4.9.9.9.9.4.4.4.4.4.4.4.4.4.4.4.4.4.9.T ( ( ( ( ( ( ( ( ( ( D   w b.m.K.U.L.; - 1 w.i.g.h.h.h.i.i.i.i.g.h.h.h.",
"d.d.d.0.4.4.9.9.9.9.9.T ( ( ( 8.9.4.4.9.9.9.9.4.4.4.4.9.T ( ( ( ( ( ( ( ( ( ( z       6 V b.K.M.m.$.1 g.v.v.h.h.h.h.h.h.h.h.h.h.d.",
"k.( ( ( 8.9.T ( ( ( ( ( ( ( ( ( ( 8.9.T ( ( ( 8.9.9.9.T ( ( ( ( ( ( ( ( ( ( (             q c z.m.d 3 g.g.h.h.h.h.h.h.h.h.h.h.d.k.",
"T T T ( ( ( ( ( ( ( ( ( ( ( ( ( ( ( ( ( ( ( ( ( ^ ^ ^ ^ / ( ( Y p p p p p p p   & !.!.N       q e   1 4.4.s.h.h.h.h.v.h.g.d.d.k.T ",
"9.4.4.5.T T T ( ( ( ( ( ( ( ( ( ( ( ( ( ( ( ( ^ Q W W W ) ( 4 3                 @ Q.}.`.l.2       v J i.i.i.g.h.h.h.v.g.w.5.T T 9.",
"4.4.9.9.9.9.9.T ( ( ( ( ( ( ( ( ( ( ( ^ ^ ^ / Q W W W W W 4     2 } } } } } %     & Q.~.t.V.-     i.g.h.h.h.h.h.h.h.v.i.4.4.4.4.4.",
"4.4.5.T ( ( ( ( ( ( ( ( ( ( ( ( ( ( ^ u $ $ $ $ $ $ $ M u     D.G.U.U.U.U.U.G.D.D.{ @ & + - X     h.h.h.h.h.h.h.h.h.g.w.4.4.4.4.4.",
"4.4.4.4.5.T ( ( ( ( ( ( ( ( ( ( h                           U.U.U.U.U.).}.}.}.U.U.J.m.c         g.g.g.g.g.h.h.h.h.v.i.4.4.4.4.4.4.",
"4.4.4.4.4.4.5.T T T ( ( ( ( ^ h   X + + F.Y.U.U.U.S.r @ @ D.U.U.P.L.U.).}.}.}.}.U.U.H.m.r .   e.w.4.4.4.4.s.h.h.h.v.i.4.w.i.4.4.4.",
"4.4.4.4.4.4.4.4.4.4.T ( ( ^ h   + [ U.R.{.}.R.U.I.S.m.m.m.V.| | ] y T._.}.}.}.}.R.U.K.M.m.6   H 4.4.4.4.4.4.s.g.h.h.h.i.g.h.i.4.4.",
"9.4.4.4.4.4.4.4.4.4.5.k.k.j   % ' U.E.[.}.}.[.U.I.S.m.m.o.@       9 B.'.'.'.'.}._.U.U.S.m.x @   i.i.4.4.4.4.4.4.s.h.h.v.g.g.g.i.4.",
"T 9.4.4.4.4.4.4.4.4.w.g.g.  % B Z.U.].}.}.}.[.U.U.J.N.V %   e q     i A A A A }.U.U.U.S.m.m.;   h.h.i.4.4.4.4.4.4.s.g.g.w.4.4.s.w.",
"4.4.4.4.4.4.4.4.4.4.g.g.t @ V m.Z.U.W.(.(.(./.J.C.U.J.w     m.z.e   * C A A A ^.U.U.U.S.m.m.;   h.h.h.i.4.4.w.i.4.4.4.4.4.4.4.4.4.",
"4.4.4.4.4.4.4.4.4.4.s.w.  % m.N.L.U.U.U.U.U.L.;.c.U.U.} =   8 m.c.[ [ #.A b.%.A U.U.U.S.m.m.;   h.h.h.i.4.w.g.h.i.i.4.4.4.4.4.4.4.",
"i.i.i.4.4.4.4.4.4.4.4.0   #.m.Z.U.U.U.U.U.U.L.A %.b.U.U.2     7 N.U.U.v.b.P.H.A U.U.U.S.m.m.;   h.h.h.i.i.g.h.h.h.h.i.i.i.i.i.i.i.",
"g.g.g.w.4.4.4.4.4.4.4.$   m.m.Z.U.U.U.U.U.U.L.A A d ] U.G.= $.. w U.U.L.P.U.U.L.U.U.U.S.m.m.;   h.h.v.v.h.h.h.h.h.g.g.g.g.g.g.g.g.",
"9.9.4.4.4.4.4.4.4.4.4.$   m.m.Z.U.U.U.U.U.U.L.A A s   { U.U.m.    y U.U.U.U.U.U.U.U.H.m.m.m.;   s.g.g.g.g.g.g.g.g.w.4.4.9.9.9.9.9.",
"( ( 8.4.9.9.9.9.4.4.4.$   m.m.m.Z.U.U.U.U.U.P.A.A s     | U.M.$.  8 m.S.U.U.U.U.U.I.H.m.m.z.; >.4.4.4.4.4.4.4.4.4.4.9.9.T ( ( ( ( ",
"( ( ( 8.T ( ( ( 8.4.4.$   m.m.m.Z.U.U.U.U.U.A A A f @   { | | V   8 m.Z.L.I.U.U.U.J.m.m.m.6   >.4.4.4.4.4.4.4.4.9.9.T ( ( ( ( ( ( ",
"( ( ( ( ( ( ( ( ( 0.i.$   m.m.m.n.L.U.U.U.U.A A %.;.x @         @ c m.x.m.S.K.K.K.S.m.m.#.: 1 ,.4.4.4.4.4.4.4.9.T ( ( ( ( ( ( ( ( ",
"( ( ( ( ( ( ( ( ( p.d.%   B m.m.m.n.L.U.U.U.v.v.C.U.A.x @     O _ n.m.*.&.-.m.m.m.m.-.#.,   O.4.4.4.4.4.4.9.9.T ( ( ( T T T T T ( ",
"5.( ( ( ( ( T ( ( ( ( $   % m.m.m.m.n.Z.P.U.U.U.U.U.U.A.] ` ` ] U.L.n.*.A A &.*.*.&.A s   0 ,.9.4.4.4.9.9.T ( ( ( ( T 9.4.4.4.4.5.",
"4.T ( T 9.4.4.5.T T T z   % m.m.m.m.m.m.n.U.U.U.U.U.U.U.U.U.U.U.U.U.S.*.A A A A A A A s   F T ( 8.4.4.5.T T T T T T 9.4.4.4.4.4.4.",
"4.5.T 9.4.4.4.4.4.4.4.4.L X e m.m.m.m.m.m.U.U.U.U.U.U.U.U.U.U.U.U.U.S.x.%.A A A A C > %   z ( ( ( 8.9.9.4.4.4.4.4.4.4.4.4.4.4.4.4.",
"4.4.4.4.4.4.4.9.9.9.9.9.9.  X r m.m.m.m.m.M.U.U.U.U.U.U.U.U.U.U.U.K.M.m.&.A A A Z @     g ^ ( ( T T T T 9.4.4.4.4.4.4.4.4.4.4.4.4.",
"9.9.3.4.4.w.i.j.~ Q W W W U     e m.m.m.m.m.m.N.U.U.U.U.U.U.U.U.J.m.m.*.A A #         p T T 5.5.9.4.4.4.4.4.4.4.9.9.9.9.9.3.4.9.9.",
"W W 6.3.w.g.v.v.h.j.~ Q W W P o o x z.m.m.m.m.m.m.m.S.P.P.P.P.L.m.m.-.A A A A o     0 4.4.4.4.4.4.4.4.4.4.4.4.9.R W W W W 6.9.R W ",
"~ ~ ~ 0.g.h.h.h.h.h.h.j.Q W W W k $   f x.m.m.m.m.m.m.m.m.m.m.m.m.*.A A A A A A     0 4.4.4.4.4.4.4.4.4.4.9.9.R ! ~ ~ ~ Q W W ! ~ ",
"h.h.h.h.h.h.h.h.h.h.h.h.j.Q W ! d.n $   s x.m.m.m.m.m.m.m.m.m.m.-.A A A A A A A     0 9.9.4.4.4.4.4.9.9.9.R ! ~ d.h.h.h.j.~ ~ d.h.",
"h.h.h.h.h.h.h.d.d.d.h.h.h.j.Q a.h.g.n $   s c B -.-.-.-.-.-.-.*.A A A A A A A s   $ l ( ( 8.9.9.q.9.R ! ~ ~ d.h.h.h.h.h.h.h.h.h.h.",
"h.h.h.h.h.h.d.k.( ( p.h.h.h.j.d.g.w.4.K n     @ i f A A A A A A A A A A A a i     1 k.k.k.k.k.k.d.j.~ d.h.h.h.h.h.h.d.d.d.h.h.h.h.",
"h.d.d.d.d.d.k.( ( ( ( p.d.d.g.g.w.4.4.4.s.n v     % < < < < A A A A A f < @     $ X.h.h.h.h.h.h.g.g.g.g.g.g.h.h.d.d.k.( ( p.d.h.h.",
"d.k.( ( ( ( ( ( ( ( ( ( ( ( 8.9.9.4.4.4.4.4.2.L L w         > > > > > @       +.+.g.g.g.g.g.g.g.w.4.4.4.4.4.s.g.6.T T T ( ( ( p.d.",
"( ( ( ( ( ( ( ( ( ( ( ( ( ( ( ( ( 8.9.9.4.4.4.9.9.,.:.:.:.$                 L 4.4.4.4.4.4.4.4.4.4.4.4.4.4.4.4.4.4.4.4.4.5.T T T ( ",
"5.T T T ( ( ( ( ( ( ( ( ( ( ( ( ( ( ( ( 8.9.9.T ( ( ( ( ( 9.4.4.4.4.4.4.4.4.4.4.4.4.4.4.4.4.4.w.i.i.i.4.4.4.4.4.4.4.4.4.4.4.4.4.5.",
"9.9.9.9.T ( ( T T T ( ( ( ( ( ( ( ( ( ( ( ( ( ( ( k.k.k.( 9.4.4.4.4.4.4.4.4.4.4.4.4.4.4.4.4.w.g.h.h.h.i.4.4.4.4.4.4.4.4.4.4.4.4.9.",
"T ( ( ( ( ( T 9.4.4.5.( ( ( ( ( ( ( T T T T T T k.d.h.h.l.9.4.4.4.4.4.4.4.4.4.4.4.4.w.i.i.i.g.h.h.h.h.h.i.i.i.4.4.4.4.9.9.9.9.9.T ",
"T T T T T T 9.4.4.4.4.T ( ( ( T T T 9.4.w.i.4.4.g.f.y.y.y.<.,.,.,.,.,.,.2.4.4.4.4.4.s.g.h.h.h.h.g.g.g.h.h.h.h.i.4.4.4.5.T 5.T T T ",
"4.4.4.4.4.4.4.4.4.4.4.5.T T T 9.4.4.w.i.g.h.<.>.e.@.X.X.X.X.H H H H H H O.>.>.>.4.4.4.4.s.g.h.g.w.4.4.s.h.h.h.h.i.4.4.4.4.4.4.4.4.",
"4.4.4.4.4.4.4.4.4.4.4.4.4.4.4.4.4.w.g.h.e.=.X.X.X. . . .X.X.J H H H H H H H H H O.O.,.4.4.4.s.w.4.4.4.4.s.g.g.g.g.w.4.4.4.4.4.4.4.",
"4.4.4.4.4.4.4.4.4.4.4.4.4.4.4.4.9.a.7.+. . . . . .m z z K X.X.X.X.X.J H H H H F F F H ,.4.4.4.4.4.4.4.4.4.4.4.4.4.4.4.4.4.4.4.4.4.",
"4.4.4.4.4.4.4.4.4.4.4.4.4.4.4.9.T ( P z z z z z z z z z z K  . . . . . . . . .m z z G H :.9.9.4.4.4.4.4.4.4.4.4.4.4.4.4.4.4.4.4.4.",
"9.4.4.4.4.4.4.4.4.4.4.4.9.9.9.T ( I z z F H b z z z z z z z z z z z z z z z z z z z z z D Y ( 8.9.9.9.9.9.9.9.9.4.4.4.4.4.4.4.4.4.",
"T 9.4.4.4.4.4.4.4.4.4.4.5.T T T T I F H H H H b z z z z z z z z z z z z z z z z z z z z z Y ( ( ( ( ( ( T T T T 9.4.4.4.4.4.4.4.4.",
"4.4.4.4.4.4.4.4.4.4.4.4.4.4.4.4.4.O.H H H H H H H H b z z z z z z z z z z z z z z z z z z Y ( T T T T T 9.4.4.4.4.4.4.4.4.4.4.4.4.",
"4.4.9.9.9.9.9.3.4.4.4.9.9.9.9.9.0.>.H H H H H H H H H z z z F H H H b z z z z z z z z z P Y 9.4.4.4.4.4.4.4.4.4.4.4.4.4.4.4.4.4.4.",
"9.9.Q W W Q Q 6.3.4.9.R W W W W 6.4.L H H H ..X.X.J H z z F H H H H H b F H H b z F H H ,.4.4.4.4.4.4.4.4.4.4.4.4.4.4.4.4.4.4.4.9.",
"W W ! ~ ~ Q W Q 6.9.R W ! ! ~ ~ Q 6.>.O.H ..X.X.X.X.J b z G H H H H H H H H H H H H L <.i.i.i.i.4.4.4.4.4.4.4.4.4.4.4.4.4.4.4.9.R ",
"E E d.h.h.j.~ Q W W W ! d.h.h.h.k.~ 6.4.e.e.X.X.X.X.X.X.P z F H H H H H H H H H >.>.1.g.v.h.v.h.i.4.4.4.4.9.9.9.9.9.3.4.9.9.9.R W ",
"w.g.h.h.h.h.h.j.~ Q ! d.h.h.h.h.h.h.j.0.g.h.r.r.r.@.X.X.X.H H H H H H H O.,.e.r.h.h.h.h.h.h.h.g.w.4.4.4.9.R W W W W 6.9.R W W W W ",
"w.g.h.h.h.h.h.h.h.j.d.v.h.h.h.h.v.v.h.h.h.h.h.h.h.f.u.u.u.<.1.1.1.1.1.y.f.h.h.h.h.h.h.h.h.g.g.w.9.9.3.9.R W ! ~ Q W W W W ! ~ Q W ",
"s.h.h.h.h.h.h.h.h.h.v.v.h.h.h.h.v.v.h.h.h.h.h.v.h.h.h.h.h.h.h.i.4.4.4.s.g.g.g.g.g.g.g.g.g.w.4.9.R W 6.R W ! d.h.j.Q W W ! d.h.j.~ ",
"4.s.h.h.g.g.g.h.h.h.v.v.h.h.g.g.g.g.h.h.h.h.v.d.d.h.h.h.h.h.h.i.i.i.4.4.4.4.4.4.4.4.4.4.4.4.4.E W ! ~ Q W a.h.h.h.j.~ ~ d.h.h.h.h.",
"4.4.s.h.i.4.4.a.h.h.h.h.h.g.w.4.4.4.s.h.h.h.d.k.( p.h.h.h.h.h.h.h.h.i.4.4.4.4.4.4.4.4.w.i.9.9.R ! d.h.j.~ d.h.h.h.h.h.h.h.h.h.h.h."
};
