/* XPM */
static const char *gold1[] = {
/* columns rows colors chars-per-pixel */
"65 65 129 2 ",
"   c #7EAA5F",
".  c #6E976F",
"X  c #70986D",
"o  c #76986F",
"O  c #7F9E6A",
"+  c #7A9C6D",
"@  c #679175",
"#  c #699472",
"$  c #6A9274",
"%  c #749771",
"&  c #779870",
"*  c #75A366",
"=  c #76A465",
"-  c #78A763",
";  c #79A863",
":  c #7EA96E",
">  c #99B74F",
",  c #9BB94E",
"<  c #9CB94E",
"1  c #84AD5B",
"2  c #80AB5F",
"3  c #89AB5B",
"4  c #8CAC5A",
"5  c #8AAD5D",
"6  c #8FB355",
"7  c #93B253",
"8  c #93B552",
"9  c #94B551",
"0  c #91B155",
"q  c #94B254",
"w  c #9AB553",
"e  c #99B356",
"r  c #9FB850",
"t  c #A0B94F",
"y  c #A1B950",
"u  c #A7B952",
"i  c #A7B35D",
"p  c #ACB65A",
"a  c #AEB25F",
"s  c #A7BD5B",
"d  c #B2B956",
"f  c #B3B75B",
"g  c #B1B35E",
"h  c #B1B65C",
"j  c #B4B75C",
"k  c #B7B959",
"l  c #B8B958",
"z  c #BFBA5B",
"x  c #849E6C",
"c  c #83AA61",
"v  c #86AB61",
"b  c #84AF6F",
"n  c #90AE60",
"m  c #8CB36F",
"M  c #9CBC69",
"N  c #86B072",
"B  c #8FB270",
"V  c #88B174",
"C  c #8DB57A",
"Z  c #8BB17E",
"A  c #90B77F",
"S  c #BBBC60",
"D  c #C2BE64",
"F  c #ACC165",
"G  c #AAC369",
"H  c #ACC56D",
"J  c #BBC16A",
"K  c #B0C471",
"L  c #B7CA7A",
"P  c #C4C069",
"I  c #C5C16C",
"U  c #C3C372",
"Y  c #C9C575",
"T  c #8AAB8F",
"R  c #8DB381",
"E  c #8FB483",
"W  c #8CB184",
"Q  c #8FB488",
"!  c #8CAD93",
"~  c #8AAA95",
"^  c #8DAE94",
"/  c #A1B89C",
"(  c #9AB5A1",
")  c #B9CE83",
"_  c #BACE84",
"`  c #A1C291",
"'  c #ACC99F",
"]  c #B3CEA7",
"[  c #BCCFA2",
"{  c #A9C1B1",
"}  c #CACA82",
"|  c #D0CC87",
" . c #CDDCA7",
".. c #D4DFAF",
"X. c #C2D6BC",
"o. c #E1E1B7",
"O. c #E4E2B9",
"+. c #DCE7C5",
"@. c #D0E0C8",
"#. c #D5E4CE",
"$. c #D6E5D0",
"%. c #DDE9D7",
"&. c #E0E8C5",
"*. c #E3ECCE",
"=. c #E7EDD1",
"-. c #E9EAD1",
";. c #EBF1DE",
":. c #ECF2DD",
">. c #F0F0DA",
",. c #DDE7E1",
"<. c #DFE8E1",
"1. c #E7EFE1",
"2. c #E4ECE7",
"3. c #E9EFEB",
"4. c #E8F0E0",
"5. c #EFF5EB",
"6. c #EBF1ED",
"7. c #EDF2ED",
"8. c #F0F1E0",
"9. c #F2F6E9",
"0. c #F6F6EA",
"q. c #F7F7EE",
"w. c #F9F9EF",
"e. c #F2F6F3",
"r. c #F7FAF1",
"t. c #FAF9F1",
"y. c #FBFBF4",
"u. c #FAFCF6",
"i. c white",
/* pixels */
"z z z z z j h h h z z z z l t , , , d z z z j c ; i z z z z z z z z u < , , , , , , , t y q 0 . % g z x & g z z z z z z z z z z z ",
"l z z z j c ; ; ; i k l z y , , , , , d f h c ; ; ; h z z z z z l l l t , , , , , t y l z x & & g z z z z l l l z z z z z l l l l ",
"9 p h h c ; ; ; ; ; 9 , d t , , , 9 9 9   ; ; ; ; ; p l l l l l t , , , , , , t y l z z z z z z z z z z l t , , d z z z l t , 9 9 ",
"; ; ; ; ; ; ; ; ;   9 , , , , , 9   ; ; ; ; ; ; ; ; 6 , , , , , , , , , , , t l z l l l z z z z z z l l t , , , , l z z y , 9   ; ",
"; ; ; ; ; ; ; ; ; 6 9 9 9 , , 9   ; ; ; ;     ; ; ; ; 6 , , , , , , , , t y l z l t , , d z z z l l t , , , , , , d l z y ,   ; ; ",
"; ; ; ; ; ; ; ; ; ; ; ; ; 6 9   ; ; ; ;   9 , 1   ; ; ; 6 9 , , , , , , d l l l t , , , , d l l t , , , , , , , , , , d w 9   ; ; ",
"      ; ; ; ; ; ; ; ; ; ; ; ; ; ; ; ; ; 9 , , , , 1         9 , , , , , , , , , , , , , , , , , , , , , , , 9 9 9 9 9 9   ; ; ;   ",
"9 , , 1 ; ;       ; ; ; ; ; ; ;     ; ; 9 , , , , , , , , , , , , , , , , , 9 9 9 , , , , , , , , , , , , , 1     ; ; ; ; ; ;   9 ",
", , , ,     9 , , 1   ; ; ; ;   9 , 1 ; 6 , , , , , , , , , , , , , , , , 9   ; ; 6 , , , , , , , , , , , , , , , 1     ; ; ; 9 , ",
", , , , 1 9 , , , , , 1       9 , , , 1   9 , , , , , , , , 9 9 9 , , , 9   ; ; ; ; 9 , , , , , , , , , , , t y < , , , 1     9 , ",
"y < , , , , , , , , , , , , , , , , , , , , , , , , , , , 9   ; ; 6 9 9   ; ; ; ; ; 9 , , , , , , , , , , t l z u < , , , t y y y ",
"z u y < , , , , , , , 9 9 9 9 , , , , , , , , , , , , , 9   ; ; ; ; ; ; ; ; ; ; ; ; 6 9 9 , , , , , , t y l z z z u y y y l z z z ",
"j h h w , , 9 9 9 9 9   ; ; ; 6 9 , , 9 9 9 9 , , , , 9   ; ; ; ; ; ; ; ; ; ; ; ; ; ; ; ; 6 9 9 9 9 r l z z z z z z z z z z z z j ",
"c ; ; ; 6 9   ; ; ; ; ; ; ; ; ; ; 6 9   ; ; ; 6 9 9 9   ; ; ; ; ; ; ; ; ; ; ; ; ; ; ; ; ; ; ; ;     p l l z z z z z z z z z z j c ",
"      ; ; ; ; ; ; ; ; ; ; ; ; ; ; ; ; ; ; ; ; ; = * * X.i.i.i.i.i.i.i.i.] ; ; ; ; ; ; ; ;       9 , , , , d z z z z z z l f h c   ",
"9 , , 1       ; ; ; ; ; ; ; ; ; ; ; ; ; ; ; ; : ! i.i.i.i.i.i.i.i.i.i.i.i.i.i.R : - ; ;   9 , , , , t y y y l z z z z l t 1     9 ",
", , 9 9 9 9 9   ; ; ; ; ; ; ; ; ; ; ; = * Z A i.i.i.i.i.i.i.i.i.i.i.i.i.i.i.i.i.i.W Z - 9 , , , t y l z z z z z z z z y , , , , , ",
", , 1   ; ; ; ; ; ; ; ; ; ; ; ; ; ; = # ~ e.i.i.i.i.i.i.i.i.i.i.i.i.i.i.i.i.i.i.i.i.6.Q 8 , , t l z z z z z z z z z l t , , , , , ",
", , , , 1   ; ; ; ; ; ; ; ; ; ; ; = ^ { 3.i.i.i.i.i.i.i.i.i.i.i.i.i.i.i.i.i.i.i.i.i.i.2.[ K y l l l l l l z z z z z y , , , , , , ",
", , , , , , 1       ; ; ; ; ; ; ; T ,.i.i.i.i.i.i.i.i.i.i.i.i.i.i.i.i.i.i.i.i.i.i.i.i.i.i.-.U l t , , , , d z z z z u < t y < , , ",
", , , , , , , , , ,   ; ; ; ; = E <.i.i.i.i.i.i.i.i.i.i.i.i.i.i.i.i.i.i.i.i.i.i.i.i.i.i.i.i.=.G , , , , , , d l z z z u l z u < , ",
"9 , , , , , , , , , 1 v v v v + / i.i.i.i.i.i.i.i.i.i.i.i.i.i.i.i.i.i.i.i.i.i.i.i.i.i.i.i.i.i.L y y < , , , , , d z z z l l l u < ",
"  9 , , , , , , , , t l l l z Y t.i.i.i.i.i.i.i.i.i.i.i.i.i.i.i.i.i.i.i.i.i.i.i.i.i.i.i.i.i.i.w.I z u < , , , , , d l l t , , d t ",
", , , , , , , , , , l l t , J i.i.i.i.i.i.i.i.i.i.i.i.i.i.i.i.i.i.i.i.i.i.i.i.i.i.i.i.i.i.i.i.i.i.z z y , , t y < , , , , , , , , ",
", , , , , , , , , , d t , , H i.i.i.i.i.i.i.i.i.i.i.i.i.i.i.i.i.i.i.i.i.i.i.i.i.i.i.i.i.i.i.i.i.i.D z y , t l z u y < , , , , , , ",
"y y y < , , , , , , , , , , i.i.i.i.i.i.i.i.i.i.i.i.i.i.i.i.i.i.i.i.i.i.i.i.i.i.i.i.i.i.i.i.i.i.i.i.z u y l z z z z u y y y y y y ",
"l l l t , , , , , , , , , _ i.i.i.i.i.i.i.i.i.i.i.i.i.i.i.i.i.i.i.i.i.i.i.i.i.i.i.i.i.i.i.i.i.i.i.i.| z z z z z z l l l l l l l l ",
"9 9 , , , , , , , , , , , i.i.i.i.i.i.i.i.i.i.i.i.i.i.i.i.i.i.i.i.i.i.i.i.i.i.i.i.i.i.i.i.i.i.i.i.i.0.l l l l l l t , , 9 9 9 9 9 ",
"; ; 6 , 9 9 9 9 , , , , , i.i.i.i.i.i.i.i.i.i.i.i.i.i.i.i.i.i.i.i.i.i.i.i.i.i.i.i.i.i.i.i.i.i.i.i.i.9., , , , , , , 9 9   ; ; ; ; ",
"; ; ; 6   ; ; ; 6 , , , ..i.i.i.i.i.i.i.i.i.i.i.i.i.i.i.i.i.i.i.i.i.i.i.i.i.i.i.i.i.i.i.i.i.i.i.i.i.u. ., , , , 9 9   ; ; ; ; ; ; ",
"; ; ; ; ; ; ; ; ; w y y 0.i.i.i.i.i.i.i.i.i.i.i.i.i.i.i.i.i.i.i.i.i.i.i.i.i.i.i.i.i.i.i.i.i.i.i.i.i.i.:., , , 9   ; ; ; ; ; ; ; ; ",
"; ; ; ; ; ; ; ; ; i h h 0.i.i.i.i.i.i.i.i.i.i.i.i.i.i.i.i.i.i.i.i.i.i.i.i.i.i.i.i.i.i.i.i.i.i.i.i.i.i.:., 9 9   ; ; ;           ; ",
"1 ; ; ;       ; ; ; ; ; 0.i.i.i.i.i.i.i.i.i.i.i.i.i.i.i.i.i.i.i.i.i.i.i.i.i.i.i.i.i.i.i.i.i.i.i.i.i.i.;.9   ; ; ; ;   9 , , , , 1 ",
",   ;   9 , , 1         5.i.i.i.i.i.i.i.i.i.i.i.i.i.i.i.i.i.i.i.i.i.i.i.i.i.i.i.i.i.i.i.i.i.i.i.i.i.i.4.            9 , , , , , , ",
", 1   9 , , , , , , , , 9.i.i.i.i.i.i.i.i.i.i.i.i.i.i.i.i.i.i.i.i.i.i.i.i.i.i.i.i.i.i.i.i.i.i.i.i.i.i.;., , , , , , , , , , , , , ",
", , , , , , , 7 0 0 0 0 9.i.i.i.i.i.i.i.i.i.i.i.i.i.i.i.i.i.i.i.i.i.i.i.i.i.i.i.i.i.i.i.i.i.i.i.i.i.i.1.9 , , , , , , , , , , , , ",
"0 0 > , , t y O & $ @ @ 7.i.i.i.i.i.i.i.i.i.i.i.i.i.i.i.i.i.i.i.i.i.i.i.i.i.i.i.i.i.i.i.i.i.i.i.i.i.i.:., , , , 7 0 0 0 0 > , 7 0 ",
"@ @ 3 > t l z z z x & $ 7.i.i.i.i.i.i.i.i.i.i.i.i.i.i.i.i.i.i.i.i.i.i.i.i.i.i.i.i.i.i.i.i.i.i.i.i.i.i.:., , , 7 . @ @ @ @ 3 0 . @ ",
"& & & e l z z z z z z x ( i.i.i.i.i.i.i.i.i.i.i.i.i.i.i.i.i.i.i.i.i.i.i.i.i.i.i.i.i.i.i.i.i.i.i.i.i.r.) , 7 0 . % & & & $ @ @ % & ",
"z z z z z z z z z z z z x i.i.i.i.i.i.i.i.i.i.i.i.i.i.i.i.i.i.i.i.i.i.i.i.i.i.i.i.i.i.i.i.i.i.i.i.i.9.0 0 . % & g z z z x & & g z ",
"z z z z z z z j h h z z z i.i.i.i.i.i.i.i.i.i.i.i.i.i.i.i.i.i.i.i.i.i.i.i.i.i.i.i.i.i.i.i.i.i.i.i.i.7.% & & g z z z z z z z z z z ",
"z z z z z z j c ; ; i z z z i.i.i.i.i.i.i.i.i.i.i.i.i.i.i.i.i.i.i.i.i.i.i.i.i.i.i.i.i.i.i.i.i.i.i.i.& g z z z z z z j h h z z z z ",
"z j h h h h c ; ; ; ; i h h y.i.i.i.i.i.i.i.i.i.i.i.i.i.i.i.i.i.i.i.i.i.i.i.i.i.i.i.i.i.i.i.i.i.i.y.l l l l z z j h c ; ; i h z z ",
"h c ; ; ; ; ; ; ; ; ; ; ; ; M i.i.i.i.i.i.i.i.i.i.i.i.i.i.i.i.i.i.i.i.i.i.i.i.i.i.i.i.i.i.i.i.i.i., , , , , d l 5       ; ; ; i h ",
"; ; ; ; ; ; ; ; ; ; ; ; ; ; b %.i.i.i.i.i.i.i.i.i.i.i.i.i.i.i.i.i.i.i.i.i.i.i.i.i.i.i.i.i.i.i.i.*., , , , , , , , , , , 1       ; ",
"1       ; ; ; ; ; ; ; ; ; ; ; N $.i.i.i.i.i.i.i.i.i.i.i.i.i.i.i.i.i.i.i.i.i.i.i.i.i.i.i.i.i.i.&.s y y < , , , , , , , , , , , , 1 ",
"9 9 9 9   ; ;       ; ; ; ; ; ; ` i.i.i.i.i.i.i.i.i.i.i.i.i.i.i.i.i.i.i.i.i.i.i.i.i.i.i.i.i.i.} z z z u < , , , , , , , , , , , 9 ",
"  ; ; ; ; ;   9 , , 1 ; ; ; ; ; V @.i.i.i.i.i.i.i.i.i.i.i.i.i.i.i.i.i.i.i.i.i.i.i.i.i.i.i.i.o.P z z z z u y y < , , , 9 9 9 9 9   ",
"            9 , , , ,   ; ; ;     m +.i.i.i.i.i.i.i.i.i.i.i.i.i.i.i.i.i.i.i.i.i.i.i.i.i.i.O.D z l l l z z z z u < , , 1           ",
", , , , , , , , , , , 1       9 , , s F >.i.i.i.i.i.i.i.i.i.i.i.i.i.i.i.i.i.i.i.i.i.i.*.J S z l t , , d z z z z u < , , , , , , , ",
", , , , , , , , , , , , , , , , , t l z z 0.i.i.i.i.i.i.i.i.i.i.i.i.i.i.i.i.i.i.i.i.:., , , d t , , , , d l l l l t , , , , , , , ",
", , , , , , , , , , , , , , , , 9 p h h h h h y.y.i.i.i.i.i.i.i.i.i.i.i.i.i.i.y.y.9 , , , , , , , , , , , , , , , , , , , , , , , ",
", , , , , , , , , , , , , , , 9   ; ; ;     ; ; C 1.1.r.i.i.i.i.i.i.i.i.q.8.8.B ; ; 6 9 9 9 9 , , , , , , , , , , , , , , , , , , ",
"9 , , , , , , , , , , , 9 9 9   ; ;     9 , 1 ; ; ; ; ' #.#.#.#.#.#.#.#.` ; ; ; ; ; ; ; ; ; ; 6 9 9 9 9 9 9 9 9 , , , , , , , , , ",
"  9 , , , , , , , , , , 1           9 , , , , 1     ; ; ; ; ; ; ; ; ; ; ; ; ; ; ; ; ; ; ; ; ; ; ; ; ; ;         9 , , , , , , , , ",
", , , , , , , , , , , , , , , , , , , , , , , , , , 1 ; ; ;         ; ; ; ; ; ; ; ; ; ; ; ;             9 , , , , , , , , , , , , ",
", , 7 0 0 0 0 > , , , 7 0 0 0 0 > , , , , , t y y < ,   ;   9 , , , 1 ;       ; ;           9 , , , , , , , , , , , , , , , , , , ",
"0 0 . @ @ @ @ 3 > , 7 . @ @ @ @ 3 > , , , t l z z u <   ; 9 , , , , , 1 9 , , 1   9 , , , , , , , , , , , , , , , , , , , , , , 7 ",
"@ @ % & & $ @ @ 3 0 . @ % & & & $ 3 > , t l z z z z u 5 ; 6 , , , , , , , , , , , , , t y y y y < , , , , , , , , , , , , , , 7 . ",
"X o g z z x & $ @ @ @ % g z z z x & 4 > l z z z z z z z n 2 9 , , , , , , , t y y y y l z z z z y , , , , 7 0 0 0 0 > , 7 0 0 . @ ",
"t l z z z z z x & $ % g z z z z z z x e l z z z z z z z z y , , , , , t y y l z z z z z z z z l t , , , 7 . @ @ @ @ 3 0 . @ @ @ @ ",
"t l z z z z z z z x g z z z z z z z z z z z z z z z z z z u y < , , , l z z z z z z z z z l l t 7 0 > 7 . @ % & $ @ @ @ @ % & $ @ ",
"d z z z z z z z z z z z z z z z z z z z z z z z z z z z z z z y , , , d l l l l l l l l l t , 7 . @ 3 . @ % g z x $ @ @ % g z x & ",
", d z z l l l z z z z z z z l l l l z z z z z j h z z z z z z u y y < , , , , , , , , , , , , X @ % & $ @ a z z z x & & g z z z z ",
", , d z y , , p z z z z z l t , , , d z z z j c ; i z z z z z z z z u < , , , , , , , t y q 0 . % g z x & g z z z z z z z z z z z "
};
