/* XPM */
static const char *gold2[] = {
/* columns rows colors chars-per-pixel */
"65 65 200 2 ",
"   c #161C2E",
".  c #1A1E2F",
"X  c #1C222F",
"o  c #1D2432",
"O  c #1F2A33",
"+  c #22282F",
"@  c #242732",
"#  c #232C32",
"$  c #2C2E33",
"%  c #302C35",
"&  c #2C3432",
"*  c #2A3738",
"=  c #303631",
"-  c #3D3936",
";  c #423D36",
":  c #493C3C",
">  c #364335",
",  c #3B4333",
"<  c #3B473A",
"1  c #404E37",
"2  c #404439",
"3  c #484938",
"4  c #554C3B",
"5  c #495437",
"6  c #575E34",
"7  c #54573E",
"8  c #595A3F",
"9  c #4F603B",
"0  c #51603B",
"q  c #596B3E",
"w  c #656B36",
"e  c #69763B",
"r  c #727837",
"t  c #333845",
"y  c #374644",
"u  c #3E4351",
"i  c #574540",
"p  c #415944",
"a  c #644D44",
"s  c #6C5246",
"d  c #735648",
"f  c #55724B",
"g  c #567750",
"h  c #5C7D52",
"j  c #646542",
"k  c #726041",
"l  c #7D6943",
"z  c #617540",
"x  c #667A41",
"c  c #697E42",
"v  c #505462",
"b  c #506F60",
"n  c #686C78",
"m  c #826947",
"M  c #86624D",
"N  c #8C7446",
"B  c #9B774E",
"V  c #986D52",
"C  c #A77855",
"Z  c #AC7A58",
"A  c #B07F57",
"S  c #7D8438",
"D  c #5F8051",
"F  c #6E8443",
"G  c #738845",
"H  c #7A9346",
"J  c #628554",
"K  c #6F985C",
"L  c #719E5F",
"P  c #7CA15D",
"I  c #7FAB5F",
"U  c #6E976F",
"Y  c #73986E",
"T  c #7F9E6A",
"R  c #679175",
"E  c #6A9373",
"W  c #749771",
"Q  c #779870",
"!  c #75A366",
"~  c #78A763",
"^  c #79A863",
"/  c #72A069",
"(  c #828939",
")  c #8C933A",
"_  c #949A3B",
"`  c #9DA43C",
"'  c #A7AD3D",
"]  c #B4BB3E",
"[  c #BCC33F",
"{  c #C1C83F",
"}  c #898848",
"|  c #8B894D",
" . c #809544",
".. c #829A47",
"X. c #839D4B",
"o. c #96944A",
"O. c #979550",
"+. c #9D9D51",
"@. c #A5864B",
"#. c #B6934F",
"$. c #BA964F",
"%. c #B38357",
"&. c #B48855",
"*. c #BC9354",
"=. c #86A24D",
"-. c #8AA54A",
";. c #92AB4A",
":. c #98AF4C",
">. c #99B74F",
",. c #9BB94E",
"<. c #84AD5B",
"1. c #89AB5B",
"2. c #9CA253",
"3. c #8FB355",
"4. c #87B15F",
"5. c #8CB45D",
"6. c #94B452",
"7. c #9BB554",
"8. c #94B856",
"9. c #9EBB52",
"0. c #94BA5B",
"q. c #9CBE5A",
"w. c #BCAA49",
"e. c #A0B94F",
"r. c #A9BC4A",
"t. c #A7A654",
"y. c #A7AC58",
"u. c #A2B950",
"i. c #A7B35D",
"p. c #ADB55B",
"a. c #AABD5D",
"s. c #B2B956",
"d. c #B6B758",
"f. c #B2B55D",
"g. c #BDBA5A",
"h. c #849E6C",
"j. c #84AA61",
"k. c #87A669",
"l. c #90AE60",
"z. c #C69C54",
"x. c #CAB54E",
"c. c #D6BB4F",
"v. c #C0A051",
"b. c #CEA554",
"n. c #CFA953",
"m. c #D0AC52",
"M. c #D4B650",
"N. c #A6C04C",
"B. c #ABC54B",
"V. c #B5C54E",
"C. c #B4CA4B",
"Z. c #BBCE4A",
"A. c #BCD14A",
"S. c #A4C356",
"D. c #A9C755",
"F. c #AAC854",
"G. c #B3CD52",
"H. c #B7CA57",
"J. c #B9D151",
"K. c #D7C64C",
"L. c #CED441",
"P. c #C1D54A",
"I. c #C6D94A",
"U. c #CED948",
"Y. c #CBDD4B",
"T. c #D2DF45",
"R. c #D5D44C",
"E. c #DCD349",
"W. c #D5DA4D",
"Q. c #DADF4B",
"!. c #C7C654",
"~. c #CBCB53",
"^. c #C7D451",
"/. c #E3DF47",
"(. c #E0D849",
"). c #D5E246",
"_. c #DBE545",
"`. c #DEE945",
"'. c #D4E249",
"]. c #D9E648",
"[. c #E3E446",
"{. c #E4EB44",
"}. c #E4EB46",
"|. c #E9F044",
" X c #EEF372",
".X c #848790",
"XX c #999BA3",
"oX c #9FA1A9",
"OX c #B6B8BD",
"+X c #F0F583",
"@X c #F2F695",
"#X c #C1C4B0",
"$X c #F5F8AD",
"%X c #D3D4D7",
"&X c #F0E9CB",
"*X c #F6F7CF",
"=X c #F9FCD6",
"-X c #FCFDEA",
";X c #F1F1F2",
":X c #FFFFFF",
/* pixels */
"g.g.g.g.g.f.f.f.f.g.g.g.g.d.e.,.,.,.s.g.g.g.f.j.^ i.g.g.g.g.g.g.g.g.u.,.,.,.,.,.,.,.,.e.u.6.6.E W f.g.h.Q f.g.g.g.g.g.g.g.g.g.g.g.",
"d.g.g.g.f.j.^ ^ ^ i.d.d.g.u.,.,.,.,.,.s.f.f.j.^ ^ ^ f.g.g.g.g.g.d.d.d.e.,.,.,.,.,.e.u.d.x.h.Q Q f.g.g.g.g.d.d.d.g.g.g.x.g.d.d.d.d.",
"6.p.f.f.j.^ ^ ^ ^ ^ 6.,.s.e.,.,.,.6.6.6.I ^ ^ ^ ^ ^ p.d.d.d.d.d.e.,.,.,.,.,.,.e.u.d.g.g.g.g.g.g.g.g.g.g.d.e.,.,.s.g.x.g.d.e.,.6.6.",
"^ ^ ^ ^ ^ ^ ^ ^ ^ I 6.,.,.,.,.,.6.I ^ ^ ^ ^ ^ ^ ^ ^ 3.,.,.,.,.,.,.,.,.,.,.,.e.d.g.d.d.d.g.g.g.g.g.g.d.d.e.,.,.,.,.d.g.g.u.,.6.^ ^ ",
"^ ^ ^ ^ ^ ^ ^ ^ ^ 3.6.6.6.,.,.6.I ^ ^ ^ ^ I I ^ ^ ^ ^ 3.,.,.,.,.,.,.,.,.e.u.d.g.d.e.,.,.s.g.g.g.d.d.e.,.,.,.,.,.,.s.d.g.u.,.<.^ ^ ",
"^ ^ ^ ^ ^ ^ ^ ^ ^ ^ ^ ^ ^ 3.6.I ^ ^ ^ ^ I 6.,.<.I ^ ^ ^ 3.6.,.,.,.,.,.,.s.d.d.d.e.,.,.,.,.s.d.d.e.,.,.,.,.,.,.,.,.,.,.s.7.6.I ^ ^ ",
"I I I ^ ^ ^ ^ ^ ^ ^ ^ ^ ^ ^ ^ ^ ^ ^ ^ ^ 6.,.,.,.,.<.I I I I 6.,.,.,.,.,.,.,.,.,.,.,.,.,.,.,.,.,.,.,.,.,.,.,.6.6.6.6.6.6.I ^ ^ ^ I ",
"6.,.,.<.^ ^ I I I ^ ^ ^ ^ ^ ^ ^ I I ^ ^ 6.,.,.,.,.,.,.,.B.B.B.B.B.B.B.B.B.B.r.6.6.,.,.,.,.,.,.,.,.,.,.,.,.,.<.I I ^ ^ ^ ^ ^ ^ I 6.",
",.,.,.,.I I 6.,.,.<.I ^ ^ ^ ^ I 6.,.<.^ 3.,.,.,.,.C.C.Z.|.|.|.|.|.|.|.|.|.|.'.q.q.8.,.,.,.,.,.,.,.,.,.,.9.9.,.,.,.<.I I ^ ^ ^ 6.,.",
",.,.,.,.<.6.,.,.,.,.,.<.I I I 6.,.,.,.<.I 6.B.A.A.{.|.|.|.|.|.|.|.|.|.|.|.|.|.|.|.A.Z.A.,.,.,.,.,.,.,.,.,.,.u.u.,.,.,.,.<.I I 6.,.",
"u.,.,.,.,.,.,.,.,.,.,.,.,.,.,.,.,.,.,.,.N.P._.|.|.|.|.|.|.|.|.|.|.|.|.|.|.|.|.|.|.|.|.|.P.A.,.,.,.,.,.,.,.e.d.g.u.,.,.,.,.e.u.u.u.",
"g.u.u.,.,.,.,.,.,.,.,.6.6.6.6.,.,.,.,.N.).|.|.|.|.|.|.|._.S.S.S.S.S.S.S.S.G.|.|.|.|.|.|.|.{.A.,.,.,.,.e.u.d.g.g.g.u.u.u.u.d.g.g.g.",
"f.f.f.7.,.,.6.6.6.6.6.I ^ ^ ^ 3.6.,.r._.|.|.|.|.|.|.B.B.8.^ ^ ^ ^ ^ ^ ^ ^ ^ 0.0.I.|.|.|.|.|.{.P.6.6.9.d.x.x.g.g.g.g.g.g.g.g.g.g.f.",
"j.^ ^ ^ 3.6.I ^ ^ ^ ^ ^ ^ ^ ^ ^ ^ `.`.|.|.|.|.C.,.,.6.I ^ ^ ^ ^ ^ ^ ^ ^ ^ ^ ^ ^ j.4.4.`.|.|.|.{._.S.p.d.d.g.g.g.g.g.g.g.g.g.g.f.j.",
"I I I ^ ^ ^ ^ ^ ^ ^ ^ ^ ^ ^ ^ ^ _.|.|.|.|.J.^ ^ ! ! ! ! ~ ^ ^ ^ ^ ^ ^ ^ ^ ^ ^ ^ ^ ^ ^ ^ ^ |.|.|.|.|.C.,.,.s.g.g.g.g.g.g.d.f.f.j.I ",
"6.,.,.<.I I I ^ ^ ^ ^ ^ ^ ^ ^ Y.|.|.|.{.P.^ ^ ! E R R R / ^ I I I I I I I ! ! ! ! ~ ^ ^ I ,.{.|.|.|.|.C.e.u.d.g.g.g.x.d.e.<.I I 6.",
",.,.6.6.6.6.6.I ^ ^ ^ ^ ^ <.Y.|.|.|.'.J.! ! ~ E R R R R R 1.6.6.6.6.>.,.6.U R R R / ! ~ 6.,.B._.{.|.|.|.~.g.g.g.g.g.x.u.,.,.,.,.,.",
",.,.<.I ^ ^ ^ ^ ^ ^ ^ ^ ^ J.|.|.|.I.! E R R / E R R R R R R R R R R 1.6.E W Q Q E R R / 6.,.,.9.~.{.|.|.|.g.g.g.g.g.d.e.,.,.,.,.,.",
",.,.,.,.<.I ^ ^ ^ ^ ^ ^ 5.Y.|.|.|.! E R R R W Q Q Q E R R R W Q Q Q E R W f.g.g.h.E R R 1.7.u.d.d.W.|.|.|.R.g.g.g.g.u.,.,.,.,.,.,.",
",.,.,.,.,.,.<.I I I ^ 5.Y.|.|.|.J.E R R W Q f.g.x.x.h.E R W f.g.g.g.h.Q f.g.g.g.g.h.Q Q Q f.d.d.e.C._.|.|.|.R.g.g.g.u.,.e.u.,.,.,.",
",.,.,.,.,.,.,.,.,.,.5.Y.|.|.|.G.~ E R W f.g.g.g.g.g.g.y y 7 7 7 7 7 7 7 x.g.g.g.g.g.g.g.g.g.u.9.,.,.B._.|.|.{.R.g.g.g.u.d.g.u.,.,.",
"6.,.,.,.,.,.,.,.,.,.9.|.|.|.G.k.Q E W f.g.g.g.g.g.g.2                   2 j x.g.g.g.g.g.g.g.u.u.u.u.,.B.{.|.|.).s.g.g.x.d.d.d.u.,.",
"I 6.,.,.,.,.,.,.,.r.{.|.|.|.~.g.g.h.f.x.g.g.g.g.g.<   $ #.#.#.#.#.#.#.#.  X $ j g.g.g.g.x.g.u.d.g.g.u.,.`.|.|.{.U.s.d.d.e.,.,.s.e.",
",.,.,.,.,.,.,.,.,.N.|.|.|.A.s.g.g.g.x.g.g.g.g.d.<   b.b.b.b.b.b.b.b.b.b.z.M       | g.g.x.g.x.x.g.g.g.u.,.|.|.|.T.,.,.,.,.,.,.,.,.",
",.,.,.,.,.,.,.,.,.B.|.|.|.A.,.s.d.d.d.g.g.g.d.<   #.b.n.c.|.|.|.c.n.b.b.b.b.z.s .   | d.g.g.g.g.g.g.g.u.,.|.|.|.T.u.,.,.,.,.,.,.,.",
"u.u.u.,.,.,.,.,.,.|.|.|.{.C.,.,.9.,.,.s.g.g.0   $ $.M.|.|.|.|.|.|.|.c.M.b.b.z.A a o     +.g.g.g.g.g.g.u.u.[.|.|.|.W.u.u.u.u.u.u.u.",
"d.d.d.e.,.,.,.,.,.|.|.|.I.,.,.,.,.,.,.,.s.t.<   @.c.|.|.|.|.|.|.|.|.|.|.c.b.b.*.Z ;       | d.d.g.x.g.g.g.g.|.|.|.W.d.d.d.d.d.d.d.",
"6.6.,.,.,.,.,.,.A.|.|.|.I.,.,.,.,.,.,.,.,.z   3 w.{.|.|.|.|.|.|.|.|.|.|.[.b.b.*.M %       X F ,.s.d.d.d.d.d.|.|.|.).B.,.6.6.6.6.6.",
"^ ^ 3.,.6.6.6.6.|.|.|._.C.,.e.u.u.,.;.q q <   o.[.|.|.{.x.K.|.|.|.|.|.|.{.K.z.%.i   : a a   > ,.,.,.,.,.,.,.I.|.|.|.A.6.I ^ ^ ^ ^ ",
"^ ^ ^ 3.I ^ ^ ^ |.|.|.T.e.u.d.g.g.5 1         ' |.|.|.v.V 4 ` ` w L.|.|.{.c.z.Z i i V Z Z a @ e ,.,.,.,.,.,.N.|.|.|.F.^ ^ ^ ^ ^ ^ ",
"^ ^ ^ ^ ^ ^ ^ ^ |.|.|.T.d.g.g.j 2     , ] r   ' |.|.=XZ M   & & ( _.|.|.M.z.%.&.C C Z Z Z V   @ z ,.,.,.,.,.N.|.|.|.F.^ ^ ^ ^ ^ ^ ",
"^ ^ ^ ^ ^ ^ ^ ^ |.|.|.Q.g.g.8 X @.#.  5 |.)   ' |.=X:XZ C d     } /.|.= ; b.z.b.b.%.Z Z Z C d   0 ,.,.,.,.6.,.|.|.|.F.I I I I I ^ ",
"<.^ ^ ^ ^ ^ ^ ^ |.|.|.I.i.f.3   #.b.  v :XXX  ' =X:X:X:X:XOX  l b.b.$     5 |.|.K.b.b.A Z Z M   9 ,.,.6.6.I 4.|.|.|.F.6.,.,.,.,.<.",
",.I ^ I 6.,.,.<.|.|.|.Y.I I 3   L.|.+ v :XoXo ` *X:X:X:X&XB X   N ;   n.+   6 |.|.|.M.%.Z Z M   7 ,.,.<.I I 5.|.|.|.A.,.,.,.,.,.,.",
",.<.I 6.,.9.,.,.|.|.|.T.,.,.1   L.|.L.v ;X%Xn   #X=X=X&X#.b.N @       { L.  6 |.|.|.M.b.Z C d   p 3.6.6.,.,.N.|.|.|.A.,.,.,.,.,.,.",
",.,.,.,.,.,.,.6.|.|.|.Y.6.>.1   L.|.L.u .X  * O ( [.|._ ; m.c.} 6 6 6 6 _   6 |.|.|.M.b.Z V   O f I I I 6.,.N.|.|.|.A.,.,.,.,.,.,.",
"6.6.>.,.,.e.u.T |.|.|.^.R 1.x # L.|.L.    * J <   S )   3 E.|.|.|.K._ )     , ] |.|.M.b.Z V   < 6.,.,.,.,.,.N.|.|.|.C.6.6.>.,.6.6.",
"R R 1.>.e.d.x.x.|.|.|.'.k.R 1.* r |._.w # h ^ g #     + 2.+X|.E.x.&.s   + w   r |.E.m.b.Z i # F ,.,.,.,.,.,.I.|.|.|.q.R R 1.6.U R ",
"Q Q Q 7.d.g.g.g.~.|.|.|.H.R R b o w |.] y / j.j.D o   =  X-X+XE.#.Z Z d m T.` [ |.c.b.b.Z   > ,.,.,.,.,.,.6.|.|.|.^.k.Q E R R W Q ",
"g.g.g.g.g.g.g.g.g.|.|.|.H.E R W $   5 , y Q f.g.l.#   t =X:X-X+XQ.E.E.Z &.|.|.|.E.m.b.b.Z @ ..,.,.,.6.6.6.U |.|.|.W.g.g.h.Q Q f.g.",
"g.g.g.g.g.g.g.f.f.|.|.|.{.a.E p.t.      3 g.g.g.g.=.  t :X:X:X@X|.|.|.[.[.|.|.E.n.b.b.b.@ # 6.6.9.6.U W Q ].|.|.|.W.g.g.g.g.g.g.g.",
"g.g.g.g.g.g.f.j.^ 4.|.|.|.R.h.f.d.e.,.s.g.g.g.g.g.g.  =  X:X$X|.|.|.|.|.|.|.(.b.b.b.b.$   j.j.j.f.h.Q f.g.|.|.|.Q.g.f.f.f.g.g.g.g.",
"g.f.f.f.f.f.j.^ ^ 4.|.|.|.^.d.d.e.,.,.,.s.d.d.d.d.g.+ & `.|.|.|.|.|.|.|.|.(.b.b.b.z.;   g.g.g.g.d.d.d.d.g.|.|.|.Q.f.j.^ ^ i.f.g.g.",
"f.j.^ ^ ^ ^ ^ ^ ^ <.].|.|.|.B.6.6.,.,.,.,.,.,.,.,.s.d.  2 L.[.{.|.|.|.[.(.b.b.b.$.;   = d.d.d.d.e.,.,.,.`.|.|.{.A.<.I I ^ ^ ^ i.f.",
"^ ^ ^ ^ ^ ^ ^ ^ ^ ^ 0.|.|.|.G.j.^ 3.6.6.,.,.,.6.6.6.6.<   - @.K.(.(.(.b.b.b.b.#.3   > ;.,.,.,.,.,.,.,.B.{.|.|.).,.,.,.,.<.I I I ^ ",
"<.I I I ^ ^ ^ ^ ^ ^ 5.I.|.|.|.J.^ ^ ^ ^ 3.6.6.I ^ ^ ^ L <   ; l #.b.b.b.b.$.l 4 > 0 -.,.,.,.,.e.u.u.C.`.|.|.{.A.,.,.,.,.,.,.,.,.<.",
"6.6.6.6.I ^ ^ I I I ^ 5.Y.|.|.|.J.^ ^ ^ ^ ^ ^ ^ ^ j.j.j.K 1     4 k k k k 4     z ,.,.,.,.,.e.d.g.~.[.|.|.|.A.,.,.,.,.,.,.,.,.,.6.",
"I ^ ^ ^ ^ ^ I 6.,.,.<.^ 5.Y.|.|.|.^ I I I I I I j.f.g.g.l.=.c c =         & c c X.,.e.u.u.u.d.g.g.W.|.|.|.Z.u.,.,.,.,.6.6.6.6.6.I ",
"I I I I I I 6.,.,.,.,.I ^ J.|.|.|.Y.6.,.e.u.,.,.d.g.g.g.g.u.,.,...H H H H ..,.,.,.,.s.d.g.g.g.g.~.{.|.|.|.g.g.u.,.,.,.<.I <.I I I ",
",.,.,.,.,.,.,.,.,.,.,.<.I <.Y.|.|.|.`.T.d.g.u.u.d.g.g.g.g.g.u.,.,.,.,.,.,.,.,.,.,.,.,.,.s.d.!.{.{.|.|.|.!.g.g.g.u.,.,.,.,.,.,.,.,.",
",.,.,.,.,.,.,.,.,.,.,.,.,.,.,.).|.|.|.|.Q.g.g.g.x.f.f.f.g.g.u.u.u.u.,.,.,.,.,.,.,.,.,.,.,.N.|.|.|.|.|.B.s.d.d.d.d.e.,.,.,.,.,.,.,.",
",.,.,.,.,.,.,.,.,.,.,.,.,.,.,.,._.|.|.|.|.W.d.f.f.j.^ ^ i.g.g.g.g.g.u.u.u.u.u.6.6.6.,.,.,.|.|.|.|.{.C.,.,.,.,.,.,.,.,.,.,.,.,.,.,.",
",.,.,.,.,.,.,.,.,.,.,.,.,.,.,.6.I '.).|.|.|.|.D.5.5.^ ^ ^ i.f.f.f.f.f.y.y.y.y.P <.5.9.{.|.|.|.{._.C.,.,.,.,.,.,.,.,.,.,.,.,.,.,.,.",
"6.,.,.,.,.,.,.,.,.,.,.,.6.6.6.I ^ ^ 4.T.|.|.|.|.|.|.q.q.0.^ ^ ^ ^ L K h h J =.=.Z.|.|.|.|.|.`.A.6.6.6.6.6.6.6.6.,.,.,.,.,.,.,.,.,.",
"I 6.,.,.,.,.,.,.,.,.,.,.<.I I I I I 6.N.T.|.|.|.|.|.|.|.].F.F.F.F.>.:.:.:.r.|.|.|.|.|.|.|.{.D.^ ^ ^ ^ ^ I I I I 6.,.,.,.,.,.,.,.,.",
",.,.,.,.,.,.,.,.,.,.,.,.,.,.,.,.,.,.,.,.N.P._.|.|.|.|.|.|.|.|.|.|.|.|.|.|.|.|.|.|.|.|.|.e.>.I I I I I I 6.,.,.,.,.,.,.,.,.,.,.,.,.",
",.,.6.6.6.6.6.>.,.,.,.6.6.6.6.6.>.,.,.,.,.,.B.Z.Z.{.|.|.|.|.|.|.|.|.|.|.|.|.|.|.|.r.;.;.h D X.,.,.,.,.,.,.,.,.,.,.,.,.,.,.,.,.,.,.",
"6.6.E R R E E 1.>.,.6.U R R R R 1.7.,.,.,.e.d.g.g.V.B.S.|.|.|.|.|.|.|.|.|.|.U.X.X.G G G G G H ,.,.,.,.,.,.,.,.,.,.,.,.,.,.,.,.,.6.",
"R R W Q Q E E E 1.6.U R W W Q Q E 1.9.,.e.d.g.g.g.g.u.1.5.9.;. . . . . . . .H G G G G G G G  .u.,.,.,.,.,.,.,.,.,.,.,.,.,.,.,.6.U ",
"Y Y f.g.g.h.Q E R R R W f.g.g.g.h.Q 1.9.d.g.g.g.g.g.g.g.l.<.=.G G G G G G G G G G G G | | | O.g.u.,.,.,.,.6.6.6.6.6.>.,.6.6.6.U R ",
"e.d.g.g.g.g.g.h.Q E W f.g.g.g.g.g.g.h.7.d.g.g.g.x.g.g.g.g.u.-.G G G G G G G | | | | | | | | O.d.e.,.,.,.6.U R R R R 1.6.U R R R R ",
"e.d.g.g.g.g.g.g.g.h.f.g.g.g.g.g.g.x.g.g.g.g.g.g.g.g.g.g.g.u.u.-.H H H O.O.O.O.O.O.O.O.O.O.O.+.e.6.6.>.6.U R W Q E R R R R W Q E R ",
"s.g.g.g.g.g.g.g.g.g.g.g.g.g.g.g.x.x.g.g.g.g.x.g.g.g.g.g.g.g.g.u.,.,.,.s.d.d.d.d.d.d.d.d.d.e.,.6.U R 1.U R W f.g.h.E R R W f.g.h.Q ",
",.s.g.g.d.d.d.g.g.g.x.x.g.g.d.d.d.d.g.g.g.g.x.f.f.g.g.g.g.g.g.u.u.u.,.,.,.,.,.,.,.,.,.,.,.,.,.Y R W Q E R p.g.g.g.h.Q Q f.g.g.g.g.",
",.,.s.g.u.,.,.p.g.g.g.g.g.d.e.,.,.,.s.g.g.g.f.j.^ i.g.g.g.g.g.g.g.g.u.,.,.,.,.,.,.,.,.e.u.6.6.U W f.g.h.Q f.g.g.g.g.g.g.g.g.g.g.g."
};
