/* XPM */
static const char *gold5[] = {
/* columns rows colors chars-per-pixel */
"65 65 190 2 ",
"   c #161C2E",
".  c #191E2E",
"X  c #1C222E",
"o  c #1C2430",
"O  c #1E2832",
"+  c #242A2F",
"@  c #212431",
"#  c #222C34",
"$  c #2A2E32",
"%  c #23293A",
"&  c #322D35",
"*  c #2B3534",
"=  c #2B3735",
"-  c #383535",
";  c #353A36",
":  c #3D3936",
">  c #423D37",
",  c #4C3E3D",
"<  c #394436",
"1  c #394636",
"2  c #424D36",
"3  c #404439",
"4  c #48483A",
"5  c #55473D",
"6  c #455339",
"7  c #4B553B",
"8  c #4C5C3B",
"9  c #55573E",
"0  c #575A38",
"q  c #63553E",
"w  c #4F603B",
"e  c #566138",
"r  c #5B6D3E",
"t  c #5F713F",
"y  c #606636",
"u  c #656B36",
"i  c #6E7437",
"p  c #737937",
"a  c #3A4A42",
"s  c #3E4352",
"d  c #435A43",
"f  c #614B43",
"g  c #6C5941",
"h  c #725648",
"j  c #4B6548",
"k  c #51714E",
"l  c #567750",
"z  c #5B7D52",
"x  c #626A41",
"c  c #6C6D45",
"v  c #726041",
"b  c #7B6843",
"n  c #637C47",
"m  c #6A7A4C",
"M  c #595E60",
"N  c #5C616D",
"B  c #815F4C",
"V  c #86664B",
"C  c #857243",
"Z  c #927A47",
"A  c #8F6850",
"S  c #996E53",
"D  c #A27455",
"F  c #AF7D57",
"G  c #AC7A58",
"H  c #7B8238",
"J  c #6D8445",
"K  c #728844",
"L  c #798847",
"P  c #77854A",
"I  c #7D9247",
"U  c #7C984E",
"Y  c #638A57",
"T  c #6B935A",
"R  c #719D5F",
"E  c #78A15C",
"W  c #7FAB5F",
"Q  c #6E976F",
"!  c #73986E",
"~  c #7D9D6C",
"^  c #679175",
"/  c #6A9373",
"(  c #749771",
")  c #779870",
"_  c #75A366",
"`  c #78A763",
"'  c #79A863",
"]  c #72A069",
"[  c #8D943A",
"{  c #96993C",
"}  c #9CA33C",
"|  c #A2A93C",
" . c #ABB13D",
".. c #B4BB3E",
"X. c #B5BA3F",
"o. c #BEC43F",
"O. c #C1C83F",
"+. c #8F8441",
"@. c #81864E",
"#. c #85884B",
"$. c #8A884D",
"%. c #89984A",
"&. c #94924F",
"*. c #9A9951",
"=. c #A1834A",
"-. c #A7884B",
";. c #AB8B4C",
":. c #AA9A47",
">. c #B6934F",
",. c #B18257",
"<. c #BA8C56",
"1. c #A19E53",
"2. c #B89253",
"3. c #BB9551",
"4. c #88A24B",
"5. c #8FAC4A",
"6. c #93AE4B",
"7. c #95B34D",
"8. c #99B74F",
"9. c #9BB94E",
"0. c #84AD5B",
"q. c #89AB5B",
"w. c #8FB355",
"e. c #94B452",
"r. c #9BB554",
"t. c #9FB850",
"y. c #A0B94F",
"u. c #B8B641",
"i. c #A7AB53",
"p. c #ADB354",
"a. c #A2B950",
"s. c #A7B35D",
"d. c #ACB45A",
"f. c #B2B956",
"g. c #B2B55D",
"h. c #B8B759",
"j. c #BDBA5A",
"k. c #849E6C",
"l. c #B68A6D",
"z. c #84AA61",
"x. c #90AE60",
"c. c #C29655",
"v. c #C59B54",
"b. c #C9B84B",
"n. c #D6BC4F",
"m. c #C2A550",
"M. c #CEA554",
"N. c #CFA953",
"B. c #D0AC52",
"V. c #D4B550",
"C. c #C7CC45",
"Z. c #D9C44D",
"A. c #DCCC4B",
"S. c #CDD441",
"D. c #D1D841",
"F. c #DDDA46",
"G. c #DDD34A",
"H. c #E0D749",
"J. c #E2DC48",
"K. c #DBE242",
"L. c #E3E246",
"P. c #E6EB45",
"I. c #E8EE44",
"U. c #E9F044",
"Y. c #EAF04D",
"T. c #EBF155",
"R. c #EBF15C",
"E. c #EDF367",
"W. c #E0E57B",
"Q. c #8A8D96",
"!. c #A5948C",
"~. c #A2A684",
"^. c #AEB0B7",
"/. c #C3A080",
"(. c #F1F587",
"). c #F2F695",
"_. c #EEF2A6",
"`. c #F5F8AD",
"'. c #F6F9B5",
"]. c #DFCDC0",
"[. c #CBCDD0",
"{. c #E4D5CB",
"}. c #F8FACB",
"|. c #F9FBD2",
" X c #FAFCDA",
".X c #E5E5E8",
"XX c #FBFCE0",
"oX c #F3F3F3",
"OX c #FDFEF4",
"+X c white",
/* pixels */
"j.j.j.j.j.g.g.g.g.j.j.j.j.h.y.9.9.9.f.j.j.j.g.z.' s.j.j.j.j.j.j.j.j.a.9.9.9.9.9.9.9.9.y.a.e.e.Q ( g.j.k.) g.j.j.j.j.j.j.j.j.j.j.j.",
"h.j.j.j.g.z.' ' ' s.h.h.j.a.9.9.9.9.9.f.g.g.z.' ' ' g.j.j.j.j.j.h.h.h.y.9.9.9.9.9.y.a.h.j.k.) ) g.j.j.j.j.h.h.h.j.j.j.j.j.h.h.h.h.",
"e.d.g.g.z.' ' ' ' ' e.9.f.y.9.9.9.e.e.e.W ' ' ' ' ' d.h.h.h.h.h.y.9.9.9.9.9.9.y.a.h.j.j.j.j.j.j.j.j.j.j.h.y.9.9.f.j.j.j.h.y.9.e.e.",
"' ' ' ' ' ' ' ' ' W e.9.9.9.9.9.e.W ' ' ' ' ' ' ' ' w.9.9.9.9.9.9.9.9.9.9.9.y.h.j.h.h.h.j.j.j.j.j.j.h.h.y.9.9.9.9.h.j.j.a.9.e.W ' ",
"' ' ' ' ' ' ' ' ' w.e.e.e.9.9.e.W ' ' ' ' W W ' ' ' ' w.9.9.9.9.9.9.9.9.y.a.h.j.h.y.9.9.f.j.j.j.h.h.y.9.9.9.9.9.9.f.h.j.a.9.W ' ' ",
"' ' ' ' ' ' ' ' ' ' ' ' ' w.e.W ' ' ' ' W e.9.0.W ' ' ' w.e.9.9.9.9.9.9.f.h.h.h.y.9.9.9.9.f.h.h.y.9.9.9.9.9.9.9.9.9.9.f.r.e.W ' ' ",
"W W W ' ' ' ' ' ' ' ' ' ' ' ' ' ' ' ' ' e.9.9.9.9.0.W W W W e.9.9.9.9.9.9.9.9.9.9.9.9.9.9.9.9.9.9.9.9.9.9.9.e.e.e.e.e.e.W ' ' ' W ",
"e.9.9.0.' ' W W W ' ' ' ' ' ' ' W W ' ' e.9.9.9.9.9.9.9.9.9.9.9.9.9.9.9.9.9.e.e.e.9.9.9.9.9.9.9.9.9.9.9.9.9.0.W W ' ' ' ' ' ' W e.",
"9.9.9.9.W W e.9.9.0.W ' ' ' ' W e.9.0.' w.9.9.9.9.9.9.9.9.9.9.9.9.9.9.9.9.e.W ' ' w.9.9.9.9.9.9.9.9.9.9.9.9.9.9.9.0.W W ' ' ' e.9.",
"9.9.9.9.0.e.9.9.9.9.9.0.W W W e.9.9.9.0.W e.9.9.9.9.9.9.9.9.e.e.e.9.9.9.e.W ' ' ' ' e.9.9.9.9.9.9.9.9.9.9.9.y.a.9.9.9.9.0.W W e.9.",
"a.9.9.9.9.9.9.9.9.9.9.9.9.9.9.9.9.9.9.9.9.9.9.9.9.9.9.9.9.e.W ' ' w.e.e.W ' ' ' ' ' e.9.9.9.9.9.9.9.9.9.9.y.h.j.a.9.9.9.9.y.a.a.a.",
"j.a.a.9.9.9.9.9.9.9.9.e.e.e.e.9.9.9.9.9.9.9.9.9.9.9.9.9.e.W ' ' ' ' ' ' ' ' ' ' ' ' w.e.e.9.9.9.9.9.9.y.a.h.j.j.j.a.a.a.a.h.j.j.j.",
"g.g.g.r.9.9.e.e.e.e.e.W ' ' ' w.e.9.9.e.e.e.e.9.9.9.9.e.W ' ' ' ' ' ' ' ' ' ' ' ' ' ' ' ' w.e.e.e.e.t.h.j.j.j.j.j.j.j.j.j.j.j.j.g.",
"z.' ' ' w.e.W ' ' ' ' ' ' ' ' ' ' w.e.W ' ' ' w.e.e.e.W ' ' ' ' ' ' ' ' ' ' ' ' ' ' ' ' ' ' ' ' W W d.h.h.j.j.j.j.j.j.j.j.j.j.g.z.",
"W W W ' ' ' ' ' ' ' ' ' ' ' ' ' ' ' ' ' ' ' ' ' _ _ _ _ ` ' ' ' ' ' ' ' ' ' ' ' ' ' ' ' ' W W W e.9.9.9.9.f.j.j.j.j.j.j.h.g.g.z.W ",
"e.9.9.0.W W W ' ' ' ' ' ' ' ' ' ' ' ' ' ' ' ' _ / ^ ^ ^ ] ' W W W W W W W _ _ _ _ ` ' ' W e.9.9.9.9.y.a.a.a.h.j.j.j.b.h.y.0.W W e.",
"9.9.e.e.e.e.e.W ' ' ' ' ' ' ' ' ' ' ' _ _ _ ` / ^ ^ ^ ^ ^ q.e.e.e.e.8.9.e./ ^ ^ ^ ] _ ` e.9.9.9.y.a.h.j.j.j.j.j.j.j.b.a.9.9.9.9.9.",
"9.9.0.W ' ' ' ' ' ' ' ' ' ' ' ' ' ' _ / ^ ^ ] / ^ ^ ^ ^ ^ ^ ^ ^ ^ ^ q.e./ ( ) ) / ^ ^ ] e.9.9.y.h.j.j.j.j.j.j.j.j.j.h.y.9.9.9.9.9.",
"9.9.9.9.0.W ' ' ' ' ' ' ' ' ' ' ' _ / ^ ^ ^ ( ) ) ) / ^ ^ ^ ( ) ) ) / ^ ( g.b.j.k./ ^ ^ q.t.a.h.h.h.h.h.h.j.j.j.j.j.a.9.9.9.9.9.9.",
"9.9.9.9.9.9.0.W W W ' ' ' ' ' ' ' / ^ ^ ( ) g.j.j.j.k./ ^ ( g.j.j.j.k.) g.j.j.j.j.k.) ) ) g.h.h.y.9.9.9.9.f.j.j.j.j.a.9.y.a.9.9.9.",
"9.9.9.9.9.9.9.9.9.9.W ' ' ' ' _ _ / ^ ( g.j.j.j.j.j.j.) ( g.j.j.j.j.j.j.j.j.j.j.j.j.j.j.j.j.a.9.9.9.9.9.9.9.f.h.j.j.j.a.h.j.a.9.9.",
"e.9.9.9.9.9.9.9.9.9.0.z.z.z.z.~ ) / ( g.j.j.j.j.j.j.j.k.g.j.j.j.j.j.j.j.j.j.j.j.j.j.j.j.j.j.a.y.a.a.9.9.9.9.9.9.f.j.j.b.h.h.h.a.9.",
"W e.9.9.9.9.9.9.9.9.y.h.h.h.j.j.j.k.g.j.j.j.j.j.j.j.j.3 3 3 3 3 3 3 3 3 j.j.j.b.j.j.j.j.j.j.a.h.j.j.a.9.9.9.9.9.9.f.h.h.y.9.9.f.y.",
"9.9.9.9.9.9.9.9.9.9.h.h.y.9.f.j.j.j.b.j.j.j.j.h.h.9 ;                   ; ; 7 j.b.j.j.j.j.j.j.j.&.; ; L 9.9.y.a.9.9.9.9.9.9.9.9.9.",
"9.9.9.9.9.9.9.9.9.9.f.y.9.9.9.f.h.h.h.j.j.j.h.y.8 .     K.K.K.K.K.K.K.K.K.    o x j.j.4 @ @ j.1.o     X I y.h.j.a.a.9.9.9.9.9.9.9.",
"a.a.a.9.9.9.9.9.9.9.9.9.9.9.9.9.9.9.9.f.j.j.a.w   X D.U.U.U.U.U.U.U.Y.Y.Y.Y.C.@         % %     X H U.u   *.j.j.j.j.a.a.a.a.a.a.a.",
"h.h.h.y.9.9.9.9.9.9.9.9.9.9.9.9.9.9.9.9.f.h.6.6 * o.U.U.I.O.S.U.U.R. X+X+X+X+X[.a +     .X+Xs   0 P.U.H X   j.j.j.h.h.h.h.h.h.h.h.",
"e.e.9.9.9.9.9.9.9.9.9.9.9.9.9.9.9.9.9.9.9.9.x   { J.J... .  2 ..D.'.+X+X+X+X+X+X`.[ $   ^.+XoX  5 n.J.P.p X &.h.h.y.9.9.e.e.e.e.e.",
"' ' w.9.e.e.e.e.9.9.9.9.9.9.y.a.a.9.9.9.6.n 6 : =.M.Z     @ 5 : y ~..X{.].].{.+X}.E.{ $   +XoXN - -.M.G.U.*   J 9.9.e.e.W ' ' ' ' ",
"' ' ' w.W ' ' ' w.9.9.9.y.a.h.j.j.a.9.r 8     b n.A.*     - M.-.:   !.,.G G l.+X XE.U.+.@ Q.+X[.  : :.L.U.C   o e.e.W ' ' ' ' ' ' ",
"' ' ' ' ' ' ' ' ' r.a.a.h.j.@.9 9 9 7       4 ;.G.U.|     - M.n.u.} b.,.G ].{.+X`.U.U.J.Z   OXW.p   [ U.A.N.C . j ' ' ' ' ' ' ' ' ",
"' ' ' ' ' ' ' ' ' s.g.g.&.3 $       ....=.=.>.M.G.U.U.    X g B.H.U.U.G.G /.(.|.R.U.U.U.B.  M U.F.i C V.N.M.M.  * ' ' W W W W W ' ",
"0.' ' ' W W W ' ' ' ' T $   p O.O.O.U.P.M.M.M.Z.P.U.U.      @ b A.U.U.U.F.F.Y.R.U.U.U.Z.M.  + U.U.[ $ - -.M.M.=.* ' W e.9.9.9.9.0.",
"9.W ' W e.9.9.0.W W o o   i _.OXOXOXOXI.P.G.M.A.U.U.U.  + ..  . @ } U.U.U.U.U.U.U.U.U.V.M.v.  + + X     X @ M.v.* W e.9.9.9.9.9.9.",
"9.0.W e.9.9.9.9.9.    . y Y.'.+X+X+X+XI.P.P.A.G.L.I.U.U.U.U. .X     =.M.P.U.U.U.U.U.I.V.M.M.@     X o o       >.* 9.9.9.9.9.9.9.9.",
"9.9.9.9.9.9.9.e.U   . 0 U.).+X+X+XXX XP.G G m.F.y { P.O.C.U.U.} +   =.M.M.L.U.U.U.P.n.M.M.M.=.  o j W W 6 X     * 9.9.9.9.9.9.9.9.",
"e.e.8.9.9.y.a.~ #   @ V.U.(.|.|.|.T.U.P.2.G G G ,   |   + I.J.S.e   =.M.M.N.J.J.J.n.M.M.M.=.    < 9.9.9.9.6 < < 6 e.e.e.e.8.9.e.e.",
"^ ^ q.8.y.h.j.j.$   q B.J.U.U.U.U.U.U.U.L.m.2.G h @     X { C 5     :.Z.Z.M.M.v.M.M.M.M.c., ,   2 9.9.9.9.9.9.e.Q ^ ^ ^ ^ q.e.Q ^ ",
") ) ) r.h.j.j.j.$   M.M.n.U.U.U.U.U.U.U.U.U.b.G G -               0 S.U.U.A.v.,.<.v.M.c.F G D   2 9.9.9.9.e.e.Q ( ) ) ) / ^ ^ ( ) ",
"j.j.j.j.j.j.j.j.$   M.M.n.U.U.U.U.U.U.U.L.m.2.G G B @           y S.U.U.U.P.M.<.G ,.<.F G G D   2 9.e.e.e.Q ( ) g.j.j.j.k.) ) g.j.",
"j.j.j.j.j.j.j.g.$   M.M.B.G.U.U.U.U.U.U.F.G G G b.G.............D.U.U.U.U.P.M.c.G G G G G G D   2 e.Q ( ) ) g.j.j.j.j.j.j.j.j.j.j.",
"j.j.j.j.j.j.g.z.T   > M.M.B.V.J.U.U.U.U.P.F.F.F.P.U.U.U.U.U.U.U.U.U.U.U.U.P.M.c.G G G G G G D   4 k.) g.j.j.j.j.j.j.g.g.g.j.j.j.j.",
"j.g.g.g.g.g.z.Y z   @ M.M.M.M.M.N.P.U.U.U.U.U.U.U.U.U.U.U.U.U.U.U.U.U.U.U.N.M.c.G G G G G G D   : $.$.i.h.h.j.j.g.g.z.' ' s.g.j.j.",
"g.z.' ' ` Y z z z o   - v.M.M.M.M.M.M.N.P.P.P.I.U.U.U.U.U.U.I.U.U.I.P.B.M.M.v.G G G G G G D     < K K K 5.7.f.h.q.' W W ' ' ' s.g.",
"' ' ' ' T z z z z z #   > -.3.M.M.M.M.M.M.M.M.Z.L.L.L.L.L.L.L.L.L.n.M.M.M.v.c.G G G G S A     $ K K K K K K 9.9.9.9.9.9.0.W W W ' ",
"0.W W W T z z z z z l #     q 2.v.M.M.M.M.M.M.M.M.M.M.M.M.M.M.M.M.M.v.v.v.G G G S V V &     * < L L L K K K 9.9.9.9.9.9.9.9.9.9.0.",
"e.e.e.e.T z z z z z z k ; #   5 h C c.c.M.M.M.M.M.M.M.M.M.M.M.M.v.c.,.G G G D h ,         < L #.$.$.$.L K K 9.9.9.9.9.9.9.9.9.9.e.",
"W ' ' ' R Y z J K K n z z j a a O   f f v v v v v v v v v v v v g f f f f f 5       ; 6 6 L #.$.$.$.$.$.%.4.a.9.9.9.9.e.e.e.e.e.W ",
"W W W W W E 4.L K K K z z z z z j d 8 8                                     @ w w w m #.$.$.$.$.#.#.#.*.h.j.j.a.9.9.9.0.W W W W W ",
"9.9.9.9.9.9.9.6.5.K K n z z z J K K L K c c x r c c c c c c r r r r r r r r t K K K K K #.#.$.#.I 5.5.p.j.j.j.j.a.9.9.9.9.9.9.9.9.",
"9.9.9.9.9.9.9.9.9.6.6.6.6.%.K K K L #.$.$.$.$.$.$.@.@.@.$.$.L L L L K K K K K K K K K K K 6.i.6.7.9.9.9.f.h.h.h.h.y.9.9.9.9.9.9.9.",
"9.9.9.9.9.9.9.9.9.9.9.9.9.8.7.7.7.d.d.d.L @.@.@.@.z z z P $.$.$.$.$.L L L L I 7.7.7.7.7.7.9.9.9.9.9.9.9.9.9.9.9.9.9.9.9.9.9.9.9.9.",
"9.9.9.9.9.9.9.9.9.9.9.9.9.9.9.e.W ' ' ' W W ' ' ' ' ' ' ' s.g.g.g.g.g.g.g.g.g.z.' ' w.e.e.e.e.9.9.9.9.9.9.9.9.9.9.9.9.9.9.9.9.9.9.",
"e.9.9.9.9.9.9.9.9.9.9.9.e.e.e.W ' ' W W e.9.0.' ' ' ' ' ' ' ' ' ' ' ' ' ' ' ' ' ' ' ' ' ' ' ' w.e.e.e.e.e.e.e.e.9.9.9.9.9.9.9.9.9.",
"W e.9.9.9.9.9.9.9.9.9.9.0.W W W W W e.9.9.9.9.0.W W ' ' ' ' ' ' ' ' ' ' ' ' ' ' ' ' ' ' ' ' ' ' ' ' ' ' W W W W e.9.9.9.9.9.9.9.9.",
"9.9.9.9.9.9.9.9.9.9.9.9.9.9.9.9.9.9.9.9.9.9.9.9.9.9.0.' ' ' W W W W ' ' ' ' ' ' ' ' ' ' ' ' W W W W W W e.9.9.9.9.9.9.9.9.9.9.9.9.",
"9.9.e.e.e.e.e.r.9.9.9.e.e.e.e.e.r.9.9.9.9.9.y.a.a.9.9.W ' W e.9.9.9.0.' W W W ' ' W W W W W e.9.9.9.9.9.9.9.9.9.9.9.9.9.9.9.9.9.9.",
"e.e./ ^ ^ ^ ^ q.8.9.e.Q ^ ^ ^ ^ q.r.9.9.9.y.h.j.j.a.9.W ' e.9.9.9.9.9.0.e.9.9.0.W e.9.9.9.9.9.9.9.9.9.9.9.9.9.9.9.9.9.9.9.9.9.9.e.",
"^ ^ ( ) ) / ^ ^ q.e.Q ^ ( ( ) ) / q.8.9.y.h.j.j.j.j.a.q.' w.9.9.9.9.9.9.9.9.9.9.9.9.9.y.a.a.a.a.9.9.9.9.9.9.9.9.9.9.9.9.9.9.9.e.Q ",
"! ! g.j.j.k.) / ^ ^ ^ ( g.j.j.j.k.) q.8.h.j.j.j.b.j.j.j.x.0.e.9.9.9.9.9.9.9.y.a.a.a.a.h.j.j.j.j.a.9.9.9.9.e.e.e.e.e.8.9.e.e.e.Q ^ ",
"y.h.j.j.j.b.j.k.) / ( g.j.j.j.j.j.j.k.r.h.j.j.j.b.j.j.j.j.a.9.9.9.9.9.y.a.a.h.j.j.j.j.j.j.j.j.h.y.9.9.9.e.Q ^ ^ ^ ^ q.e.Q ^ ^ ^ ^ ",
"y.h.j.j.j.j.j.j.j.k.g.j.j.j.j.j.j.j.j.j.j.j.j.j.b.b.j.j.j.a.a.9.9.9.9.h.j.j.j.j.j.j.j.j.j.h.h.y.e.e.8.e.Q ^ ( ) / ^ ^ ^ ^ ( ) / ^ ",
"f.j.j.j.j.j.j.j.j.j.j.b.j.j.j.j.j.j.j.j.j.b.j.j.j.j.j.j.j.j.j.a.9.9.9.f.h.h.h.h.h.h.h.h.h.y.9.e.Q ^ q.Q ^ ( g.j.k./ ^ ^ ( g.j.k.) ",
"9.f.j.j.h.h.h.j.j.j.j.j.j.j.h.h.h.h.j.j.b.b.j.g.d.j.j.j.j.j.j.a.a.a.9.9.9.9.9.9.9.9.9.9.9.9.9.! ^ ( ) / ^ d.j.j.j.k.) ) g.j.j.j.j.",
"9.9.f.j.a.9.9.d.j.j.j.j.j.h.y.9.9.9.f.j.j.j.g.z.' s.j.j.j.j.j.j.j.j.a.9.9.9.9.9.9.9.9.y.a.e.e.Q ( g.j.k.) g.j.j.j.j.j.j.j.j.j.j.j."
};
