/* XPM */
static const char *gold3[] = {
/* columns rows colors chars-per-pixel */
"65 65 199 2 ",
"   c #161C2E",
".  c #1A1E2E",
"X  c #1C212F",
"o  c #1E2531",
"O  c #1F2A33",
"+  c #21272F",
"@  c #23292F",
"#  c #212531",
"$  c #242D32",
"%  c #262937",
"&  c #2C2D32",
"*  c #312D35",
"=  c #2A3333",
"-  c #2E3A34",
";  c #293639",
":  c #323433",
">  c #353B32",
",  c #393A33",
"<  c #43393A",
"1  c #4C3E3D",
"2  c #384335",
"3  c #4E4539",
"4  c #444B38",
"5  c #544C3B",
"6  c #594C3D",
"7  c #4A5435",
"8  c #575E34",
"9  c #52563E",
"0  c #6A5A3F",
"q  c #59663A",
"w  c #5E713F",
"e  c #656B36",
"r  c #757C38",
"t  c #333848",
"y  c #3C5144",
"u  c #5A4641",
"i  c #425A44",
"p  c #48545A",
"a  c #624C43",
"s  c #6A5045",
"d  c #795C47",
"f  c #4A654F",
"g  c #59794F",
"h  c #5B7D52",
"j  c #666643",
"k  c #746141",
"l  c #7B6643",
"z  c #627B47",
"x  c #6E7A50",
"c  c #505462",
"v  c #586B69",
"b  c #836749",
"n  c #837443",
"m  c #977C48",
"M  c #8F6850",
"N  c #976D52",
"B  c #996E52",
"V  c #A47556",
"C  c #A87757",
"Z  c #AE7D57",
"A  c #AC7A58",
"S  c #B07F57",
"D  c #7F8639",
"F  c #5D8154",
"G  c #6D8445",
"H  c #698349",
"J  c #728844",
"K  c #778945",
"L  c #769148",
"P  c #628454",
"I  c #678B56",
"U  c #748550",
"Y  c #6B945B",
"T  c #729E5E",
"R  c #78A25C",
"E  c #7FAB5F",
"W  c #658768",
"Q  c #6E976F",
"!  c #77986C",
"~  c #618970",
"^  c #679175",
"/  c #6A9274",
"(  c #749771",
")  c #779870",
"_  c #75A364",
"`  c #78A763",
"'  c #79A863",
"]  c #72A069",
"[  c #8E953A",
"{  c #99A03B",
"}  c #A9AF3D",
"|  c #B5BC3E",
" . c #C1C83F",
".. c #85874A",
"X. c #86884C",
"o. c #8A884D",
"O. c #938C4C",
"+. c #8E914A",
"@. c #849C48",
"#. c #949349",
"$. c #9A944B",
"%. c #898D51",
"&. c #9A9850",
"*. c #A4864B",
"=. c #A1944E",
"-. c #AC994E",
";. c #B1994F",
":. c #A98350",
">. c #B38456",
",. c #BA8C56",
"<. c #AC9750",
"1. c #BF9255",
"2. c #BC9E51",
"3. c #8AA64B",
"4. c #8CAA4D",
"5. c #90A04C",
"6. c #92AD4B",
"7. c #96B44D",
"8. c #9BB94E",
"9. c #84AD5B",
"0. c #89AB5B",
"q. c #9BA65C",
"w. c #90AA5C",
"e. c #9CA95B",
"r. c #8FB355",
"t. c #94B452",
"y. c #9BB553",
"u. c #9FB850",
"i. c #BEA84A",
"p. c #A3B54E",
"a. c #ABB24F",
"s. c #A0B94F",
"d. c #B5BB47",
"f. c #ABAC54",
"g. c #A5A958",
"h. c #A5A85A",
"j. c #B3AE54",
"k. c #BBAC51",
"l. c #B7A558",
"z. c #ACB351",
"x. c #A2B950",
"c. c #A7B35D",
"v. c #ADB65A",
"b. c #B1B050",
"n. c #BDB356",
"m. c #B2B956",
"M. c #B2B55C",
"N. c #B9B859",
"B. c #BDBA5A",
"V. c #849E6C",
"C. c #84AA61",
"Z. c #AFB363",
"A. c #C19455",
"S. c #C39D51",
"D. c #CEBC4C",
"F. c #D6BD4F",
"G. c #C5A653",
"H. c #CEA554",
"J. c #C4AB54",
"K. c #CBAA55",
"L. c #C1A258",
"P. c #D0AC52",
"I. c #C3B057",
"U. c #C1B559",
"Y. c #D4B650",
"T. c #C4CB40",
"R. c #D1C24B",
"E. c #D8C14E",
"W. c #D6CD49",
"Q. c #DCCC4B",
"!. c #CED541",
"~. c #D7DB43",
"^. c #DDD34A",
"/. c #E1DC48",
"(. c #DCE342",
"). c #E4E446",
"_. c #E6EA45",
"`. c #E8EE44",
"'. c #E9F044",
"]. c #E9F04A",
"[. c #DDE27C",
"{. c #8E919A",
"}. c #B2B4BA",
"|. c #C5A28A",
" X c #EBEC8D",
".X c #F1F587",
"XX c #F2F694",
"oX c #F3F79B",
"OX c #DAC4B5",
"+X c #F4F7A7",
"@X c #F5F8B2",
"#X c #CED0CB",
"$X c #D6D8DB",
"%X c #E1DDDB",
"&X c #EFE6DF",
"*X c #F9FBD4",
"=X c #FCFDE9",
"-X c #FDFEF4",
";X c #FFFEFE",
/* pixels */
"B.B.B.B.B.M.M.M.M.B.B.B.B.N.s.8.8.8.m.B.B.B.M.C.' c.B.B.B.B.B.B.B.B.x.8.8.8.8.8.8.8.8.s.x.t.t.Q ( M.B.V.) M.B.B.B.B.B.B.B.B.B.B.B.",
"N.B.B.B.M.C.' ' ' c.N.N.B.x.8.8.8.8.8.m.M.M.C.' ' ' M.B.B.B.B.B.N.N.N.s.8.8.8.8.8.s.x.N.B.V.) ) M.B.B.B.B.N.N.N.B.B.B.B.B.N.N.N.N.",
"t.v.M.M.C.' ' ' ' ' t.8.m.s.8.8.8.t.t.t.E ' ' ' ' ' v.N.N.N.N.N.s.8.8.8.8.8.8.s.x.N.B.B.B.B.B.B.B.B.B.B.N.s.8.8.m.B.B.B.N.s.8.t.t.",
"' ' ' ' ' ' ' ' ' E t.8.8.8.8.8.t.E ' ' ' ' ' ' ' ' r.8.8.8.8.8.8.8.8.8.8.8.s.N.B.N.N.N.B.B.B.B.B.B.N.N.s.8.8.8.8.N.B.B.x.8.t.E ' ",
"' ' ' ' ' ' ' ' ' r.t.t.t.8.8.t.E ' ' ' ' E E ' ' ' ' r.8.8.8.8.8.8.8.8.s.x.N.B.N.s.8.8.m.B.B.B.N.N.s.8.8.8.8.8.8.m.N.B.x.8.E ' ' ",
"' ' ' ' ' ' ' ' ' ' ' ' ' r.t.E ' ' ' ' E t.8.9.E ' ' ' r.t.8.8.8.8.8.8.m.N.N.N.s.8.8.8.8.m.N.N.s.8.8.8.8.8.8.8.8.8.8.m.y.t.E ' ' ",
"E E E ' ' ' ' ' ' ' ' ' ' ' ' ' ' Y f P t.8.8.8.8.9.E w.h.h.j.j.8.8.8.8.8.8.8.8.8.8.8.8.8.8.8.8.8.8.8.8.8.8.t.t.t.t.t.t.E ' ' ' E ",
"t.8.8.9.' ' E E E ' ' ' ' ' ' ' T 2   ; L 8.8.8.k.k.k.J.H.H.H.H.8.8.8.8.8.8.t.t.t.8.8.8.8.8.8.8.8.8.8.8.8.8.9.E E ' ' ' ' ' ' E t.",
"8.8.8.8.E E t.8.8.9.E ' ' ' ' R - < *.6 = @.k.J.H.H.H.k.p.p.p.p.8.8.8.8.8.t.E ' ' r.8.8.8.8.8.8.8.8.8.8.8.8.8.8.8.9.E E ' ' ' t.8.",
"8.8.8.8.9.t.8.8.8.8.8.9.E E E $   3 H.d   $ & & : p.p.8.8.8.t.t.t.8.8.8.t.E ' ' ' ' t.p.k.8.8.8.8.8.8.8.8.8.s.x.8.8.8.8.9.E E t.8.",
"x.8.8.8.8.8.8.8.8.8.8.8.8.8.o @ (.W.H.G.5         2 8.8.8.t.E ' ' r.t.t.E ' ' ' ' ' t.p.k.8.8.8.8.8.8.8.8.s.N.B.x.8.8.8.8.s.x.x.x.",
"B.x.x.8.8.8.8.8.8.8.8.t.t.$   = '.`.^.G.5     @     2 6.4.R T ` ' ' ' ' ' ' ' ' ' ' r.t.t.b.H.b.8.8.8.s.x.N.B.B.B.x.x.x.x.N.B.B.B.",
"M.M.M.y.8.8.t.t.t.t.t.E Y O   '.`.)._.D     > '.              F I ' ' ' ' ' ' ' ' ' ' ' ' f.J.G.f.t.u.N.U.U.U.B.B.B.B.B.B.B.B.B.M.",
"C.' ' ' r.t.E ' ' ' ' ' -   8 '.).H.i.q   p [.}   # 3 3 3 3 3 X   h F ' ' ' ' ' ' ' ' ' ' ' ' q.G.e.v.N.N.B.B.B.B.B.B.B.B.B.B.M.C.",
"E E E ' ' ' ' ' ' ' ' P $ q '.'._.i.5   p $X}.  . d H.H.H.H.H.0     $ g I ' ' ' ' ' ' ' ' E E E f.H.z.8.8.m.B.B.B.B.U.B.N.M.M.C.E ",
"t.8.8.9.E E E ' ' ' ' y   !.'._.D q   c $X;Xt   k P.Q.F.H.H.H.H.k 0     - F _ _ _ ` ' ' E t.8.8.8.b.H.b.x.x.N.B.B.B.U.N.s.9.E E t.",
"8.8.t.t.t.t.t.E ' ' ' y   !.'.e       {.;X{.#   ^./.'.).^.Y.H.H.H.G.k     ; v ^ ^ ] _ ` t.8.8.8.s.x.I.H.J.B.B.B.U.B.U.x.8.8.8.8.8.",
"8.8.9.E ' ' ' ' ' ' q.5   4 7         t c %   | '.'.'.'.'._.Y.H.H.H.S.k     $ W / ^ ^ ] t.8.8.s.N.B.B.I.H.J.B.B.B.B.N.s.8.8.8.8.8.",
"8.8.8.8.9.E ' ' ' ' h.6       Y F           | '.'.'.'.'.'.'._._.H.H.H.S.:.u   $ ! / ^ ^ 0.u.x.N.N.N.N.N.n.H.I.B.B.B.x.8.8.8.8.8.8.",
"8.8.8.8.8.8.9.E E e.h._ T T T ' ` ~ ~ y   } *X-X-X*X'.'.'.'.'.'._._./.H.1.V 1   o o ) ) ) M.N.N.s.8.8.8.8.n.J.B.B.B.x.8.s.x.8.8.8.",
"8.8.8.8.8.8.8.8.8.b.h.' ' ' ' _ _ ^ p     d.=X;X;X;X;X@X].'.'.'.'.'.'./.H.1.A A *   o M.B.B.x.8.8.8.8.8.8.a.H.J.B.B.B.x.N.B.x.8.8.",
"t.8.8.8.8.8.8.8.8.8.9.C.C.C.C.! ) v     = #X;X;X;X-X&X&X X'.'.'.'.'.'.'.Q.A.Z A A *   > B.U.x.s.x.x.8.8.8.8.a.H.n.B.B.B.N.N.N.x.8.",
"E t.8.8.8.8.8.8.8.8.s.N.N.N.B.B.B.h     { *X;X;X;XOXA N O.!.'.'.'.'.'.'.Q.H.1.Z A A   = &.U.x.N.B.B.x.8.8.8.8.j.z.m.N.N.s.8.8.m.s.",
"8.8.8.8.8.8.8.8.8.8.N.N.s.8.m.B.B.o.    { oX-X;X-X|.A s   e { (.'.'.'.'.Q.H.H.1.Z A 1   5 U.U.B.B.B.B.x.8.8.s.k.k.p.8.8.8.8.8.8.8.",
"8.8.8.8.8.8.8.8.8.8.m.s.8.8.8.m.N...  7  .'.XX+X;X%Xa <       r '.'.'.'./.Y.H.H.S A V 3 : O.B.B.B.B.B.x.8.s.N.U.J.z.8.8.8.8.8.8.8.",
"x.x.x.8.8.8.8.8.8.8.8.8.8.8.8.8.8.J   D '.'.'.'. Xv         r { '.'.'.'.'.Q.H.H.S A A M   j B.B.B.B.B.x.x.N.B.B.K.K.z.x.x.x.x.x.x.",
"N.N.N.s.8.8.8.8.8.8.8.8.8.8.8.8.8.J   : 7  .'.'.(.    5 6   | '.'.'.'.'.'.Q.H.H.S A A V a $ x N.B.B.B.B.B.B.B.B.U.K.N.N.N.N.N.N.N.",
"t.t.8.8.8.8.8.8.8.8.8.8.8.8.8.8.8.7.q     | '.'.(.  3 S.S.5 | '.'.'.'.'.'.Q.H.H.S A A A d   q 8.m.N.N.N.N.N.N.N.N.J.p.8.t.t.t.t.t.",
"' ' r.8.t.t.t.t.8.8.8.8.8.8.s.x.x.8.z     | `.'.(.  . 0 H.S.H._.'.'.'.'.'.`.F.H.S A A A d   q 8.8.8.8.8.8.8.8.8.8.J.y.t.E ' ' ' ' ",
"' ' ' r.E H.' ' r.8.8.8.s.x.N.B.B.x.7.q     !.`.~.X               # S.H.H.H.,.A A A A M       z 7.8.8.8.8.8.8.8.t.k.H.' ' ' ' ' ' ",
"' ' ' ' ' H.' ' ' y.x.x.N.B.B.B.B.M.q       !.).H.<., 2 2 @         , H.A.>.Z A A A C d         z 7.8.8.8.8.8.t.E ' G.' ' ' ' ' ' ",
"' ' ' ' ' H.' ' ' c.M.M.B.B.B.B.M.j   > 8 8 ~.F.F.H.F.`.`.e     3 3 & *.H.H.1.>.Z A V < < < &     3.8.8.8.t.t.E ' ' G.E E E E E ' ",
"9.' ' ' E H.E ' ' ' ' ' c.M.B.N.j   > Z..X.X].'.`.E.Q.'.'.{ &   E.b   5 E.E.E.P.,.A A A A A a     w 8.t.t.E ' ' ' ' G.t.8.8.8.8.9.",
"8.E ' E t.H.8.9.E E E E E E v.f.  > Z.*X;X;X@X'.`.R.'.'.'.'.{ D '.    8 '.'.'.Y.H.A A A A A b *     8.9.E E E E E E G.8.8.8.8.8.8.",
"8.9.E t.8.H.8.8.8.8.8.8.8.8.8.6.  8 XX;X;X;X;X'.G.>.G.R.'.'.[ e e     8 '.'.'./.P.A.A A A A A 1     t.t.8.8.8.8.8.8.G.8.8.8.8.8.8.",
"8.8.8.8.8.H.8.t.t.t.t.t.t.7.8.2   8 XX;X;X;X.X'.W.A A >.n 7 @       > T.'.'.'.'.P.H.A A A A A 1     E E t.8.8.8.8.8.G.8.8.8.8.8.8.",
"t.t.7.8.8.H.x.! ) / ^ ^ ^ 0.7.    8 XX;X;X.X'.'.`.).R.A V B B B   + ~.'.'.'.'.'.P.H.A A A A A 1     8.8.8.8.8.8.t.t.G.t.t.7.8.t.t.",
"^ ^ 0.7.s.H.B.B.B.V.) / ^ ^ 0.    8 ].+XXX'.'.'.'.'.W.A A A A ^.(.@ '.'.'.'.'.F.H.H.A A A A a .     8.8.8.8.8.t.Q ^ L.^ ^ 0.t.Q ^ ",
") ) ) y.N.H.H.B.B.B.B.V./ ^ ^     8 `.'.'.'.'.'.'.'.W.Z A Z ^.'.'.'.'.'.'.'.`.Y.H.H.A A A s       3.8.8.8.t.t.Q ( l.H.) / ^ ^ ( ) ",
"B.B.B.B.B.B.H.B.B.B.B.B.V./ ^ ;   3 F._.'.'.'.'.'.'.'.D.A R.'.'.'.'.'.'.'._.F.H.H.S.A A V u     = 4.t.t.t.Q ( ) M.K.U.B.V.) ) M.B.",
"B.B.B.B.B.B.H.M.M.M.B.B.B.V./ h.  3 H.F._.'.'.'.'.'.'.W.2.^.'.'.'.'.'.'._.F.H.H.H.A A V u     - @.t.Q ( ) ) M.B.B.K.U.B.B.B.B.B.B.",
"B.B.B.B.B.B.H.q.' ' c.B.B.B.V.c.4 , *.H.^.'.'.'.'.'.'.'.'.'.'.'.'.'._.^.F.H.H.H.A.A C a   = y I M.V.) M.B.B.B.B.U.K.N.M.M.B.B.B.B.",
"B.M.M.M.M.M.h.l.' ' ' c.M.M.N.N.@.  0 H.F.Q._.'.'.'.'.'.'.'.'.'.'.Q.E.H.H.H.H.A.Z a u   : O.B.B.N.N.N.N.N.N.B.B.J.J.C.' ' c.M.B.B.",
"M.C.' ' ' ' ' G.q.' ' ' ' ' r.t.4.9 : m H.H.F.E.E.Q.'.'.'.'.Q.E.E.H.H.H.H.H.A.Z u     & +.N.N.N.s.8.8.8.8.8.m.N.e.9.' E ' ' ' c.M.",
"' ' ' ' ' ' ' q.l.' ' ' ' ' ' ' ' H   & m H.H.H.H.H.Y.Y.Y.Y.H.H.H.H.H.H.H.A.Z u .   X @.8.8.8.8.8.8.8.8.8.8.8.8.8.8.8.8.9.E E E ' ",
"9.E E E ' ' ' 0.l.' ' ' ' ' ' ' ' _ f   # *.H.H.H.H.H.H.H.H.H.H.H.H.H.H.H.l % .     3.8.8.8.8.s.x.x.x.8.8.8.8.8.8.8.8.8.8.8.8.8.9.",
"t.t.t.t.E ' ' 0.G.h.' ' ' ' ' ' ' ' _ i   X # H.H.H.H.H.H.H.H.H.H.H.H.m # X       6.8.8.8.8.s.N.B.B.B.x.8.8.8.8.8.8.8.8.8.8.8.8.t.",
"E ' ' ' ' ' E t.a.H.h.' ' ' ' ' ' ' E E i o     S.S.S.S.S.S.S.S.V B     X o G 8.8.8.s.x.x.x.N.B.B.B.B.B.x.x.x.8.8.8.8.t.t.t.t.t.E ",
"E E E E E E t.8.8.b.k.9.' ' ' E E E t.8.s.x.2                       - - w 8.8.8.8.8.m.N.B.B.B.B.N.N.N.B.B.B.B.x.8.8.8.9.E E E E E ",
"8.8.8.8.8.8.8.8.8.a.J.f.9.E E t.8.8.s.x.N.B.x.4 4 4         2 4 4 7 8.8.8.8.8.8.8.8.8.8.m.N.B.N.s.8.8.m.B.B.B.B.x.8.8.8.8.8.8.8.8.",
"8.8.8.8.8.8.8.8.8.8.a.G.j.8.8.8.8.s.N.B.B.B.B.B.B.h.9 9 9 9 5.x.x.x.8.8.8.8.8.8.8.8.8.8.8.8.m.s.8.8.8.8.m.N.N.N.N.s.8.8.8.8.8.8.8.",
"8.8.8.8.8.8.8.8.8.8.8.a.G.p.8.8.t.v.M.M.M.M.M.M.M.C.' ' c.B.B.B.B.B.x.x.x.x.x.t.t.t.8.8.8.8.8.8.8.8.8.8.8.8.8.8.8.8.8.8.8.8.8.8.8.",
"8.8.8.8.8.8.8.8.8.8.8.8.a.8.8.t.E ' ' ' E E ' ' ' ' ' ' ' c.M.M.M.M.M.M.M.M.M.C.' ' r.t.t.t.t.8.8.8.8.8.8.8.8.8.8.8.8.8.8.8.8.8.8.",
"t.8.8.8.8.8.8.8.8.8.8.8.t.t.t.E ' ' E E t.8.9.' ' ' ' ' ' ' ' ' ' ' ' ' ' ' ' ' ' ' ' ' ' ' ' r.t.t.t.t.t.t.t.t.8.8.8.8.8.8.8.8.8.",
"E t.8.8.8.8.8.8.8.8.8.8.9.E E E E E t.8.8.8.8.9.E E ' ' ' ' ' P F F F F F F F F _ ' ' ' ' ' ' ' ' ' ' ' E E E E t.8.8.8.8.8.8.8.8.",
"8.8.8.8.8.8.8.8.8.8.8.8.8.8.8.8.p.k.8.8.8.8.8.8.8.8.9.' Y h F h h h h h h h h h h h h P ' q.h.E E E E E t.8.8.8.8.8.8.8.8.8.8.8.8.",
"8.8.t.t.t.t.t.7.8.8.8.t.t.t.t.t.p.k.b.j.8.8.s.x.x.7.3.h h h G J J J z h h h h h h h P P %.G.f.8.8.8.8.8.8.8.8.8.8.8.8.8.8.8.8.8.8.",
"t.t.Q ^ ^ ^ ^ 0.7.8.t.Q ^ ^ ^ ^ 0.7.a.H.H.H.n.U.N.K J h h G J J J J J z G J J z U K H.H.G.$.@.7.8.8.8.8.8.8.8.8.8.8.8.8.8.8.8.8.t.",
"^ ^ ( ) ) / ^ ^ 0.t.Q ^ ( ( ) ) / 0.7.a.k.J.H.H.I.=.#.U h H J J J J J J K +.+.+.G.H.;.;.=.K K @.7.8.8.8.8.8.8.8.8.8.8.8.8.8.8.t.Q ",
"Q ) M.B.B.V.) / ^ ^ ^ ( M.B.B.B.V.) 0.8.N.B.J.K.H.H.H.2.%.%.#.#.#.#.#.#.-.H.H.H.;.-.K X.o.o.o.o.6.8.8.8.8.t.t.t.t.t.7.8.t.t.t.Q ^ ",
"s.N.B.B.B.U.B.V.) / ( M.B.B.B.B.B.B.V.y.N.B.B.B.<.<.<.2.H.H.H.H.H.H.H.H.2.=.<.<.o.o.o.o.o.o.o.X.6.8.8.8.t.Q ^ ^ ^ ^ 0.t.Q ^ ^ ^ ^ ",
"s.N.B.B.B.B.B.B.B.V.M.U.B.B.B.B.B.B.B.B.B.B.B.B.o.o.o.O.=.$.#.#.#.#.#.=.O.o.o.o.o.o.o.o.o.X.X.K 3.t.7.t.Q ^ ( ) / ^ ^ ^ ^ ( ) / ^ ",
"m.B.B.B.B.B.B.B.B.B.U.U.B.B.B.B.B.B.U.U.B.B.B.B.j.j.j.j.j.j.j.6.6.6.6.f.f.f.f.f.f.f.f.f.f.6.6.3.Q ^ 0.Q ^ ( M.B.V./ ^ ^ ( M.B.V.) ",
"8.m.B.B.N.N.N.B.B.B.U.U.B.B.N.N.N.N.B.U.U.B.B.M.M.B.B.B.B.B.B.x.x.x.8.8.8.8.8.8.8.8.8.8.8.8.8.Q ^ ( ) / ^ v.B.B.B.V.) ) M.B.B.B.B.",
"8.8.m.B.x.8.8.v.B.B.B.B.B.N.s.8.8.8.m.B.B.B.M.C.' c.B.B.B.B.B.B.B.B.x.8.8.8.8.8.8.8.8.s.x.t.t.Q ( M.B.V.) M.B.B.B.B.B.B.B.B.B.B.B."
};
