/* XPM */
static const char *enemy[] = {
/* columns rows colors chars-per-pixel */
"65 65 230 2 ",
"   c #161C2E",
".  c #191D2F",
"X  c #171F30",
"o  c #1C1E31",
"O  c #211E32",
"+  c #17222F",
"@  c #1B222F",
"#  c #1C2431",
"$  c #182635",
"%  c #1C2932",
"&  c #1C3534",
"*  c #242334",
"=  c #2A2535",
"-  c #232A33",
";  c #2A2935",
":  c #2A283A",
">  c #2D2C39",
",  c #37293A",
"<  c #362A3A",
"1  c #253434",
"2  c #2B3434",
"3  c #293838",
"4  c #323B35",
"5  c #34323C",
"6  c #38383C",
"7  c #472E3A",
"8  c #4A373B",
"9  c #59343E",
"0  c #1E4337",
"q  c #214237",
"w  c #264939",
"e  c #394436",
"r  c #374639",
"t  c #3C4A3A",
"y  c #23563B",
"u  c #3D553E",
"i  c #26633E",
"p  c #464A3B",
"a  c #52473F",
"s  c #48563A",
"d  c #52553E",
"f  c #55673D",
"g  c #3A2A41",
"h  c #293D43",
"j  c #3C3841",
"k  c #422D45",
"l  c #482F47",
"z  c #433D44",
"x  c #4B314B",
"c  c #5A3543",
"v  c #52334E",
"b  c #593652",
"n  c #663A45",
"m  c #713E4F",
"M  c #623A56",
"N  c #663C59",
"B  c #6A3D5B",
"V  c #2B464A",
"C  c #394A44",
"Z  c #2C5348",
"A  c #3C5248",
"S  c #345956",
"D  c #376646",
"F  c #2B7843",
"G  c #2E7549",
"H  c #3A625E",
"J  c #3B6560",
"K  c #3E6B64",
"L  c #3F7964",
"P  c #494346",
"I  c #55494A",
"U  c #425B44",
"Y  c #42584A",
"T  c #585448",
"R  c #564F53",
"E  c #445B56",
"W  c #6D4949",
"Q  c #765849",
"!  c #784158",
"~  c #645553",
"^  c #6A5A57",
"/  c #6B5B57",
"(  c #715E5A",
")  c #4A6545",
"_  c #4F6C4C",
"`  c #596845",
"'  c #56764E",
"]  c #4B6959",
"[  c #567753",
"{  c #5B7D52",
"}  c #666843",
"|  c #667C46",
" . c #77685A",
".. c #6F7654",
"X. c #406F67",
"o. c #417267",
"O. c #407A65",
"+. c #417168",
"@. c #577864",
"#. c #874449",
"$. c #984A4E",
"%. c #884758",
"&. c #944A57",
"*. c #9C4D56",
"=. c #845A55",
"-. c #A24D4F",
";. c #A44F54",
":. c #A85256",
">. c #AD5254",
",. c #B45455",
"<. c #B75957",
"1. c #87675A",
"2. c #99685D",
"3. c #8A735B",
"4. c #A97753",
"5. c #875461",
"6. c #856E63",
"7. c #8D7765",
"8. c #977965",
"9. c #A86C64",
"0. c #BA6B61",
"q. c #B97466",
"w. c #C27B6A",
"e. c #2D8546",
"r. c #378848",
"t. c #32984B",
"y. c #399556",
"u. c #35A54E",
"i. c #38AB52",
"p. c #37B150",
"a. c #3AB351",
"s. c #3F8363",
"d. c #55894E",
"f. c #6A8548",
"g. c #728644",
"h. c #728944",
"j. c #788B47",
"k. c #66924F",
"l. c #7B9346",
"z. c #7E9949",
"x. c #668A56",
"c. c #6D9657",
"v. c #729D5D",
"b. c #4CAB51",
"n. c #47B653",
"m. c #78A45A",
"M. c #7FAB5F",
"N. c #67B356",
"B. c #5E846D",
"V. c #648D6C",
"C. c #6E9A60",
"Z. c #6E976F",
"A. c #759A6B",
"S. c #679175",
"D. c #6A9274",
"F. c #749771",
"G. c #779870",
"H. c #75A262",
"J. c #7AA662",
"K. c #79A863",
"L. c #66C359",
"P. c #79C75C",
"I. c #88884C",
"U. c #839C49",
"Y. c #8B9F4A",
"T. c #928F52",
"R. c #999C55",
"E. c #B28E55",
"W. c #89A44A",
"Q. c #8BA84B",
"!. c #93AC4C",
"~. c #95B34C",
"^. c #99B54E",
"/. c #9BB94E",
"(. c #84AC5B",
"). c #8AAB5B",
"_. c #8DAB58",
"`. c #9BA555",
"'. c #8FB355",
"]. c #83BE5B",
"[. c #93B452",
"{. c #9AB453",
"}. c #A0B94F",
"|. c #A8A755",
" X c #B5A857",
".X c #A3B951",
"XX c #A6B458",
"oX c #ADB45A",
"OX c #B2B956",
"+X c #B7B558",
"@X c #B2B55C",
"#X c #BDBA5A",
"$X c #978667",
"%X c #928D67",
"&X c #879A62",
"*X c #849E6C",
"=X c #AE936D",
"-X c #B59A60",
";X c #84A662",
":X c #83AA61",
">X c #96A362",
",X c #C99A5D",
"<X c #D9945E",
"1X c #D7995D",
"2X c #D5A458",
"3X c #E2AB57",
"4X c #E8B854",
"5X c #C58669",
"6X c #D89560",
"7X c #C7AB7E",
"8X c #84CB5D",
"9X c #8BCE5F",
"0X c #8ED161",
"qX c #95D562",
"wX c #EEC74F",
"eX c #EFC74F",
"rX c #F6DA49",
"tX c #FDE947",
"yX c #FFEE58",
"uX c #FFF05D",
"iX c #EDCD62",
"pX c #FFF176",
"aX c #D2B98B",
"sX c #DCC896",
"dX c #E9D693",
"fX c #FCF091",
"gX c #EBDBA6",
"hX c #FAF0B2",
"jX c #FFFACC",
"kX c #FFFDF1",
/* pixels */
"#X#X#X#X#X@X@X@X@X#X#X#X#X+X}./././.OX#X#X#X@X:XK.XX#X#X#X#X#X#X#X#X.X/./././././././.}..X[.[.Z.F.@X#X*XG.@X#X#X#X#X#X#X#X#X#X#X#X",
"+X#X#X#X@X:XK.K.K.XX+X+X#X.X/././././.OX@X@X:XK.K.K.@X#X#X#X#X#X+X+X+X}./././././.}..X+X#X*XG.G.@X#X#X#X#X+X+X+X#X#X#X#X#X+X+X+X+X",
"[.oX@X@X:XK.K.K.K.K.[./.OX}./././.[.[.[.M.K.K.K.K.K.oX+X+X+X+X+X}././././././.}..X+X#X#X#X#X#X#X#X#X#X#X+X}././.OX#X#X#X+X}./.[.[.",
"K.K.K.K.K.K.K.K.K.).|.}./.`.`.`.!.M.K.K.K.K.K.K.K.K.'./././././././././././.}.+X#X+X+X+X#X#X#X#X#X#X+X+X}././././.+X#X#X.X/.[.M.K.",
"K.K.K.K.K.K.;X-X-X,X X{.`.8.E.5X-X%XJ.K.K.M.M.K.K.K.K.'././././././././.}..X+X#X+X}././.OX#X#X#X+X+X}././././././.OX+X#X.X/.(.K.K.",
"K.K.K.K.;X-X,X<X<X,X>XJ.%X8.5X6X5X5X=X&XM.[./.(.M.K.K.K.'.[././././././.OX+X+X+X}././././.OX+X+X}././././././././././.OX{.[.M.K.K.",
"M.M.M.;X-X<X<X1X<X-X;XJ.%X%X%X%X$X8.8.8.R.^./././.(.M.M.M.M.[./././././././././././././././././././././././.[.[.[.[.[.[.M.K.K.K.M.",
"[././.|.<X<X3XwX3X-X;XK.K.K.K.J.&X&X%X8.$X^././././././././././././././././.[.[.[./././././././././././././.(.M.M.K.K.K.K.K.K.M.[.",
"/./.}.,X<X4XrXtX3X,X).K.K.K.K.M.[./.(.&XR.^./././././././././././././././.[.M.K.K.'./././././././././././././././.(.M.M.K.K.K.[./.",
"/./..X1X<XrXtXwX1X<X X_.M.M.M.[./././.(.M.[././././././.~.W.z.U.[./././.[.M.K.K.K.K.[./././././././././././.}..X/./././.(.M.M.[./.",
".X/.!.E.<XrXtX4X1X<X1X,X X X/./././././././././././././.z.p 3 r x.'.[.[.M.K.K.K.K.K.[././././././././././.}.+X#X.X/./././.}..X.X.X",
"#X.XY.Q <X4X4X4XwX1X<X<X1X1X X/././././././././././././.j.1 z ; 4 _ c.J.K.K.K.K.K.K.'.[.[././././././.}..X+X#X#X#X.X.X.X.X+X#X#X#X",
"@X@XR.T 1X<X3XtXtXwX1X<X<X<X1X X{././.[.[.[.[././././.[.x.1 =.9.n - 3 _ v.J.K.K.K.K.K.K.K.'.[.[.[.[./.+X#X#X#X#X#X#X#X#X#X#X#X#X@X",
":XJ.x.p E.<X3XtXuXtXwX3X<X<X<X<X-X[.[.M.K.K.K.'.[.[.[.m._ % =.5X,.m . # U x.H.K.K.K.K.K.K.K.K.K.M.M.oX+X+X#X#X#X#X#X#X#X#X#X#X@X:X",
"M.M.c.- Q <X1XiXhXfXtXtXwXwX4X1X1X-XJ.K.K.J.K.K.H.H.H.x.3 6 9.w.<.,.m *   - ' H.K.K.K.K.K.M.M.m.Q.Q.Q.^./.OX#X#X#X#X#X#X+X@X@X:XM.",
"[./.^._ ; 4.<X4XpXfXyXyXtXtXtXwX1X4...H.v.x.v.H.D.S.B.A - W w.<.0.w.9.n * . - [ C.H.J.K.M.[.Q.f e e t U..X.X+X#X#X#X2X+X}.(.M.M.[.",
"/./.[.z.4 Q <X4XrXtXyXhXfXuXtXtX4X4.` v.[ - U ] B.V.] - W q.w.<.q.5X9.! v *   % E _ x.H.[.W.s 1 ) t - T.#X#X#X#X#X#X2X.X/././././.",
"/./.(.M.x.e 4.<X4XrXtXfXkXfXuXtXrX4.p @.] # 4 r C E h ; 2.w.<.<.5Xq.%.N k = < < * # h [ z.f # ) ].D 6 R.#X#X#X#X#X#X+X}./././././.",
"/./././.(._ a 4.<X4XrXyXjXhXhXyXtXE.P @.] $ k.m.D 3 X = 2.q.<.<.9.5.M l < n $.$.v g * 1 t 2 4 m.N.& } oX+X#X#X#X#X#X.X/./././././.",
"/././././.Q.) 8 4.<XwXtXuXjXkXfXtX2XQ @.[ - m.qXP.r.& # I >.,.,.&.B x 9 #.;.,.%.B N x # . . ) P.b.  | /./.OX#X#X#X#X.X/.}..X/././.",
"/././././.^.z.4 8 4.3XrXtXjXjXhXtX3XQ @.|.T d.qXqXN.t.i 5 #.,.*.! &.$.-.>.;.%.B N v l o     u b.t.  | /././.OX+X#X#X#X.X+X#X.X/./.",
"[./././././.^.g.4 8 E.rXtXpXpXhXiXE.I I.#X} # d.qX8Xn.u.D P $.*.*.,.,.;.%.! B x g o * 9 c < # w e.4 U./././././.OX#X#X2X+X+X+X.X/.",
"M.[./././././.^.g.2 8.dXdXdXgXgXaX~ - I.#X}   r 9X8Xn.i.s.K j $.,.,.*.! N B x * < $.$.>.&.N k o & d .X/./././././.OX+X+X}././.OX}.",
"/./././././././.l.4 6.=XaXgXgXgXsX$X6 I.#X+X} # U 8XP.a.y.O.V < >.*.%.%.%.%.&.>.>.,.:.%.B B N k . d #X}././.}..X/././././././././.",
"/./././././././.l.4 P ~ sXgXgXsXaX$X6 I.#X2X|.- # k.P.a.u.O.X.Y ,.,.,.,.,.,.,.>.:.%.! B B B B N * p +X.X/.}.+X#X.X.X/././././././.",
".X.X.X/././././.l.4 6 $XdXsX$X .aX=X6 I.#X|.s .   u N.a.u.L o.E >.,.,.,.,.>.&.! ! N N N N N N M * - I..X.X+X#X#X#X#X.X.X.X.X.X.X.X",
"+X+X+X}././././.l.4  .7X7X$X5 P =X$X6 g.oX}   * # 3 b.a.y.o.J > #.,.>.;.&.%.B N M v k k k k k g o   s |.#X#X#X#X#X+X+X+X+X+X+X+X+X",
"[.[././././././.l.4 P  .T > -  . .z 4 l.z.4 6 =.W ; D y.O.+.V . n ,.*.%.B M b v < *   # & q q q 0 & @ s R.+X+X+X+X}././.[.[.[.[.[.",
"K.K.'./.[.[.[.[.W.s # -     # 5 * 1 | !.g.- 1.5X9.7 y s.o.H 1 9 ;.,.;.! v g * *   + 0 F t.t.t.b.N.d.y & t z././././.[.[.M.K.K.K.K.",
"K.K.K.'.M.K.K.K.'.z.t @ . j P z > t W./.g.- 2.5Xq.2.1.1.1.=.! ;.,.,.%.v * . # V S F t.i.p.a.a.L.0X8XN.r.& p U./.[.[.M.K.K.K.K.K.K.",
"K.K.K.K.K.K.K.K.K.{.U.4 5 ~ ( ( j p !..Xg.- 2.5X5X5X5Xw.0.<.,.,.,.>.n O   # V K L p.p.a.a.a.a.n.P.qXqXP.d.1 t z.M.K.K.K.K.K.K.K.K.",
"K.K.K.K.K.K.K.K.K.XX`.6 6 ^ 7.7.P p |.#XI.- 2.w.0.0.0.0.0.0.,.,.,.#.> V V S K +.s.a.a.a.a.a.a.a.a.L.8XqX0Xd.% r x.J.K.M.M.M.M.M.K.",
"(.K.K.K.M.M.(.K.K.K.H._ z ^ 7.7.P p `.@Xj.# 1.w.0.<.,.,.,.,.,.,.,.9 + 1 h S K o.o.y.i.t.F 0 0 w e.t.b.n.n.n.t.y r x.M.[././././.(.",
"/.M.K.M.[././.(.(.M.M.x.C ^ 6.7.P t c.M.{ - ; 2.q.0.<.,.,.,.,.,.,.9     % h S X.+.o.S & #       r 1 i e.e.t.p.F & t [././././././.",
"/.(.M.[./././././././.z.> R ( 6.P e U.^.W.t   < n #.;.>.,.,.,.,.>.c     h J K K +.K V 1 V V % # d.` t 1 # 0 F t.0 e /././././././.",
"/././././././.[.[.[.[.j.# j I I 5 - ) W.[.f . x k l m &.*.*.>.;.&.M < o h J +.+.+.o.H H o.K V % x.M.c.{ s e 1 q % e /././././././.",
"[.[.^././.}..XA.G.D.B.A % 1 # o % y Z f.m.U o m &.%.%.&.*.*.:.*.&.! b g 3 Z K +.+.+.+.+.+.o.V % z././.^.Q.U.| f ` | [.[.[.^./.[.[.",
"S.S.).^.}.+X#X#X#X*XE $ u m.u 1 % F t.D x.U . *.,.,.,.,.,.,.,.,.,.;.! b g $ V K +.+.+.+.X.S 1 4 W./././././.^._.Z.S.S.S.S.).[.Z.S.",
"G.G.G.{.+X#X#X#X#X+Xd % d.qX].c.r y t.D @.Y . ;.$.m #.,.,.,.,.,.,.,.*.B b g : V S +.+.X.S 1 . t Q././././.[.[.Z.F.G.G.G.D.S.S.F.G.",
"#X#X#X#X2X#X#X#X#X+Xd q b.P.qX9X_ q i r x.Y . 7 < . 9 >.,.,.,.,.,.&.! B N N b x * S +.X.V g g * s /.[.[.[.Z.F.G.@X#X#X#X*XG.G.@X#X",
"#X#X#X#X#X#X#X@X@XoXd q u.a.P.8XN.w   @ * #     O 7 $.,.,.,.,.<.*.B B B B B B B M R H E N B N < - U.Z.F.G.G.@X#X#X#X#X#X#X#X#X#X#X",
"#X#X#X#X#X#X@X:XK.H.T q u.a.a.a.t.0   . @   . 9 ! >.,.,.,.,.,.,.%.B B B B B B B B N x x N B B x # 3 E .. X#X#X#X#X#X@X@X@X#X#X#X#X",
"#X@X@X@X@X@X:XK.K.J.d.4 F a.p.p.t.& * e d @ . 7 7 9 #.$.$.$.$.$.b M N N N N N N N M b b b M M b * + & - } |.#X#X@X@X:XK.K.XX@X#X#X",
"@X:XK.K.K.K.K.K.K.K.v.U w F F F w @ s W.g.- P P P I 5 < < < < < > k v x x l x x x g = = : l k : . w t.y 1 f |.+X).M.M.M.K.K.K.XX@X",
"K.K.K.K.K.K.K.K.K.K.K.c.A + + + # # ` !.f.- 6.6.7.$X^  .3. .~ 6.6.~ z j > ; > > o j ~ T j z I z - e.a.u.y 4 l./././././.(.M.M.M.K.",
"(.M.M.M.K.K.K.K.K.K.K.K._   o 5 j - ) H.f.% 5 5 6 P ~ 3.8.3.^ 7.7.^ P ~ ( R ~ ^ o I 7.6.I 6 I P 3 i.a.p.F 4 l./././././././././.(.",
"[.[.[.[.M.K.K.M.M.M.K.K._   * ~ ( 5 ) H.' # g k g : * > > > = > > ; * 5 P j z P   > ~ R 5 . # # & i.a.p.F 4 j./././././././././.[.",
"M.K.K.K.K.K.M.[././.(.K.[ # * ~ ^ 5 _ x.r < ! ! ! M v v v v v v v v v k : : * # > 5 > * - ; .   % G t.e.& e U././././.[.[.[.[.[.M.",
"M.M.M.M.M.M.[././././.M.H._ # # - ) U.p ; #.,.,.>.;.&.%.%.! B B B B B N M b : # (  .j . P ^ 5     # % % 4 I.+X.X/././.(.(.(.M.M.M.",
"/././././././././././.(.M.M.x.f.h.!.!.t = 7 7 n >.,.,.,.,.&.B B B B B N N x * z ~ ^ 5 . z ^ ^ j   e h.I.R.#X#X#X.X/./././././././.",
"/././././././././././././././././.}.oX} p e e * = = = = = < v b b b l = * o P 6.( j o   o 5  .6.> f /./.OX+X+X+X+X}./././././././.",
"/./././././././././././././././.[.oX@XoXoXoX|.` 6     # 2 - - - - - * 2 e @ 6 R - 2 2 @     5 T p ^./././././././././././././././.",
"/././././././././././././././.[.M.K.J.H.m.m.x.x.U   # C _ ` ` ` ` ` ` | ..t 2 2 U _ ` p -     p f.!.^././././././././././././././.",
"[./././././././././././.[.[.[.M.K.H.c.x.h.l.f._ 3   3 _ { { { { { { { { [ _ _ _ { { { [ r . @ ) h.h.z.W.[.[.[.[./././././././././.",
"M.[././././././././././.(.M.M.M.m.x.h.g.h.h.| U @ @ r [ { { { { [ [ { { { { { { { { { [ C . - U [ { { d.c.m.M.M.[././././././././.",
"/././././././././././././././.^.W.h.h.h.h.h.e -   - ) { { { { { { { [ { { { { { { { { [ C . # 1 _ { { { h.Q./././././././././././.",
"/./.[.[.[.[.[.^./././.[.[.[.[.'.W.h.h.h.h.h.f s s f | { { { f.h.g.h.f.{ { { { { { { { { _ A s s | h.h.g.z.!./././././././././././.",
"[.[.Z.S.S.S.D.).^./.[.Z.S.S.S.S.).W.l.h.g.g.I.I.I.j.h.{ { f.h.h.g.g.h.f.f.h.h.| { f.h.h.g.g.g.g.g.g.h.z.!./././././././././././.[.",
"S.S.F.G.G.D.D.D.).[.Z.S.F.G.G.G.D.).^.W.U.R.T.I.I.I.j.| { f.g.h.g.h.h.h.h.h.h.h.h.h.h.h.g.g.g.l.U.U.!././././././././././././.[.Z.",
"Z.G.@X#X#X*XG.D.S.S.S.F.@X#X#X#X;XG.)./.+X#X X|.|.|.R.T.x.x.h.h.h.h.h.h.h.h.j.j.j.j.l.|.|.|.|.+X.X/./././.[.[.[.[.[.^./.[.[.[.Z.S.",
"}.+X#X#X#X#X#X*XG.D.G.@X#X#X#X#X#X#X*X{.+X#X#X#X2X#X+X+X+X^.~.~.~.~.~.^.^.^.oX+X+X+X+X#X#X#X#X+X}./././.[.Z.S.S.S.S.).[.Z.S.S.S.S.",
"}.+X#X#X#X#X#X#X#X*X@X#X#X#X#X#X#X#X#X#X#X#X#X#X2X#X#X#X#X.X.X/./././.+X#X#X#X#X#X#X#X#X#X+X+X}.[.[.^.[.Z.S.F.G.D.S.S.S.S.F.G.D.S.",
"OX#X#X#X#X#X#X#X#X#X#X#X#X#X#X#X2X#X#X#X#X#X2X#X#X#X#X#X#X#X#X.X/././.OX+X+X+X+X+X+X+X+X+X}./.[.Z.S.).Z.S.F.@X#X*XD.S.S.F.@X#X*XG.",
"/.OX#X#X+X+X+X#X#X#X#X2X#X#X+X+X+X+X#X#X#X#X#X@X@X#X#X#X#X#X#X.X.X.X/././././././././././././.Z.S.F.G.D.S.oX#X#X#X*XG.G.@X#X#X#X#X",
"/./.OX#X.X/./.oX#X#X#X#X#X+X}./././.OX#X#X#X@X:XK.XX#X#X#X#X#X#X#X#X.X/./././././././.}..X[.[.Z.F.@X#X*XG.@X#X#X#X#X#X#X#X#X#X#X#X"
};
