/* XPM */
static const char *exit[] = {
/* columns rows colors chars-per-pixel */
"36 36 183 2 ",
"   c #232431",
".  c #342F37",
"X  c #383337",
"o  c #4A3E3C",
"O  c #4F403E",
"+  c #55443E",
"@  c #233748",
"#  c #343343",
"$  c #393B57",
"%  c #493B41",
"&  c #294757",
"*  c #3D4758",
"=  c #374F69",
"-  c #3F4C6C",
";  c #3A4762",
":  c #3D5C65",
">  c #3F566C",
",  c #345B6D",
"<  c #385D6D",
"1  c #355567",
"2  c #3F4F70",
"3  c #3D5271",
"4  c #3D5C75",
"5  c #3B5F7A",
"6  c #3C6067",
"7  c #37616F",
"8  c #3F646C",
"9  c #376678",
"0  c #3C657C",
"q  c #3D6D7D",
"w  c #396775",
"e  c #3C707D",
"r  c #4B444C",
"t  c #4C4147",
"y  c #544443",
"u  c #51474D",
"i  c #5A4849",
"p  c #574749",
"a  c #5C504F",
"s  c #5B4E51",
"d  c #4C535B",
"f  c #48585E",
"g  c #59585B",
"h  c #5F5552",
"j  c #4A4F57",
"k  c #674D46",
"l  c #675047",
"z  c #6F5549",
"x  c #6A5347",
"c  c #725747",
"v  c #735A4C",
"b  c #7B5C4A",
"n  c #745947",
"m  c #635451",
"M  c #715D53",
"N  c #7F634F",
"B  c #6C6255",
"V  c #66695E",
"C  c #746355",
"Z  c #7D6650",
"A  c #766A57",
"S  c #73705F",
"D  c #7C755D",
"F  c #444263",
"G  c #444C64",
"H  c #404D6C",
"J  c #494F63",
"K  c #445767",
"L  c #424E70",
"P  c #425374",
"I  c #435B74",
"U  c #415D79",
"Y  c #416067",
"T  c #416068",
"R  c #566267",
"E  c #5E756A",
"W  c #5E786F",
"Q  c #446979",
"!  c #4E7D75",
"~  c #4D7578",
"^  c #5D7F72",
"/  c #4D766E",
"(  c #69776D",
")  c #6A796A",
"_  c #787564",
"`  c #82624C",
"'  c #89664F",
"]  c #8D6A4E",
"[  c #926D4F",
"{  c #9B714F",
"}  c #93714F",
"|  c #816652",
" . c #856B52",
".. c #8C6F53",
"X. c #936E51",
"o. c #8B7154",
"O. c #887159",
"+. c #8E7C5C",
"@. c #957554",
"#. c #997351",
"$. c #9A7A56",
"%. c #9E7D58",
"&. c #917855",
"*. c #A47B55",
"=. c #AC7E55",
"-. c #A07F58",
";. c #A07755",
":. c #56847D",
">. c #688576",
",. c #7D987C",
"<. c #AB8155",
"1. c #AC8559",
"2. c #A78A5E",
"3. c #B18356",
"4. c #B48D5C",
"5. c #BB925E",
"6. c #888F6E",
"7. c #9C8260",
"8. c #839A7B",
"9. c #A99163",
"0. c #BC9661",
"q. c #C2965F",
"w. c #C39D65",
"e. c #C9A267",
"r. c #CDA76A",
"t. c #CFA86A",
"y. c #D1AB6C",
"u. c #D7B26E",
"i. c #3D6C85",
"p. c #3C7482",
"a. c #3D7A8E",
"s. c #3E7885",
"d. c #406D85",
"f. c #427183",
"g. c #42778B",
"h. c #417D88",
"j. c #4B7883",
"k. c #437F94",
"l. c #48858A",
"z. c #4C8685",
"x. c #568D85",
"c. c #5F8F80",
"v. c #508C88",
"b. c #5B938B",
"n. c #55928D",
"m. c #438493",
"M. c #488296",
"N. c #458B94",
"B. c #4B8998",
"V. c #4A9196",
"C. c #4A939E",
"Z. c #4E9A9E",
"A. c #5C9C95",
"S. c #529D9E",
"D. c #51969B",
"F. c #619289",
"G. c #749C84",
"H. c #609891",
"J. c #5AA19E",
"K. c #5FA194",
"L. c #66A494",
"P. c #6BA592",
"I. c #6AAD9B",
"U. c #61A199",
"Y. c #69B19F",
"T. c #4C92A2",
"R. c #4E9BA4",
"E. c #5099A6",
"W. c #58A6A4",
"Q. c #51A4AD",
"!. c #54A6A7",
"~. c #53ADB3",
"^. c #56B1B6",
"/. c #6AB7A6",
"(. c #68B7A9",
"). c #72BAA3",
"_. c #70BCA8",
"`. c #74C3AB",
"'. c #7BC5AA",
"]. c #77CCB4",
"[. c #7CD0B4",
"{. c #83DCBD",
"}. c None",
/* pixels */
"}.}.}.}.}.}.}.}.}.}.}.}.}.}.}.}.}.}.}.}.}.}.}.}.}.}.}.}.}.}.}.}.}.}.}.}.",
"}.}.}.}.}.}.}.}.}.}.}.}.}.}.}.}.}.}.}.}.}.}.}.}.}.}.}.}.}.}.}.}.}.}.}.}.",
"}.}.}.}.}.}.}.}.}.}.}.}.}.}.}.}.}.}.}.}.}.}.}.}.}.}.}.}.}.}.}.}.}.}.}.}.",
"}.}.}.}.}.}.}.}.}.}.}.}.}.}.}.}.}.}.}.}.}.}.}.}.}.}.}.}.}.}.}.}.}.}.}.}.",
"}.}.}.}.}.}.}.}.}.}.}.}.}.}.}.}.}.}.}.}.}.}.}.}.}.}.}.}.}.}.}.}.}.}.}.}.",
"}.}.}.}.}.}.}.}.}.}.}.}.}.}.}.}.}.}.}.}.}.}.}.}.}.}.}.}.}.}.}.}.}.}.}.}.",
"}.}.}.}.}.}.}.}.}.}.}.}.}.}.:.x.}.}.}.}.x.:.}.}.}.}.}.}.}.}.}.}.}.}.}.}.",
"}.}.}.}.}.! }.}.}.L.`./ }.}.).`./ }.}.! `.).}.}./ `.L.}.}.}.! }.}.}.}.}.",
"}.}.}.}.x.L.8 6 H.I.~ < N.7 I Q < m.m.< Q I 7 N.< ~ I.H.6 8 L.x.}.}.}.}.",
"}.}.}.}.0 U U 4 P ; F U f.4 L P 4 f.g.4 P P Q f.U F ; P 4 U U 0 }.}.}.}.",
"}.}.L.z.4 2 G J G $ F L - H L P H H 3 H 3 L H - L F $ G J G 3 4 z.L.}.}.",
"}.}.b.> H a $.1.$.m $ r s u r s m m m s r u u s r $ m $.1.$.a H > b.}.}.",
"}.}.0 * i 4.y.y.y.&.o v X.X.X.#.;.*.*.;.#.X.' X.v o &.y.y.y.4.i * 0 }.}.",
"}.}.e :.) 2.t.t.y.%.x ' *.3.5.e.y.r.r.y.e.5.<.*.' x %.y.t.t.2.) :.e }.}.",
"}.}.w J.I.6.t.e.w.@.v ` *.w.y.u.u.y.y.u.u.y.w.*.` v @.w.e.t.6.I.J.w }.}.",
"}.}.9 Q.V.>.9.8.,.D ` [ *.w.r.y.y.y.y.y.y.r.0.*.[ ` D ,.8.9.>.V.Q.9 }.}.",
"}.}.9 Q.C.A.c.K.[.>.b X.3.q.t.y.t.y.y.t.y.t.q.3.X.b >.[.K.c.A.C.Q.9 }.}.",
"}.}.}.m.~.~.S.Z.`.^ x X.=.3.5.0.0.t.t.0.0.5.3.=.X.x ^ `.Z.S.~.~.m.}.}.}.",
"}.}.}.& N.~.^.R.).'.E ` { D G.G.+.<.<.+.G.G.D { ` E '.).R.^.~.N.& }.}.}.",
"}.}.}.}.= q h.s.n._.P.V S ^ ]./.E _ _ E /.].^ S V P._.n.s.h.q = }.}.}.}.",
"}.}.}.}.- P 3 ; p.C.!.Y._.l.~.R.v.`.'.v.R.~.l._.Y.!.C.p.; 3 P - }.}.}.}.",
"}.}.}.}.P M.B.3 0 T.^.W.S.R.^.~.V.(.(.V.~.^.R.S.W.^.T.0 3 B.M.P }.}.}.}.",
"}.}.}.}.I R.Q.5 1 m.Q.~.~.~.~.~.~.~.^.~.~.~.~.~.~.Q.m.1 0 Q.R.I }.}.}.}.",
"}.}.}.}.U E.Q.i., p.e : : : : T Y K T T Y : : : : q p., i.Q.E.U }.}.}.}.",
"}.}.}.# U R.T.d.B.].b.% y k i y y y y % y i k y % b.].B.d.T.R.U # }.}.}.",
"}.}.}.t I B.T.g.J.{.A.> M | I G d f f j G I | M > A.{.J.g.T.B.I t }.}.}.",
"}.}.}.+ R k.T.i.D.{.U.5 C 7.Q v #.#.#.} v Q 7.C 5 U.{.D.i.T.k.R + }.}.}.",
"}.}.}.y o.( j.4 l.[.P.A o.-.C [ h g g m [ C -.o.A P.[.l.4 j.( o.y }.}.}.",
"}.}.}.z #.1.2.A * W F.] { *.` | Q a.a.Q Z ' *.{ ] F.W * A 2.1.#.z }.}.}.",
"}.}.}.l =.3.<.X.c X.f d N ..u  .Q s.s.Q o.u ..N d f X.c X.<.3.=.l }.}.}.",
"}.}.}.. ' 3.1.;.' <.R i.C O.K  .: w w :  .K O.C i.R <.' ;.1.3.' . }.}.}.",
"}.}.}.}.+ ` ' ' n [ B _  .@.B  .8 q q 8  .B @. ._ B [ n ' ' ` + }.}.}.}.",
"}.}.}.}.}.}.. o o ` b ' ] ' ` Z f.a.i.q Z b ] ] ' b ` o o . }.}.}.}.}.}.",
"}.}.}.}.}.}.}.}.  o + X + + O y & & @ @ y o + + X + o   }.}.}.}.}.}.}.}.",
"}.}.}.}.}.}.}.}.}.}.}.}.}.}.}.}.}.}.}.}.}.}.}.}.}.}.}.}.}.}.}.}.}.}.}.}.",
"}.}.}.}.}.}.}.}.}.}.}.}.}.}.}.}.}.}.}.}.}.}.}.}.}.}.}.}.}.}.}.}.}.}.}.}."
};
