/* XPM */
static const char *exit[] = {
/* columns rows colors chars-per-pixel */
"65 65 241 2 ",
"   c #332F3A",
".  c #39363B",
"X  c #46393E",
"o  c #3F423E",
"O  c #47483D",
"+  c #574B3E",
"@  c #4C533D",
"#  c #56573E",
"$  c #57653D",
"%  c #61703F",
"&  c #2D3649",
"*  c #353846",
"=  c #3B3E47",
"-  c #2D3E56",
";  c #373753",
":  c #443C47",
">  c #4B3E41",
",  c #473C50",
"<  c #483F61",
"1  c #394E4F",
"2  c #2C455A",
"3  c #33445C",
"4  c #384859",
"5  c #3C615F",
"6  c #364662",
"7  c #3A4663",
"8  c #364A65",
"9  c #304E65",
"0  c #3A4B66",
"q  c #3C4D6B",
"w  c #375669",
"e  c #3D5472",
"r  c #3A5C75",
"t  c #39656C",
"y  c #356374",
"u  c #396775",
"i  c #3C647B",
"p  c #3C6C7D",
"a  c #3D7077",
"s  c #3C737C",
"d  c #48474A",
"f  c #534342",
"g  c #594644",
"h  c #5D4A45",
"j  c #564C48",
"k  c #485747",
"l  c #5A5446",
"z  c #464956",
"x  c #485858",
"c  c #545B57",
"v  c #654E47",
"b  c #685647",
"n  c #6C5445",
"m  c #745B47",
"M  c #735749",
"N  c #755B4B",
"B  c #7B5D4C",
"V  c #665D53",
"C  c #7E5E50",
"Z  c #4C664C",
"A  c #576A48",
"S  c #5B764C",
"D  c #496657",
"F  c #56695A",
"G  c #4F765E",
"H  c #567658",
"J  c #686543",
"K  c #76664A",
"L  c #7D614B",
"P  c #667946",
"I  c #777648",
"U  c #6A6759",
"Y  c #786853",
"T  c #737357",
"R  c #464564",
"E  c #434C6D",
"W  c #465866",
"Q  c #444F70",
"!  c #435375",
"~  c #435678",
"^  c #425A7B",
"/  c #476867",
"(  c #586865",
")  c #4C7368",
"_  c #567666",
"`  c #466676",
"'  c #48777A",
"]  c #557877",
"[  c #6A7664",
"{  c #6D7565",
"}  c #805F4F",
"|  c #83634C",
" . c #89674B",
".. c #84694F",
"X. c #8C6A4D",
"o. c #936D4E",
"O. c #817E4B",
"+. c #94714F",
"@. c #9B734F",
"#. c #846351",
"$. c #8A6652",
"%. c #846C53",
"&. c #8B6D51",
"*. c #946D51",
"=. c #8A7557",
"-. c #947352",
";. c #9B7351",
":. c #9C7B56",
">. c #967C59",
",. c #A17652",
"<. c #A47B54",
"1. c #AB7D54",
"2. c #5E8255",
"3. c #6D8243",
"4. c #6B854C",
"5. c #738747",
"6. c #738A44",
"7. c #7C9548",
"8. c #668856",
"9. c #6A935B",
"0. c #749959",
"q. c #7BA55D",
"w. c #7EAA5F",
"e. c #5C836B",
"r. c #588779",
"t. c #57897D",
"y. c #698969",
"u. c #6D956E",
"i. c #76956C",
"p. c #638A76",
"a. c #679175",
"s. c #6A9376",
"d. c #779870",
"f. c #749873",
"g. c #76A461",
"h. c #79A863",
"j. c #85844B",
"k. c #8B8A4D",
"l. c #918E4E",
"z. c #839949",
"x. c #95964E",
"c. c #888E53",
"v. c #9B835C",
"b. c #969752",
"n. c #AC8156",
"m. c #A3845A",
"M. c #AC885A",
"N. c #B28355",
"B. c #B28559",
"V. c #B48A5A",
"C. c #B98C5A",
"Z. c #A19F54",
"A. c #BB915E",
"S. c #89A44B",
"D. c #92AD4B",
"F. c #95B34C",
"G. c #9AB64D",
"H. c #9BB94E",
"J. c #86AA58",
"K. c #98A955",
"L. c #93B352",
"P. c #A0B94F",
"I. c #A8A755",
"U. c #B2AE57",
"Y. c #A5B755",
"T. c #B7B658",
"R. c #B2B45C",
"E. c #BEBA5A",
"W. c #8B9568",
"Q. c #A99063",
"!. c #BB9562",
"~. c #BD9A64",
"^. c #82A960",
"/. c #C1955E",
"(. c #C29A63",
"). c #C39C65",
"_. c #CAA266",
"`. c #C9A469",
"'. c #CBA569",
"]. c #D0A768",
"[. c #D2AC6C",
"{. c #D6B16E",
"}. c #D9B36F",
"|. c #DAB570",
" X c #3A6B82",
".X c #3B6B82",
"XX c #3C7383",
"oX c #3F7982",
"OX c #3D788B",
"+X c #3F7F91",
"@X c #436B86",
"#X c #417C83",
"$X c #43738C",
"%X c #447989",
"&X c #437C92",
"*X c #3F8192",
"=X c #48868A",
"-X c #578A85",
";X c #5B9589",
":X c #448395",
">X c #488A94",
",X c #448599",
"<X c #468B9C",
"1X c #498C9D",
"2X c #4B9398",
"3X c #559895",
"4X c #679B86",
"5X c #639788",
"6X c #5BA29C",
"7X c #68A28A",
"8X c #75A887",
"9X c #68AA98",
"0X c #6CB29D",
"qX c #75B79A",
"wX c #4B93A2",
"eX c #4C9BA4",
"rX c #4C9BA7",
"tX c #509BA7",
"yX c #4FA1A6",
"uX c #4FA3AB",
"iX c #5AA7A4",
"pX c #51A6AD",
"aX c #53AAAE",
"sX c #57ACAE",
"dX c #50A7B0",
"fX c #53ACB2",
"gX c #56B2B6",
"hX c #58B5B7",
"jX c #6AB6A6",
"kX c #66B5AA",
"lX c #73BBA3",
"zX c #78C5AB",
"xX c #6AC4B8",
"cX c #76CBB4",
"vX c #7BCDB3",
"bX c #7CD1B6",
"nX c #7CD3BA",
"mX c #80CAA8",
"MX c #85D9B6",
"NX c #83D9B9",
"BX c #8BE1BB",
/* pixels */
"E.E.E.E.E.R.R.R.R.E.E.E.E.T.H.G.7.A A I U.E.R.8.D ) ) / F l.E.E.E.E.z.Z / ) ) Z 7.H.H.S.P Z A _ u.R.E.W.f.R.E.E.E.E.E.E.E.E.E.E.E.",
"T.E.E.E.R.^.h.h.g.Y.T.T.E.P.F.5.e.qXqXu.I.R.q.8.4XMXvXcX8Xb.E.E.T.T.b.7XcXcXMX7X0.G.P.Z.f.qX9Xe.c.R.E.E.E.T.T.T.E.E.E.E.E.T.T.T.T.",
"L.R.R.R.^.h.8.Z D S L.G.x.z.3.e.MXnXlX_ 0.h.0.e.9XNXnXcX8Xc.T.T.P.H.J.7XcXnXNXqX0.U.E.Z.y.lXNXmXy.j.x.I.U.G.4.A P b.E.E.T.P.H.L.L.",
"h.h.h.h.9.Z / 7X0Xe.L.S.G r.r.0XnXcX7XD S 8.S D ;X0XzXzXp.P 7.7.7.7.4.r.zXzX0X;XT j.x.I F 7XcXnX0Xp.r.H S.D.u.9X4XG I U.P.H.L.w.h.",
"h.h.h.h.S r.vXcXbXe.6.A 9XnXBXBXzX' 3 2 s #Xa 2 - q ` ` 3 9 s a s a w 3 ` ` 0 - 2 a #Xu 2 3 #XzXNXNXNX4XP 3.s.vXcXvX] c.G.H.J.h.h.",
"h.h.h.h.H %XzX-X' 2 t w w %X' ;X] E e i yXdXeXy q ! ~ ^ q s uXuXdXyXXX8 ^ ~ ! q u eXdXeXp e E ] t.' %Xw w w 4 ' -XlX' c.L.L.w.h.h.",
"w.w.0.h.H XXu ^ ~ i 1Xy 6 ! e 6 ; R E r 2X2X2Xy q ! Q ! 0 u wXeXyXeXs 3 ! Q ! e p 2X2X<X` E R ; 6 e ! 6 u :Xi ~ ^ i p 0.q.0.h.h.w.",
"L.6.k 8.Z  Xr ~ ^ ~ ^ ~ ~ ! ! 0 ; R ! ^ 8 3 e 0 ! ! ~ ~ e e q 3 6 q q q ~ ! ! ~ e q 3 8 ^ ! R ; q ~ ! ^ ~ ^ ~ ^ ~ i u H 2.1 8.w.L.",
"G.8.qX) t y q ~ ! Q ! ! ! Q Q 7 ; R ! ~ Q Q ~ E E E ! ^ ~ ~ ! ! ^ ~ ! ^ ^ ! E E Q ~ Q Q ! Q R ; 7 E Q ! ! ! Q ! ~ w u w ] 9Xe.L.H.",
"S.r.NX9X>X Xq ! ~ q 3 7 7 7 q 8 ; R R E ! ! ~ Q ! ! ~ ~ E E E E ~ ~ E Q ~ ~ ! ! ! ~ ! ! E R < ; 0 q 7 7 7 3 q ! ! q $X=XjXbXr.S.H.",
"z.7XcX' u ^ ! 7 * j n m m h . & ; < R 7 0 6 6 6 6 6 6 6 3 6 6 3 6 8 6 6 3 6 6 6 6 6 6 0 0 R < ; & * h m m n j ; 0 ! ^ r t.cXa.S.P.",
"c.8XlX4 ; ^ 3   n n.B.V.A.B.<.N ; , *   > g f X   . X f h h h h h h g >     X X X > g > * * , , m <.B.A.V.V.<.v * 7 ! ; 4 lX4Xb.E.",
"5./ %X3 < 0 j | m.A._.'.).!.!.Q.= * > v #.#.C N B B #.$.$.$.$.$.$.$.$.#.} } #.#.N B #.#.v > * d m.(.!.).'.).A.<.| j R < 4 %X/ x.R.",
"S t &Xq , * n B.[.{.[.[.[.{.[.m.  . f v B #.B | *.*.;.;.;.;.;.;.;.;.;.;.;.;.*.$.B B #.B v f   . m.[.[.[.[.[.{.[.n.n : , e $Xw b.^.",
"8.u $Xq ; X N <.[.'.'.'.'.'.'.:.n g v | ;.<.,.,.<.;.;.,.1.n.V.V.V.V.n.1.,.;.;.,.@.,.<.;.| v h n m._.'.'.'._.'.'.<.N > ; q $X/ 0.w.",
"z./ OX4 / U  .V.[.'.'.[.[.[.[.:.&.n #.,.N.N.N.N.C.C.A.).[.[.{.}.}.{.[.[.).A.C.C.N.N.N.N.,.B N  .m.'.[.[.[.'.[.'.M.#.U W 9 OXt 0.L.",
"D.) >Xt.vX9Xx Y ~.'.'.'.'.[._.&.X.f h | @.;.<.n.A._.[.}.}.[.'.'.'.'.[.}.}.[._.C.<.,.;.o.| h h  .:.).[.'.'.'.'.~.Y F 9XzXt.>XG F.H.",
"D.) #X6XcXvXlX[ '.{.{.[.{.{.'.&.;.h f M  .-.M.!._.'.[.{.}.[.'.'.'.'.[.}.[.[.'.).V.m.-.| n f v *.:.).{.{.[.{.}.~.y.qXcXcX3X=XG F.H.",
"D.D u 2X2X7XMXr.m.'.'.!.).'.V.| :.L n *.N.C.'.{.}.|.|.}.}.}.|.|.|.|.}.}.}.}.|.}.{.'.C.N.X.M L :.%.M._.).(.'.'.>.4XzX7X3X>Xp D F.H.",
"D.D u 2XyXs -X' m.[.'.Q.Q.~.=.m :.N n o.@.;.M._.'.[.[.[.[.[.[.[.[.[.[.[.[.[.[.'.).M.;.;.X.M N :.N =.!.Q.Q.'.[.>.-X=X#XuX>Xu D F.H.",
"F.D %XtXgXaXoX=X=._.v.r.4Xp._ U -.B N  .o.-.m.~.).'.'.'.]._.'.'.'.'._.'.'.'.'.~.V.<.o.o. .B B -.U _ p.4Xp.v.~.T =XoXaXgXeXXXF F.H.",
"L.A %XfXgXaXs =Xp.c.F lXNXvXvXs.L | | 1.N.C./._.[.}.|.|.|.|.|.|.|.|.|.|.|.|.}.[._.(.C.N.<.$.| Y f.zXbXNX0X[ { -X=XoXaXgXpXXXT P.H.",
"w.P #XpXgXaXs =XvX5X/ 7XvXbXMX4Xv | B ,.1.C././._.[.[.[.[.{.{.{.{.{.{.[.[.[.[._././.C.1.;.| B b 4XMXbXvX5X/ 7XzX=XoXpXgXpXp 4.T.P.",
"H.7./ 1XdXuXeX=XzXlXa =X6XzXMXr.+ B M  .o.<.N.C._.).(.~.!.~._.'.'.).~.!.~.(.).).C.N.<.o. .N N f p.vXlX3X=X' lXjX=XeXpXpX1X/ S.H.H.",
"H.F.H %XpXfXdXfXhX6X#XfX2XlXvX) f B B *.,.n.N.N.A.'.'.).!.!._.[.[._.!.!.).'._.A.N.N.1.,.*.N B f ] zX0X3XpX=X6XgXfXdXfXtXXXS D.H.H.",
"P.P.z.5 2XdXgXgXdXeXeXfX3XzXvXr.j h B 1.n.N.N.1.<.M.M.V.~.'.[.[.[.[._.~.V.M.M.<.1.N.N.1.<.B v j p.vXlX3XpXeXyXdXgXgXdX>XD z.G.P.P.",
"T.T.T.P a eXfXfXuXfXhXdX3XzXNXzX[ d v o.@.,.@.%.U [ { [ Y n.C.M.M.C.n.Y [ { { [ %.@.;.@.X.v d p.zXNXlX3XaXgXfXuXfXfXeX/ I U.T.T.T.",
"L.L.H.D.1 u eXdXgXfXfXuX#X9XNXbXlX4Xc N X.o.X.U 9XzXzX0X[ X.1.o.@.<.&.[ 0XzXzX9X[  .o. .M c 5XzXbXNX7X=XyXfXfXfXdXeXy Z S.L.L.L.L.",
"h.h.L.H.Z 2 i >XyXeXaXaXs 5XMXvXMXmXF N $.X.L ] bXNXbXcXa.N *.*.*.o.K p.cXnXNXvXp.K X.$.n ( lXNXbXMX;X=XyXpXyXeX:Xi 2 S q.h.h.h.h.",
"h.h.h.L.D e 6 9 y y oXoXt 2X;X9XvX0Xx U { F c ] vXvX0X0Xt.c [ { { U c r.jXjXzXzX] c ( { U / 9XzX9X3X=Xu s XXu r 9 8 q H g.h.h.h.h.",
"h.h.h.h.D ! ! e 6 - - - 2 +XXXs iX3X/ 9XlX9X-Xt iXiX=X=X' ' 0XlXlX9X' ' 2X=XiXiX' t.9XlX7X' 3XiX' XXXX2 - - - 6 e ! q H g.h.h.h.h.",
"h.h.h.h.Z 7 E ! ! ^ ! E 2 +X,X:XgXaX=XzXnXbX3XoXgXgXuXpX>X;XbXnXnXvX3X=XaXuXfXfX=X3XbXnXlX3XpXfX,X,XOX6 7 ! ^ ! ! E 7 H q.w.w.w.h.",
"J.h.h.h.D 7 ! ^ @X$X` Q 2 XX,X<XgXgX3XjXjXjX=XoXfXfXuXdX2Xt.lXcXMXlX-X>XfXdXfXfX#X=XjXjX0X6XfXfX1X,X X6 E @X$X@X^ ! 7 P F.H.H.H.J.",
"H.w.h.w.A Q @X&X<XwX$X^ 2  X$X<XgXhXaXiX=X2X2X2XgXgXdXuX2X=X6XkXkX3X=X2XaXfXgXgX2X2X2X2XiXsXhXfX<X$Xi 6 r $XwX,X&X@Xq P F.H.H.H.H.",
"H.J.w.L.A E @X<XpXpX:X@X2 r $X&XtXgXgXaXeXeXpXdXgXhXgXuXeXtXpXgXfXuXeXyXdXgXhXgXdXpXeXeXaXgXgXeX&X$Xr 6 i ,XpXyX<X@Xq P F.H.H.H.H.",
"H.H.H.H.S E ` <XfXhXwX@X3 9 ,X,XwXaXdXfXdXdXdXdXpXgXhXdXuXpXdXgXgXdXpXdXfXgXgXpXdXdXdXdXfXdXpXwX,X&X9 8 @XwXgXpX<X` q P F.H.H.H.H.",
"L.L.G.H.P q @X1XpXhXwX@X6 - u *X<XtXdXfXfXhXgXgXpXfXhXfXfXfXdXgXhXgXgXfXfXgXfXaXgXgXgXfXfXdXtX<X+Xu - 8 @XwXgXtX1X@Xq 4.J.G.H.L.L.",
"a.a.J.F.A E %XeXpXfX1X$X8 2 9 w y XXoXs s #X#XoXs XX#X#XoXoXs oX#X#X#X#X#X#Xs s oX#XoXs s XXXXy w 9 2 q $XwXgXpXtX$Xq D p.J.L.u.a.",
"f.f.f.S.d E @XwXpXdXwX:Xe u XX#XXXa 2 = * * = * * = 1 1 = = = = = = = = = = = * * = * * * 2 u XXoXXXu r &XwXdXtXwX@Xq 1 y.a.a.f.f.",
"E.E.E.x.* Q $X1XtXwX<X&Xq XXiXxXkX3Xd > X X g f > v g > > f f f g f > > > g h f > g X X X z 3XkXkXiXXXr $X<XwXtX1X@Xq 1 y.i.f.R.E.",
"E.E.E.I * E $XeXfX1X1X&Xq =XxXNXcX9Xd f > h N n g v v g f h g g h g f f g v v h v N h > > z 9XbXnXkX#Xe $X1X1XfXwX@Xq * O.T.E.E.E.",
"E.E.R.J : q @X1XfXeXeX:Xr 3XbXNXbX9X4 z d v #.N : z x z z z z z z z 4 z z x z d M #.v z z 4 9XnXNXbX>Xi :XwXtXaX1X@Xq : J U.E.E.E.",
"E.R.I.l g 7 $X:X,X1XwX,X X3XbXNXbX6Xq  XW N ;.#.R  Xr 0 z z W W W W z 4 0 r i W L ;.N W i r 6XnXNXbX3X@X:XwX1X,X:X@X0 h k K.R.E.E.",
"R.^.9.O | z @X,X:XwX&X&Xr 2XxXnXNX6Xr $XW B <.>.` XX0 d U Y Y Y T U U V d 0 XX] >.<.B W @Xi 6XNXnXxX>Xi &X:X1X:X:X@Xz N d 9.h.Y.R.",
"h.g.2.. B v i &X<XaX,X&Xe >XxXnXMX9Xr @XW L <.Q.] p d B -.;.-.<.<.+.o.+.m z i ] m.1.B W @Xi 9XMXnXxX=Xr $X<XpX,X&Xu V n O 8.q.w.h.",
"J.q.S o f >.c XX1XpX:X$Xq >XxXMXMX9Xw i W | n.m./ w M <.<.,.,.<.<.@.@.<.,.N w ( v.n.L W r y 9XMXNXxX=Xe @X,XuX<XXX( =.f O 5.D.H.J.",
"L.D.3.O f &.v.( XX<X$X$Xq :XxXMXMX9Xx U U X.B.m.U V  .<.B h l l l h l B <.X.V U :.B...U U ( 9XNXMXxX=Xe @X&X,Xp ( v.%.g O 5.D.H.L.",
"q.9.S d B N m.v.U ( W ` 3 oX=XqXNX0XU m.>.o.N.m.=.-. .o.d 6 q e e 0 8 d X.X.X.>.<.N.o.>.<.U 9XNX0X=Xp 4 W W ( T v.:.L N @ P 7.L.w.",
"q.8.S j $.X.X.m.~.m.v.%.l t 1 _ zX9XV <.&.o.N.<.&.X.| ..W  XXXOXOXXX XW L |  .-.:.N.o.-.;.U 9XlX_ 4 w c =.v.m.~.m.&.X.| j S 8.w.w.",
"S.6.P l $.<.*.<.A.v._.:.v & f V -X6XV ,.X.X.N.<. .B L %.' *X*X*X+X*X,X] %.| B %.<.B.o.X.;.U 3X-XV f * v :.~.m.A.;.;.,.#.l P 6.S.H.",
"7.6.P l #.N.n.1.N.-.V. .n . N &.c ' d m n  .n.-.h h B =.' XXp :X+Xp  X] =. .h v -.n. .n n c ` F &.n > n &.n.;.N.1.n.n.#.l 3.6.7.G.",
"S.6.3.l L 1.V.N.C.,.N.X.*.n o.1.N - 3 W z | ;.&., d B =./ a ' #X:X' p / >. .d d ..,.B z q 3 2 K 1.X.N X.-.n.<.V.N.N.<.B l 3.6.S.H.",
"F.7.5.@ h o.N.N.C.1.V.;.<.N ;.C.-.4  X@XW B ;.=.R R ..=.x 9 w u XXw w x =.#.z W %.;.B W  X Xz -.V.o. .;.<.B.n.V.N.N.o.f $ 3.z.F.H.",
"L.z.6.% O n N.1.B.<.B.;.m.m X.C.>.W $X$X` N -.>.W W ..-.1 w r y u w w x &.#.W ` =.;.N ` $X@XW >.C.X.| :.<.n.1.N.1.1.n @ % 6.S.G.H.",
"w.S.6.3.$ b <.<.1.,.N.X.;.n  .N.=.w  X X` B :.>.w W  .&.1 u ' u p ` u x ..#.W W =.<.B `  Xi W -.N.L B X.;.1.,.1.<.,.J P 3.6.S.H.H.",
"H.F.7.6.3.% n L ;.o.N.X.o.n B ,...l U T U ..M.:.V Y X.&.W w w p XXw w W &.X.U U -.n...U { U V ..,.m B  .+.1.o.@.B n P 3.6.7.F.H.H.",
"H.H.S.z.4.P A A n + |  .| g B ;.B m :.m.&.| <.:.K &. .%.` XX X&X+Xi  X` %.o...L -.<. .-.m.>.N B @.m v L X.L + b J P 3.6.S.D.G.H.H.",
"L.L.u.e.) G D P P $ A b d . M ;.B n ;.;.X. .,.X.B  .| Y ` +X&X,X*XOXOX' Y  .B N X.,. .X.;.-.m B +.n O + b J $ P 3.3.6.6.S.G.H.H.L.",
"a.a.f.y.[ G ) G P P F D x d n @.| M X.| m  .;.| B | B Y ` OXXX+X Xw y ` K | m m L ;. .m | X.N | o.b # $ P 3.3.6.6.6.6.z.D.H.H.L.u.",
"u.i.R.E.E.i.y.e.) G G H 5.# . + n b K # + n X.n b K m b x t 1 D D k Z x b m J b b  .n + l K m n + . $ 3.6.3.4.6.7.S.S.F.L.L.L.u.a.",
"P.T.E.E.E.E.E.W.y._ H b.l.I J J # I H P I J J # J O.I K I 3.P P 3.3.3.P J P I J # J J I I j.K # $ $ P 7.7.G _ e.p.a.J.L.u.a.a.a.a.",
"P.T.E.E.E.E.E.E.E.i.b.U.U.k.j.j.O.j.k.k.k.j.j.O.j.k.l.k.j.5.6.6.6.6.6.j.k.l.k.j.j.j.j.k.k.k.j.3.P P 6.S.y.e.u.i.s.a.a.a.a.f.f.s.a.",
"T.E.E.E.E.E.E.E.E.E.E.E.U.l.l.k.l.Z.I.I.b.k.k.k.x.Z.U.I.x.b.x.z.S.7.7.x.Z.I.b.l.k.k.k.b.I.S.z.6.H ) 4.y.a.f.R.E.W.s.a.a.f.R.E.W.f.",
"H.T.E.E.T.T.T.E.E.E.E.E.E.U.I.b.I.T.E.E.U.I.Z.b.I.E.E.E.E.E.U.F.G.G.G.F.F.H.G.D.z.z.S.D.H.H.G.y._ y.y.a.a.R.E.E.E.W.f.f.R.E.E.E.E.",
"H.H.T.E.P.H.H.R.E.E.E.E.E.T.H.G.H.H.T.E.E.E.R.^.h.Y.E.E.E.E.E.E.E.E.Y.H.H.H.H.H.G.G.H.P.P.L.L.u.f.R.E.W.f.R.E.E.E.E.E.E.E.E.E.E.E."
};
