/* XPM */
static const char *floor[] = {
/* columns rows colors chars-per-pixel */
"65 65 53 1 ",
"  c #7EAA5F",
". c #6E976F",
"X c #70986D",
"o c #76986F",
"O c #7F9E6A",
"+ c #7A9C6D",
"@ c #679175",
"# c #6A9571",
"$ c #6A9274",
"% c #749771",
"& c #779870",
"* c #75A366",
"= c #76A465",
"- c #78A763",
"; c #79A863",
": c #7DA960",
"> c #72A069",
", c #99B74F",
"< c #9BB94E",
"1 c #9CB94E",
"2 c #84AD5B",
"3 c #80AB5F",
"4 c #89AB5B",
"5 c #8CAC5A",
"6 c #8AAD5D",
"7 c #8FB355",
"8 c #93B253",
"9 c #93B552",
"0 c #94B551",
"q c #91B155",
"w c #94B254",
"e c #9AB553",
"r c #9EB751",
"t c #99B356",
"y c #9FB850",
"u c #A0B94F",
"i c #A1B950",
"p c #A7B952",
"a c #A7B35D",
"s c #ACB65A",
"d c #AEB25F",
"f c #B2B956",
"g c #B3B75B",
"h c #B1B35E",
"j c #B1B65C",
"k c #B4B75C",
"l c #B7B959",
"z c #B8B958",
"x c #BFBA5B",
"c c #849E6C",
"v c #83AA61",
"b c #86AB61",
"n c #90AE60",
/* pixels */
"xxxxxkjjjxxxxzu<<<fxxxkv;axxxxxxxxp1<<<<<<<uiwq.%hxc&hxxxxxxxxxxx",
"zxxxkv;;;alzxi<<<<<fgjv;;;jxxxxxzzzu<<<<<uizxc&&hxxxxzzzxxxxxzzzz",
"0sjjv;;;;;0<fu<<<000 ;;;;;szzzzzu<<<<<<uizxxxxxxxxxxzu<<fxxxzu<00",
";;;;;;;;; 0<<<<<0 ;;;;;;;;7<<<<<<<<<<<uzxzzzxxxxxxzzu<<<<zxxi<0 ;",
";;;;;;;;;7000<<0 ;;;;  ;;;;7<<<<<<<<uizxzu<<fxxxzzu<<<<<<fzxi< ;;",
";;;;;;;;;;;;;70 ;;;; 0<2 ;;;70<<<<<<fzzzu<<<<fzzu<<<<<<<<<<fe0 ;;",
"   ;;;;;;;;;;;;;;;;;0<<<<2    0<<<<<<<<<<<<<<<<<<<<<<<000000 ;;; ",
"0<<2;;   ;;;;;;;  ;;0<<<<<<<<<<<<<<<<<000<<<<<<<<<<<<<2  ;;;;;; 0",
"<<<<  0<<2 ;;;; 0<2;7<<<<<<<<<<<<<<<<0 ;;7<<<<<<<<<<<<<<<2  ;;;0<",
"<<<<20<<<<<2   0<<<2 0<<<<<<<<000<<<0 ;;;;0<<<<<<<<<<<ui1<<<2  0<",
"i1<<<<<<<<<<<<<<<<<<<<<<<<<<<0 ;;700 ;;;;;0<<<<<<<<<<uzxp1<<<uiii",
"xpi1<<<<<<<0000<<<<<<<<<<<<<0 ;;;;;;;;;;;;700<<<<<<uizxxxpiiizxxx",
"kjje<<00000 ;;;70<<0000<<<<0 ;;;;;;;;;;;;;;;;70000yzxxxxxxxxxxxxk",
"v;;;70 ;;;;;;;;;;70 ;;;7000 ;;;;;;;;;;;;;;;;;;;;  szzxxxxxxxxxxkv",
"   ;;;;;;;;;;;;;;;;;;;;;=***-;;;;;;;;;;;;;;;;   0<<<<fxxxxxxzgjv ",
"0<<2   ;;;;;;;;;;;;;;;;=#@@@>:       =***-;; 0<<<<uiiizxxxxzu2  0",
"<<00000 ;;;;;;;;;;;=**-#@@@@@4qqqq,<8.@@@>*-0<<<uizxxxxxxxxi<<<<<",
"<<2 ;;;;;;;;;;;;;;=#@@>#@@@@@@@@@@4q.%&&$@@>9<<uzxxxxxxxxxzu<<<<<",
"<<<<2 ;;;;;;;;;;;=#@@@%&&&$@@@%&&&$@%hxxc$@@4rizzzzzzxxxxxi<<<<<<",
"<<<<<<2   ;;;;;;;#@@%&hxxxc$@%hxxxc&hxxxxc&&&hzzu<<<<fxxxxp1ui1<<",
"<<<<<<<<<< ;;;;=*#@%hxxxxxx&%hxxxxxxxxxxxxxxxxi<<<<<<<fzxxxpzxp1<",
"0<<<<<<<<<2bbbb+&$%hxxxxxxxchxxxxxxxxxxxxxxxxxiuii1<<<<<fxxxzzzp1",
" 0<<<<<<<<uzzzxxxchxxxxxxxxxxxxxxxxxxxxxxxxxxxpzxxp1<<<<<fzzu<<fu",
"<<<<<<<<<<zzu<fxxxxxxxxzzzxxxxxzzxxxxzzxxxxxxxxxxxxi<<ui1<<<<<<<<",
"<<<<<<<<<<fu<<<fzzzxxxzu<<fxxzzu<fzxzu<fxxxxxxxxxxxi<uzxpi1<<<<<<",
"iii1<<<<<<<<<<<<<<<fxxi<<<<zzu<<<<<fu<<<zxxxxxxxxxxpizxxxxpiiiiii",
"zzzu<<<<<<<<<<<<<<<<fzu<<<<zi<<<<<<<<<<<zxxxxzzzxxxxxxxxxzzzzzzzz",
"00<<<<<<<<<<<<<<<<<<<<<<<<<fu<<<<<<<<<<<fzzzzu<<fzzzzzzzzu<<00000",
";;7<0000<<<<<<uii1<<<<<<<<<<<<<<<<<<<<<<<<<<<<<<<<<<<<<<<<00 ;;;;",
";;;7 ;;;7<<<uizxxp1<<<<<<<<<000<<<<<<<<<<<<<<<<<<<<<<<<<00 ;;;;;;",
";;;;;;;;;eiizxxxxxpiii000<<0 ;;7<<<<<<<<<<<<<<<<<<<<<<<0 ;;;;;;;;",
";;;;;;;;;ajjxxxxxxxxxkv;;70   ;;7<<<<<<000<<<<<<<<<<<00 ;;;     ;",
"2;;;   ;;;;;ajxxxkjjjv  ;;; 0<2;;7<<<<0 ;;7<<<00<<<00 ;;;; 0<<<<2",
"< ; 0<<2      szz6    0<2  0<<<2  0<<0 ;;;;700 ;7<<2      0<<<<<<",
"<2 0<<<<<<<<<<<<<<<<<<00<<<<<0000<<<< ;;;;;;;;;;;700<<<<<<<<<<<<<",
"<<<<<<<8qqqqq,<<8qq,00 ;7<000 ;;;7<<0 ;;   ;;;;;    0<<<<<<<<<<<<",
"qq,<<uiO&$@@@4,8.@@4:;;;;7 ;;;;;;;70 ;; 0<<2    0<<<<<<<8qqqq,<8q",
"@@4,uzxxxc&$@@4.@%&$>-;;;;;;;;;;;;;;;;;0<<<<<<<<<<<<<<<8.@@@@4q.@",
"&&&tzxxxxxxc$@@@%hxc$>vb;;;  ;;   ;;;; 0<<<<<<<<<<<<<8q.%&&&$@@%&",
"xxxxxxxxxxxxc$@%hxxxc&hxn;;0<2 0<<2;;;7000000<<<<<8qq.%&hxxxc&&hx",
"xxxxxxxkjjxxxc$dxzzxxxxxxnb0<<<<<<< ;;;;;;;;;700yw.%&&hxxxxxxxxxx",
"xxxxxxkv;;axxxchzu<fxxxxxxxpi1<<<<< ;;;;vbbbbbbbkc&hxxxxxxkjjxxxx",
"xkjjjjv;;;;ajjlzu<<<fzzzzxxxzu<<<<0 vbbbkxxxxxxxzzzzzzxxkjv;;ajxx",
"jv;;;;;;;;;;;;700<<<<<<<<fzzu<<<<<2 szzzzzzzzzzzu<<<<<fz6   ;;;aj",
";;;;;;;;;;;;;;;;;700<<<000000<<<<<<<<<<<<<<<<<<<<<<<<<<<<<<<2   ;",
"2   ;;;;;;;;;;;;;;;;700 ;;;;;0<<<<<<<<<<<<<<<<<uiii1<<<<<<<<<<<<2",
"0000 ;;   ;;;;;;;;;;;;;;;vbb;0<<<<<<<<<<<<<<<<uzxxxp1<<<<<<<<<<<0",
" ;;;;; 0<<2;;;;;;;      bkxxn0<<<<<<<<<<<<uiiizxxxxxpii1<<<00000 ",
"      0<<<< ;;;   0<ui1<zxxxxp1<<<<<<<<<<<fzxxxxzzzxxxxp1<<2     ",
"<<<<<<<<<<<2   0<<uizxpizxxxxxi<<<<<<<<<<<<<fzxzu<<fxxxxp1<<<<<<<",
"<<<<<<<<<<<<<<<<<uzxxxxxxkjjxxpiii1<<<<<<<<<<<fu<<<<fzzzzu<<<<<<<",
"<<<<<<<<<<<<<<<<0sjjjjjjjv;;axxxxxpiiii000<<<<<<<<<<<<<<<<<<<<<<<",
"<<<<<<<<<<<<<<<0 ;;;  ;;;;;;;ajjjjjjjjjv;;70000<<<<<<<<<<<<<<<<<<",
"0<<<<<<<<<<<000 ;;  0<2;;;;;;;;;;;;;;;;;;;;;;;;700000000<<<<<<<<<",
" 0<<<<<<<<<<2     0<<<<2  ;;;;;;;;;;;;;;;;;;;;;;;;;;    0<<<<<<<<",
"<<<<<<<<<<<<<<<<<<<<<<<<<<2;;;    ;;;;;;;;;;;;      0<<<<<<<<<<<<",
"<<8qqqq,<<<8qqqq,<<<<<uii1< ; 0<<<2;   ;;     0<<<<<<<<<<<<<<<<<<",
"qq.@@@@4,<8.@@@@4,<<<uzxxp1 ;0<<<<<20<<2 0<<<<<<<<<<<<<<<<<<<<<<8",
"@@%&&$@@4q.@%&&&$4,<uzxxxxp6;7<<<<<<<<<<<<<uiiii1<<<<<<<<<<<<<<8.",
"Xohxxc&$@@@%hxxxc&5,zxxxxxxxn30<<<<<<<uiiiizxxxxi<<<<8qqqq,<8qq.@",
"uzxxxxxc&$%hxxxxxxctzxxxxxxxxi<<<<<uiizxxxxxxxxzu<<<8.@@@@4q.@@@@",
"uzxxxxxxxchxxxxxxxxxxxxxxxxxxpi1<<<zxxxxxxxxxzzu8q,8.@%&$@@@@%&$@",
"fxxxxxxxxxxxxxxxxxxxxxxxxxxxxxxi<<<fzzzzzzzzzu<8.@4.@%hxc$@@%hxc&",
"<fxxzzzxxxxxxxzzzzxxxxxkjxxxxxxpii1<<<<<<<<<<<<X@%&$@dxxxc&&hxxxx",
"<<fxi<<sxxxxxzu<<<fxxxkv;axxxxxxxxp1<<<<<<<uiwq.%hxc&hxxxxxxxxxxx"
};
