/* XPM */
static const char *Tilemap[] = {
/* columns rows colors chars-per-pixel */
"36 36 5 1 ",
"  c #BFBA5B",
". c #9BB94E",
"X c #79A863",
"o c #679175",
"O c white",
/* pixels */
"  ......  XXXXXXX  XXXXXXXXXXXXX....",
"..............XXXXXXXXXXXXXXXXXXXXX.",
"..................XXXXXXXXXXXXXXXXXX",
".    .................XXXXXXXXXXXXXX",
"      ............XXXXXXX...XXXXXXXX",
"         ....XXXXXXXXXXX.....XXXXXXX",
"  ...     ...................XXXX...",
" .....     .........................",
"................................... ",
"..................................XX",
"X................................XXX",
"XXXXXXXXXX....................XXXXXX",
"XXXXXX..............................",
"....................................",
"....................ooooo....ooooo..",
"..................oooooooo..ooooooo.",
"  ...............ooo   ooooooo    oo",
"  .....ooooo..ooooo      oooo       ",
" .....ooooooooooooo        o        ",
"..oo.ooo  ooooo  ooo                ",
".oooooo    ooo     o                ",
".oo  oo                         ....",
"oo                     XXXX    .....",
"       ...     ....   XXXXXX.. .....",
"      .....   ...XXXXXXXXXXX.......X",
"    .......   ..XXXXXXXXXXX.......XX",
"  ........... ..XXXXXXXXXXXXXXX..XXX",
"..............XXXXXXXXXXXXXXXXXXXXXX",
"........XXXXXXXXXX...XXXXXXXXXXXXXXX",
"...........XXXXXX.....XX...XXXXXXX..",
"..............XXX.....X......XXXX...",
"........  ..........................",
".......    ....    .................",
".....                ........XXXX...",
"XXXX              XXXX..XXXXXXXXXXX.",
"XX.....          XXXXXXXXXXXXXXXXXXX"
};
