/* XPM */
static const char *gold[] = {
/* columns rows colors chars-per-pixel */
"65 65 181 2 ",
"   c #161C2E",
".  c #181E2E",
"X  c #1C222F",
"o  c #1E2630",
"O  c #23282F",
"+  c #222530",
"@  c #282733",
"#  c #242D31",
"$  c #2C2C33",
"%  c #2B3331",
"&  c #2F3A34",
"*  c #2D3D3D",
"=  c #323133",
"-  c #363734",
";  c #3B3B36",
":  c #3B3338",
">  c #433D37",
",  c #4E3F3D",
"<  c #364236",
"1  c #3C4333",
"2  c #3B4836",
"3  c #3D4238",
"4  c #49473A",
"5  c #554A3B",
"6  c #465539",
"7  c #4B593A",
"8  c #565B38",
"9  c #65563E",
"0  c #50603B",
"q  c #5A603E",
"w  c #5A6C3E",
"e  c #5E713E",
"r  c #666B37",
"t  c #727837",
"y  c #787F38",
"u  c #3A5046",
"i  c #574540",
"p  c #5A4641",
"a  c #5D4A41",
"s  c #425B45",
"d  c #464A59",
"f  c #445E56",
"g  c #614B43",
"h  c #6C5543",
"j  c #735648",
"k  c #775849",
"l  c #7E5D4A",
"z  c #556E4B",
"x  c #4B6354",
"c  c #676843",
"v  c #726241",
"b  c #7D6943",
"n  c #607440",
"m  c #6A7E42",
"M  c #727446",
"N  c #7A7948",
"B  c #545865",
"V  c #5E626F",
"C  c #805E4B",
"Z  c #88634D",
"A  c #957A48",
"S  c #96784A",
"D  c #8F6850",
"F  c #9C7053",
"G  c #A47555",
"H  c #AC7B57",
"J  c #AC7A58",
"K  c #7C8338",
"L  c #6C8142",
"P  c #728744",
"I  c #7A9246",
"U  c #7CA75E",
"Y  c #7FAB5F",
"T  c #6D8B69",
"R  c #6E976F",
"E  c #73986E",
"W  c #799E69",
"Q  c #679175",
"!  c #6A9373",
"~  c #749771",
"^  c #779870",
"/  c #76A466",
"(  c #78A763",
")  c #79A863",
"_  c #72A069",
"`  c #848B39",
"'  c #858B3A",
"]  c #8C933A",
"[  c #949B3B",
"{  c #99A03B",
"}  c #A4A83E",
"|  c #A7AD3D",
" . c #B4BB3E",
".. c #C1C83F",
"X. c #83864A",
"o. c #9E8249",
"O. c #849D48",
"+. c #93924F",
"@. c #9C9A51",
"#. c #A3854B",
"$. c #AB8B4C",
"%. c #A39445",
"&. c #B4914E",
"*. c #AF8056",
"=. c #B48457",
"-. c #B58956",
";. c #BA8C56",
":. c #BE9055",
">. c #BE9B51",
",. c #8BA649",
"<. c #94A54D",
"1. c #96B34C",
"2. c #99B74F",
"3. c #9BB94E",
"4. c #84AD5B",
"5. c #89AB5B",
"6. c #9EA354",
"7. c #8FB355",
"8. c #94B452",
"9. c #9AB454",
"0. c #A0B94F",
"q. c #A7A855",
"w. c #B7AA51",
"e. c #A2B950",
"r. c #A7B35D",
"t. c #ADB55B",
"y. c #B2B956",
"u. c #B6B258",
"i. c #B2B55D",
"p. c #B7B959",
"a. c #BDBA5A",
"s. c #849E6C",
"d. c #B28465",
"f. c #84AA61",
"g. c #90AE60",
"h. c #C69B54",
"j. c #C79C54",
"k. c #C6AD4F",
"l. c #CABE49",
"z. c #D6BC4F",
"x. c #CEA554",
"c. c #C3A850",
"v. c #CFA953",
"b. c #D1AE52",
"n. c #D4B650",
"m. c #BDC041",
"M. c #D3C64B",
"N. c #D8C44D",
"B. c #DDCE4B",
"V. c #CDD441",
"C. c #D5DA43",
"Z. c #DBD349",
"A. c #E2DF47",
"S. c #E0D949",
"D. c #DFE642",
"F. c #E4E346",
"G. c #E6EA45",
"H. c #E8EE44",
"J. c #E9F044",
"K. c #C9CF6C",
"L. c #EDF265",
"P. c #EEF36F",
"I. c #EEF372",
"U. c #EFF47E",
"Y. c #7B7F89",
"T. c #83868F",
"R. c #AEB0AF",
"E. c #C5A38C",
"W. c #F1F589",
"Q. c #F2F695",
"!. c #D7C0B0",
"~. c #E3D4B3",
"^. c #F5F8A9",
"/. c #E8DAD1",
"(. c #F9FBD0",
"). c #FAFCDB",
"_. c #E7E8E9",
"`. c #FCFDE7",
"'. c #F9F6F4",
"]. c #FCFCF5",
"[. c #FFFFFF",
/* pixels */
"a.a.a.a.a.i.i.i.i.a.a.a.a.p.0.3.3.3.y.a.a.a.i.f.) r.a.a.a.a.a.a.a.a.e.3.3.3.3.3.3.3.3.0.e.8.8.R ~ i.a.s.^ i.a.a.a.a.a.a.a.a.a.a.a.",
"p.a.a.a.i.f.) ) ) r.p.p.a.e.3.3.3.3.3.y.i.i.f.) ) ) i.a.a.a.a.a.p.p.p.0.3.3.3.3.3.0.e.p.a.s.^ ^ i.a.a.a.a.p.p.p.a.a.a.a.a.p.p.p.p.",
"8.t.i.i.f.) ) ) ) ) 8.3.y.0.3.3.3.8.8.8.Y ) ) ) ) ) t.p.p.p.p.p.0.3.3.3.3.3.3.0.e.p.a.a.a.a.a.a.a.a.a.a.p.0.3.3.y.a.a.a.p.0.3.8.8.",
") ) ) ) ) ) ) ) ) Y 8.3.3.3.3.3.8.Y ) ) ) ) ) ) ) ) 7.3.3.3.3.3.3.3.3.3.3.3.0.p.a.p.p.p.a.a.a.a.a.a.p.p.0.3.3.3.3.p.a.a.e.3.8.Y ) ",
") ) ) ) ) ) ) ) ) 7.8.8.8.3.3.8.Y ) ) ) ) Y Y ) ) ) ) 7.3.3.3.3.3.3.3.3.0.e.p.a.p.0.3.3.y.a.a.a.p.p.0.3.3.3.3.3.3.y.p.a.e.3.4.) ) ",
") ) ) ) ) ) ) ) ) ) ) ) ) 7.8.Y ) ) ) ) Y 8.3.4.Y ) ) ) 7.8.3.3.3.3.3.3.y.p.p.p.0.3.3.3.3.y.p.p.0.3.3.3.3.3.3.3.3.3.3.y.9.8.Y ) ) ",
"Y Y Y ) ) ) ) ) ) ) ) ) ) ) ) ) ) ) ) ) 8.3.3.3.3.4.Y Y Y Y 8.3.3.3.3.3.3.3.3.3.3.3.3.3.3.3.3.3.3.3.3.3.3.3.8.8.8.8.8.8.Y ) ) ) Y ",
"8.3.3.4.) ) Y Y Y ) ) ) ) ) ) ) Y Y ) ) 8.3.3.3.3.3.3.3.3.3.3.3.3.3.3.3.3.3.8.8.8.3.3.3.3.3.3.3.3.3.3.3.3.3.4.Y Y ) ) ) ) ) ) Y 8.",
"3.3.3.3.Y Y 8.3.3.4.Y ) ) ) ) Y 8.3.4.) 7.3.3.3.3.3.3.3.3.3.3.3.3.3.3.3.3.8.Y ) ) 7.3.3.3.3.3.3.3.3.3.3.3.3.3.3.3.4.Y Y ) ) ) 8.3.",
"3.3.3.3.4.8.3.3.3.3.3.4.Y Y Y 8.3.3.3.4.Y 8.3.3.3.3.3.3.3.3.8.8.8.3.3.3.8.Y ) ) ) ) 8.3.3.3.3.3.3.3.3.3.3.3.e.e.3.3.3.3.4.Y Y 8.3.",
"e.3.3.3.3.3.3.3.3.3.3.3.3.3.3.3.3.3.3.3.3.3.3.3.3.3.3.3.3.8.Y ) ) 7.8.8.Y ) ) ) ) ) 8.m w w w n 3.3.3.3.3.0.p.a.e.3.3.3.3.0.e.e.e.",
"a.e.e.3.3.3.3.3.3.3.3.8.8.8.8.3.3.3.3.3.3.3.3.3.3.3.3.3.8.Y ) ) ) ) ) ) ) ) ) ) ) ) 7.<       X 6 L 3.0.e.p.a.a.a.e.e.e.e.p.a.a.a.",
"i.i.i.9.3.3.8.8.8.8.8.Y ) ) ) 7.8.3.3.8.8.8.8.3.3.3.3.8.Y ) ) ) ) ) ) ) ) ) ) ) ) ) ) *    .      # P p.k.k.a.a.a.a.a.a.a.a.a.a.i.",
"f.) ) ) 7.8.Y ) ) ) ) ) ) ) ) ) ) 7.8.Y ) ) ) 7.8.8.8.Y ) ) ) ) ) ) ) ) ) ) ) ) ) ) ) *   J.V.V.[   + X.p.a.a.a.a.a.a.a.a.a.a.i.f.",
"Y Y Y ) ) ) ) ) ) ) ) ) ) ) ) ) ) ) ) ) ) ) ) ) / / / / ( ) ) ) ) ) ) ) ) ) ) ) ) ) ) *   J.J.J.J.J.t   I y.a.a.a.a.k.a.p.i.i.f.Y ",
"8.3.3.4.Y Y Y ) ) ) ) ) ) ) ) ) ) ) ) ) ) ) ) / ! Q Q Q _ ) Y Y Y Y Y Y Y / / / W u       J.x.n.G.J.H.r . O.p.a.a.a.k.p.0.4.Y Y 8.",
"3.3.8.8.8.8.8.Y ) ) ) ) ) ) ) ) ) ) ) / / / ( ! Q Q Q Q Q 5.8.8.8.8.2.3.8.R Q Q f         ..x.v.N.G.z.x.>   @.a.a.a.k.e.3.3.3.3.3.",
"3.3.4.Y ) ) ) ) ) ) ) ) ) ) ) ) ) ) / ! Q Q _ ! Q Q Q Q Q Q Q Q Q Q 5.8.R ~ ^ T u   d V V   A %.G.N.x.x.h X   a.a.a.p.0.3.3.3.3.3.",
"3.3.3.3.4.Y ) ) ) ) ) ) ) ) ) ) ) / ! Q Q Q ~ ^ ^ ^ ! Q Q Q ~ ^ ^ z f f x M M 8     R.[.[.Y.  % %.x.#.b b +   a.a.a.e.3.3.3.3.3.3.",
"3.3.3.3.3.3.4.Y Y Y ) ) ) ) ) ) ) ! Q Q ~ ^ i.a.a.a.s.! Q ~ i.@.c -                 V _.[.[.T.  = v ;     q c a.a.a.e.3.0.e.3.3.3.",
"3.3.3.3.3.3.3.3.3.3.Y ) ) ) ) / / ! Q ~ i.a.a.a.a.a.a.^ ~ 6.8 ;       ] { { { { q     B _.[.'.`       7 m 1.y.p.a.a.a.e.p.a.e.3.3.",
"8.3.3.3.3.3.3.3.3.3.4.f.f.f.f.W ^ ! ~ i.a.a.a.a.a.a.a.s.r.;       y  .G.(.(.(.^.C. .8   d B P.D.`     m 3.3.3.3.y.a.a.k.p.p.p.e.3.",
"Y 8.3.3.3.3.3.3.3.3.0.p.p.p.a.a.a.s.i.k.a.a.a.a.a.a.a.a.u.      K D.J.(.[.[.[.].`.W.C.w.$   1 J.|     m 3.3.3.3.3.y.p.p.0.3.3.y.0.",
"3.3.3.3.3.3.3.3.3.3.p.p.0.3.y.a.a.a.k.a.a.a.a.p.p.p.a.a.      t J.J.J.`.[.[.[.[.[.Q.J.J.b.            m 3.3.0.e.3.3.3.3.3.3.3.3.3.",
"3.3.3.3.3.3.3.3.3.3.y.0.3.3.3.y.p.p.p.a.a.a.p.0.3.3.y.u.  . O K J.J.J.`.[.[.'.].[.Q.J.J.b.+       X N e.3.0.p.a.e.e.3.3.3.3.3.3.3.",
"e.e.e.3.3.3.3.3.3.3.3.3.3.3.3.3.3.3.3.y.a.a.e.3.3.,.O.    1 J.J.J.J.J.`.[./.J E.[.Q.J.J.z.x.- =   c a.e.e.p.a.a.a.a.e.e.e.e.e.e.e.",
"p.p.p.0.3.3.3.3.3.3.3.3.3.3.3.3.3.3.3.3.y.q.P P P &     X t J.V.| | | R./.J d.!.[.Q.J.J.J.x.x.$.  4 q.k.a.a.a.a.a.p.p.p.p.p.p.p.p.",
"8.8.3.3.3.3.3.3.3.3.3.3.3.3.3.3.3.3.3.3.,.7           i a B.l.8         h J d.~.^.I.J.J.J.x.x.$.    M p.p.p.p.p.p.0.3.3.8.8.8.8.8.",
") ) 7.3.8.8.8.8.3.3.3.3.3.3.0.e.e.3.3.1.7       8 K v ;.H >.5     4 v +   J J >.J.J.J.J.J.x.x.$.    n 3.3.3.3.3.3.3.8.8.Y ) ) ) ) ",
") ) ) 7.Y ) ) ) 7.3.3.3.0.e.p.a.a.e.3.6   4 { { V.J.b.x.h.$.    5 &.x.} { l.J -.M.J.J.J.J.x.x.h.9   n 3.3.3.3.3.8.8.Y ) ) ) ) ) ) ",
") ) ) ) ) ) ) ) ) 9.e.e.p.a.a.a.a.a.3   - K.(.(.(.L.A.A.x.$.    $ A x.F.J.H.Z.Z.A.J.J.J.z.x.x.x.A   n 3.3.3.3.8.Y ) ) ) ) ) ) ) ) ",
") ) ) ) ) ) ) ) ) r.i.i.a.a.a.a.a.3   O C.U.[.[.[.I.J.J.x.$.      + #.b.J.J.J.J.J.J.J.J.b.x.x.x.A   n 3.3.8.8.Y ) ) ) Y Y Y Y Y ) ",
"4.) ) ) ) ) Y ) ) ) ) ) r.i.a.a.a.$   J.L.[.[.[.[.I.J.J.J...              J.J.J.J.J.J.n.x.x.x.j.l   n 8.8.Y ) ) ) ) Y 8.3.3.3.3.4.",
"3.Y ) Y 8.3.3.4.Y Y Y Y Y Y t.p.3     J.L.[.[.].].P.-.J G.J.G.`   X + .   + x.z.G.G.G.n.x.x.J J l   n 4.Y Y Y Y Y Y 8.3.3.3.3.3.3.",
"3.4.Y 8.3.3.3.3.3.3.3.3.3.3.3.3.<   - J.L.).).W.J.J.-.J H Z.]   % | n.4   + x.x.j.j.j.j.j.J J J l   n 8.3.3.3.3.3.3.3.3.3.3.3.3.3.",
"3.3.3.3.3.3.3.8.8.8.8.8.8.2.3.3.<   x.S.J.J.J.J.J.J.c.J J D     ] J.B.o.  + x.h.=.J J J J J J G a   z Y 8.3.3.3.3.3.3.3.3.3.3.3.3.",
"8.8.2.3.3.0.e.s.^ ! Q Q Q 5.2.8.*   x.v.J.J.J.J.J.J.J.k.J F i : 8 ] ] O   O N.z.h.=.J J J J G p   & I 3.3.3.3.3.8.8.8.8.8.2.3.8.8.",
"Q Q 5.2.0.p.k.k.a.s.^ ! Q Q 5.R *   x.v.J.J.J.J.J.J.J.J.J J J Z g g @     ` J.F.z.h.=.J J J a     0 3.3.3.3.3.8.R Q Q Q Q 5.8.R Q ",
"^ ^ ^ 9.p.a.a.a.a.a.a.s.! Q Q Q *   x.v.J.J.J.J.J.J.J.c.J J J J J J :     J.J.J.B.x.;.J J ,       0 3.3.3.8.8.R ~ ^ ^ ^ ! Q Q ~ ^ ",
"a.a.a.a.a.a.a.a.a.a.a.a.s.! Q ~ 3   x.v.N.J.J.J.J.J.J.J J -.Z.Z.Z.Z.m. . .J.J.J.B.x.;.J J Z l     0 8.8.8.R ~ ^ i.a.a.a.s.^ ^ i.a.",
"a.a.a.a.a.a.a.i.i.i.a.a.a.s.! t.4   x.x.v.N.J.J.J.J.J.J *.F.J.J.J.J.J.J.J.J.J.J.B.x.;.J J J J C   X x ~ ^ ^ i.a.a.a.a.a.a.a.a.a.a.",
"a.a.a.a.a.a.i.f.) ) r.a.a.a.s.i.p.#   x.x.x.N.J.J.J.J.J.J.J.J.J.J.J.J.J.J.J.J.J.B.x.;.J J J J D     x i.a.a.a.a.a.a.i.i.i.a.a.a.a.",
"a.i.i.i.i.i.f.) ) ) ) r.i.i.p.p.0.#   h.x.x.x.B.G.G.H.J.J.J.J.J.J.J.J.J.J.J.H.Z.x.x.-.J J J J Z     M p.p.p.a.a.i.i.f.) ) r.i.a.a.",
"i.f.) ) ) ) ) ) ) ) ) ) ) ) 7.8.8.2   + x.x.x.x.x.x.S.F.F.J.J.J.J.J.J.J.J.F.Z.x.x.;.J J J J G     + L 3.3.3.y.p.5.Y Y Y ) ) ) r.i.",
") ) ) ) ) ) ) ) ) ) ) ) ) ) ) ) ) 7.  X o.x.x.x.x.x.x.x.v.S.S.S.S.S.S.S.S.x.x.x.j.-.J J J J k     0 3.3.3.3.3.3.3.3.3.3.4.Y Y Y ) ",
"4.Y Y Y ) ) ) ) ) ) ) ) ) ) ) ) ) ) s   $ A x.x.x.x.x.x.x.x.x.x.x.x.x.x.x.x.x.j.-.J J J J h     % P e.3.3.3.3.3.3.3.3.3.3.3.3.3.4.",
"8.8.8.8.Y ) ) Y Y Y ) ) ) ) ) ) ) ) ) s   = A h.x.x.x.x.x.x.x.x.x.x.x.x.x.x.;.-.J J J j g       4 a.a.e.3.3.3.3.3.3.3.3.3.3.3.3.8.",
"Y ) ) ) ) ) Y 8.3.3.4.) ) ) ) ) ) ) Y U s   $ 5 A ;.x.x.x.x.x.x.x.x.x.x.;.-.J J J k , +       $ +.a.a.a.e.e.e.3.3.3.3.8.8.8.8.8.Y ",
"Y Y Y Y Y Y 8.3.3.3.3.Y ) ) ) Y Y Y 8.3.1.w     $ : > > -.-.;.x.x.:.-.-.J : : : : +         +.@.p.p.p.a.a.a.a.e.3.3.3.4.Y Y Y Y Y ",
"3.3.3.3.3.3.3.3.3.3.3.4.Y Y Y 8.3.3.0.e.p.u.<.7         @ @ $ $ $ $ @ @ @           e ,.6.q.a.p.0.3.3.y.a.a.a.a.e.3.3.3.3.3.3.3.3.",
"3.3.3.3.3.3.3.3.3.3.3.3.3.3.3.3.3.0.p.a.a.a.a.a.a.i.i.                    o 3.3.3.3.3.3.3.3.y.0.3.3.3.3.y.p.p.p.p.0.3.3.3.3.3.3.3.",
"3.3.3.3.3.3.3.3.3.3.3.3.3.3.3.3.8.t.i.i.i.i.i.i.i.f.) ) r.a.a.a.a.a.e.e.e.e.e.8.8.8.3.3.3.3.3.3.3.3.3.3.3.3.3.3.3.3.3.3.3.3.3.3.3.",
"3.3.3.3.3.3.3.3.3.3.3.3.3.3.3.8.Y ) ) ) Y Y ) ) ) ) ) ) ) r.i.i.i.i.i.i.i.i.i.f.) ) 7.8.8.8.8.3.3.3.3.3.3.3.3.3.3.3.3.3.3.3.3.3.3.",
"8.3.3.3.3.3.3.3.3.3.3.3.8.8.8.Y ) ) Y Y 8.3.4.) ) ) ) ) ) ) ) ) ) ) ) ) ) ) ) ) ) ) ) ) ) ) ) 7.8.8.8.8.8.8.8.8.3.3.3.3.3.3.3.3.3.",
"Y 8.3.3.3.3.3.3.3.3.3.3.4.Y Y Y Y Y 8.3.3.3.3.4.Y Y ) ) ) ) ) ) ) ) ) ) ) ) ) ) ) ) ) ) ) ) ) ) ) ) ) ) Y Y Y Y 8.3.3.3.3.3.3.3.3.",
"3.3.3.3.3.3.3.3.3.3.3.3.3.3.3.3.3.3.3.3.3.3.3.3.3.3.4.) ) ) Y Y Y Y ) ) ) ) ) ) ) ) ) ) ) ) Y Y Y Y Y Y 8.3.3.3.3.3.3.3.3.3.3.3.3.",
"3.3.8.8.8.8.8.2.3.3.3.8.8.8.8.8.9.3.3.3.3.3.0.e.e.3.3.Y ) Y 8.3.3.3.4.) Y Y Y ) ) Y Y Y Y Y 8.3.3.3.3.3.3.3.3.3.3.3.3.3.3.3.3.3.3.",
"8.8.! Q Q ! ! 5.2.3.8.R Q Q Q Q 5.3.3.3.3.e.p.a.a.e.3.Y ) 8.3.3.3.3.3.4.8.3.3.4.4.8.3.3.3.3.3.3.3.3.3.3.3.3.3.3.3.3.3.3.3.3.3.3.8.",
"Q Q ~ ^ ^ ! ! ! 5.8.R Q ~ ~ ^ ^ ! 5.3.3.e.p.a.a.a.a.e.5.) 7.3.3.3.3.3.3.3.3.3.3.3.3.3.0.e.e.e.e.3.3.3.3.3.3.3.3.3.3.3.3.3.3.3.8.R ",
"E E i.a.a.s.^ ! Q Q Q ~ i.a.a.a.f.^ 5.3.p.a.a.a.k.a.a.a.g.4.8.3.3.3.3.3.3.3.0.e.e.e.e.p.a.a.a.a.e.3.3.3.3.8.8.8.8.8.2.3.8.8.8.R Q ",
"0.p.a.a.a.a.a.s.^ ! ~ i.a.a.a.a.a.a.s.9.p.a.a.a.k.a.a.a.a.e.3.3.3.3.3.0.e.e.p.a.a.a.a.a.a.a.a.p.0.3.3.3.8.R Q Q Q Q 5.8.R Q Q Q Q ",
"0.p.a.a.a.a.a.a.a.s.i.k.a.a.a.a.k.k.a.a.a.a.a.a.k.k.a.a.a.e.e.3.3.3.3.p.a.a.a.a.a.a.a.a.a.p.p.0.8.8.2.8.R Q ~ ^ ! Q Q Q Q ~ ^ ! Q ",
"y.a.a.a.a.a.a.a.a.a.a.a.a.a.a.a.k.k.a.a.a.a.a.k.a.a.a.a.a.a.a.e.3.3.3.y.p.p.p.p.p.p.p.p.p.0.3.8.R Q 5.R Q ~ i.a.s.! Q Q ~ i.a.s.^ ",
"3.y.a.a.p.p.p.a.a.a.k.k.a.a.p.p.p.p.a.a.a.a.a.i.i.a.a.a.a.a.a.e.e.e.3.3.3.3.3.3.3.3.3.3.3.3.3.E Q ~ ^ ! Q t.a.a.a.s.^ ^ i.a.a.a.a.",
"3.3.y.a.e.3.3.t.a.a.a.a.a.p.0.3.3.3.y.a.a.a.i.f.) r.a.a.a.a.a.a.a.a.e.3.3.3.3.3.3.3.3.0.e.8.8.R ~ i.a.s.^ i.a.a.a.a.a.a.a.a.a.a.a."
};
