/* XPM */
static const char *gold[] = {
/* columns rows colors chars-per-pixel */
"36 36 101 2 ",
"   c #141B2D",
".  c #1A1E2F",
"X  c #1E252A",
"o  c #282F2F",
"O  c #202331",
"+  c #292F30",
"@  c #2D2C32",
"#  c #2D2D33",
"$  c #2C2934",
"%  c #322F34",
"&  c #352F37",
"*  c #2F3530",
"=  c #3A3933",
"-  c #3D3837",
";  c #3D3439",
":  c #41373A",
">  c #413A38",
",  c #45393B",
"<  c #3B4033",
"1  c #474C33",
"2  c #484E3B",
"3  c #50463B",
"4  c #53423F",
"5  c #575638",
"6  c #5E5B39",
"7  c #60503F",
"8  c #626437",
"9  c #6F7236",
"0  c #78703E",
"q  c #7C773C",
"w  c #393F51",
"e  c #5F4E40",
"r  c #6C5A41",
"t  c #656746",
"y  c #746741",
"u  c #776442",
"i  c #7D6744",
"p  c #7C6048",
"a  c #6F7359",
"s  c #8A7047",
"d  c #8C7C43",
"f  c #9E7C4F",
"g  c #936951",
"h  c #956D50",
"j  c #9C7053",
"k  c #A37456",
"l  c #817F6E",
"z  c #7E8354",
"x  c #878B3B",
"c  c #9DA43A",
"v  c #A5A53F",
"b  c #AFB33F",
"n  c #988445",
"m  c #9D9142",
"M  c #9B9E54",
"N  c #A79846",
"B  c #B0994A",
"V  c #B98F53",
"C  c #BE9256",
"Z  c #BF9852",
"A  c #ACA143",
"S  c #B4A946",
"D  c #B4A549",
"F  c #BAAF49",
"G  c #8E8765",
"H  c #94996E",
"J  c #C09456",
"K  c #C99F55",
"L  c #C8B04F",
"P  c #CFBF48",
"I  c #C8A353",
"U  c #CEA953",
"Y  c #CEAA52",
"T  c #D2AF52",
"R  c #D5B551",
"E  c #CCC04A",
"W  c #CDC14A",
"Q  c #DCC44E",
"!  c #DDCF4B",
"~  c #DECF4B",
"^  c #DACA4C",
"/  c #DED949",
"(  c #DFE344",
")  c #E1E146",
"_  c #E3E047",
"`  c #E7E746",
"'  c #E6EA46",
"]  c #E8EB45",
"[  c #E9EB46",
"{  c #EDF54F",
"}  c #D1CC65",
"|  c #E3DA74",
" . c #EEF273",
".. c #A8AD82",
"X. c #A0A299",
"o. c #C6A98C",
"O. c #E4E683",
"+. c #F7F9A9",
"@. c #FEFFC8",
"#. c #F9F4EA",
"$. c None",
/* pixels */
"$.$.$.$.$.$.$.$.$.$.$.$.$.$.$.$.$.$.$.$.$.$.$.$.$.$.$.$.$.$.$.$.$.$.$.$.",
"$.$.$.$.$.$.$.$.$.$.$.$.$.$.$.$.$.$.$.$.$.$.$.$.$.$.$.$.$.$.$.$.$.$.$.$.",
"$.$.$.$.$.$.$.$.$.$.$.$.$.$.$.$.$.$.$.$.$.$.$.$.$.$.$.$.$.$.$.$.$.$.$.$.",
"$.$.$.$.$.$.$.$.$.$.$.$.$.$.$.$.$.$.$.$.$.$.$.$.$.$.$.$.$.$.$.$.$.$.$.$.",
"$.$.$.$.$.$.$.$.$.$.$.$.$.$.$.$.$.$.$.$.$.$.$.$.$.$.$.$.$.$.$.$.$.$.$.$.",
"$.$.$.$.$.$.$.$.$.$.$.$.$.$.$.$.$.$.$.$.$.$.$.$.$.$.$.$.$.$.$.$.$.$.$.$.",
"$.$.$.$.$.$.$.$.$.$.$.$.$.$.$.$.$.$.$.$.$.$.$.$.$.$.$.$.$.$.$.$.$.$.$.$.",
"$.$.$.$.$.$.$.$.$.$.$.$.$.$.$.$.$.$.$.$.$.$.$.$.$.$.$.$.$.$.$.$.$.$.$.$.",
"$.$.$.$.$.$.$.$.$.$.$.$.$.$.$.$.$.$.$.$.$.$.$.$.$.$.$.$.$.$.$.$.$.$.$.$.",
"$.$.$.$.$.$.$.$.$.$.$.$.$.$.$.$.$.$.$.$.$.$.$.$.$.$.$.$.$.$.$.$.$.$.$.$.",
"$.$.$.$.$.$.$.$.$.$.$.$.$.$.$.$.$.$.$.$.$.$.$.$.$.$.$.$.$.$.$.$.$.$.$.$.",
"$.$.$.$.$.$.$.$.$.$.$.$.$.$.$.$.$.$.$.$.$.$.$.$.$.$.$.$.$.$.$.$.$.$.$.$.",
"$.$.$.$.$.$.$.$.$.$.$.$.$.$.$.$.$.$.$.$.$.$.$.$.$.$.$.$.$.$.$.$.$.$.$.$.",
"$.$.$.$.$.$.$.$.$.$.$.$.$.$.$.$.$.$.$.$.$.$.$.$.$.$.$.$.$.$.$.$.$.$.$.$.",
"$.$.$.$.$.$.$.$.$.$.$.$.$.$.$.$.$.$.$.$.$.$.+ $.$.$.$.$.$.$.$.$.$.$.$.$.",
"$.$.$.$.$.$.$.$.$.$.$.$.$.$.$.$.$.$.$.$.$.$.9 v 8 $.$.$.$.$.$.$.$.$.$.$.",
"$.$.$.$.$.$.$.$.$.$.$.$.$.$.$.$.$.$.$.$.$.w l D d $.$.$.$.$.$.$.$.$.$.$.",
"$.$.$.$.$.$.$.$.$.$.$.$.$.$.$.$.$.$.* z H a X.t @ $.$.$.$.$.$.$.$.$.$.$.",
"$.$.$.$.$.$.$.$.$.$.$.$.$.$.$.$.$.o c +.#.O.q < $.$.$.$.$.$.$.$.$.$.$.$.",
"$.$.$.$.$.$.$.$.$.$.$.$.$.$.$.X = 0 x G o. .P 3 $.$.$.$.$.$.$.$.$.$.$.$.",
"$.$.$.$.$.$.$.$.$.$.$.$.$.$.2 ..} n - m E ' Q i $.$.$.$.$.$.$.$.$.$.$.$.",
"$.$.$.$.$.$.$.$.$.$.$.$.$.$.M @.| A 1 6 S ^ K p $.$.$.$.$.$.$.$.$.$.$.$.",
"$.$.$.$.$.$.$.$.$.$.$.$.$.% F { / f y 5 N C j , $.$.$.$.$.$.$.$.$.$.$.$.",
"$.$.$.$.$.$.$.$.$.$.$.$.$.$.B ` ) L E b ( I g & $.$.$.$.$.$.$.$.$.$.$.$.",
"$.$.$.$.$.$.$.$.$.$.$.$.$.$.y R ~ ) [ [ ~ J k ; $.$.$.$.$.$.$.$.$.$.$.$.",
"$.$.$.$.$.$.$.$.$.$.$.$.$.$.@ s Z Y T Y V h 4 . $.$.$.$.$.$.$.$.$.$.$.$.",
"$.$.$.$.$.$.$.$.$.$.$.$.$.$.$.O > 7 r e : $   $.$.$.$.$.$.$.$.$.$.$.$.$.",
"$.$.$.$.$.$.$.$.$.$.$.$.$.$.$.$.$.$.$.$.$.$.$.$.$.$.$.$.$.$.$.$.$.$.$.$.",
"$.$.$.$.$.$.$.$.$.$.$.$.$.$.$.$.$.$.$.$.$.$.$.$.$.$.$.$.$.$.$.$.$.$.$.$.",
"$.$.$.$.$.$.$.$.$.$.$.$.$.$.$.$.$.$.$.$.$.$.$.$.$.$.$.$.$.$.$.$.$.$.$.$.",
"$.$.$.$.$.$.$.$.$.$.$.$.$.$.$.$.$.$.$.$.$.$.$.$.$.$.$.$.$.$.$.$.$.$.$.$.",
"$.$.$.$.$.$.$.$.$.$.$.$.$.$.$.$.$.$.$.$.$.$.$.$.$.$.$.$.$.$.$.$.$.$.$.$.",
"$.$.$.$.$.$.$.$.$.$.$.$.$.$.$.$.$.$.$.$.$.$.$.$.$.$.$.$.$.$.$.$.$.$.$.$.",
"$.$.$.$.$.$.$.$.$.$.$.$.$.$.$.$.$.$.$.$.$.$.$.$.$.$.$.$.$.$.$.$.$.$.$.$.",
"$.$.$.$.$.$.$.$.$.$.$.$.$.$.$.$.$.$.$.$.$.$.$.$.$.$.$.$.$.$.$.$.$.$.$.$.",
"$.$.$.$.$.$.$.$.$.$.$.$.$.$.$.$.$.$.$.$.$.$.$.$.$.$.$.$.$.$.$.$.$.$.$.$."
};
