/* XPM */
static const char *Warrior[] = {
/* columns rows colors chars-per-pixel */
"36 36 197 2 ",
"   c #151B2D",
".  c #191E2F",
"X  c #171D30",
"o  c #181E31",
"O  c #1C2233",
"+  c #1D243A",
"@  c #1D2C3D",
"#  c #212533",
"$  c #262935",
"%  c #2A2B37",
"&  c #20273E",
"*  c #24293B",
"=  c #2B2C38",
"-  c #302F3A",
";  c #2C323D",
":  c #33343D",
">  c #3B3A3F",
",  c #3A373F",
"<  c #1D2F41",
"1  c #1D3042",
"2  c #222B43",
"3  c #282D41",
"4  c #223445",
"5  c #293242",
"6  c #24334B",
"7  c #29344F",
"8  c #293A49",
"9  c #363A41",
"0  c #3E3E43",
"q  c #2B3652",
"w  c #2E3B58",
"e  c #293A55",
"r  c #373F55",
"t  c #433E42",
"y  c #25414F",
"u  c #3D454F",
"i  c #294255",
"p  c #2C425B",
"a  c #2B4C5D",
"s  c #274656",
"d  c #324E5D",
"f  c #384669",
"g  c #364868",
"h  c #2C5564",
"j  c #2F5C6D",
"k  c #33576A",
"l  c #3F4C73",
"z  c #2D5D70",
"x  c #3D5375",
"c  c #375E77",
"v  c #3A5977",
"b  c #2C4A62",
"n  c #34636B",
"m  c #3A6D74",
"M  c #36687A",
"N  c #3A727B",
"B  c #444244",
"V  c #4B4446",
"C  c #4F4649",
"Z  c #4B4949",
"A  c #534D4A",
"S  c #58524C",
"D  c #4A4E5C",
"F  c #4D525F",
"G  c #565658",
"H  c #62584E",
"J  c #655B52",
"K  c #695B54",
"L  c #705E59",
"P  c #6C645B",
"I  c #686358",
"U  c #72615A",
"Y  c #77685A",
"T  c #404E74",
"R  c #4D5467",
"E  c #417B7E",
"W  c #716E62",
"Q  c #7C7767",
"!  c #6A6F6F",
"~  c #81725E",
"^  c #826D60",
"/  c #877660",
"(  c #897363",
")  c #867B67",
"_  c #917E66",
"`  c #977B6B",
"'  c #978569",
"]  c #958973",
"[  c #9B9679",
"{  c #8A856E",
"}  c #A0846F",
"|  c #A58D6E",
" . c #A8906F",
".. c #A68A71",
"X. c #AB9472",
"o. c #A39272",
"O. c #B99F76",
"+. c #B99C78",
"@. c #B39974",
"#. c #BAA279",
"$. c #C3A47C",
"%. c #C5A97D",
"&. c #CBAC7F",
"*. c #3F6482",
"=. c #3A6A83",
"-. c #377587",
";. c #3E738C",
":. c #3A7A8D",
">. c #3D7E91",
",. c #406D89",
"<. c #417F83",
"1. c #417B91",
"2. c #3D8296",
"3. c #3E8799",
"4. c #3E899A",
"5. c #46848C",
"6. c #488C8D",
"7. c #4A8D93",
"8. c #428B9A",
"9. c #418291",
"0. c #499498",
"q. c #539C9F",
"w. c #708F89",
"e. c #7A9D93",
"r. c #67A29E",
"t. c #4C9CA2",
"y. c #4898A1",
"u. c #4FA0A2",
"i. c #51A4A5",
"p. c #56ACA9",
"a. c #58A9A5",
"s. c #5AB3AD",
"d. c #62ADA7",
"f. c #9E9A85",
"g. c #8C928E",
"h. c #8CA997",
"j. c #A7A382",
"k. c #ADA383",
"l. c #B7AE8B",
"z. c #BEAC89",
"x. c #B9AA85",
"c. c #ADA397",
"v. c #BAB68E",
"b. c #83BEAB",
"n. c #A6A7A4",
"m. c #B8B6A5",
"M. c #BFBFBD",
"N. c #CFAF80",
"B. c #CFB383",
"V. c #CAB78A",
"C. c #D4B483",
"Z. c #D8B784",
"A. c #D7B886",
"S. c #D9B986",
"D. c #DABD89",
"F. c #D4B98F",
"G. c #CCBB95",
"H. c #DABD90",
"J. c #C0BEB5",
"K. c #C7BBA2",
"L. c #DDC28E",
"P. c #CCC497",
"I. c #DDC592",
"U. c #D5C699",
"Y. c #E0C58F",
"T. c #E0C692",
"R. c #E4CD99",
"E. c #E6D39D",
"W. c #CDC3A6",
"Q. c #D4D6AE",
"!. c #E9D6A4",
"~. c #E9DCA5",
"^. c #EEDEAC",
"/. c #E4DBAA",
"(. c #E9DEB3",
"). c #EFE1AC",
"_. c #F1E2AC",
"`. c #EFE3B7",
"'. c #EFE1BC",
"]. c #F1E3B5",
"[. c #F3E7B8",
"{. c #F4E8B8",
"}. c #DBD4C9",
"|. c #DAD7D0",
" X c #EBDCC0",
".X c #E1DED6",
"XX c #EFE1C4",
"oX c #F5EAC4",
"OX c #F3ECCB",
"+X c #F4E9C6",
"@X c #FBF5DB",
"#X c #EFE6D8",
"$X c #F1EEE4",
"%X c #FCF7E4",
"&X c #F3F2ED",
"*X c #FDFCF4",
"=X c None",
/* pixels */
"=X=X=X=X=X=X=X  @ j 4 o   =X=X=X=X=X=X=X=X=X=X=X=X=X=X=X=X=X=X=X=X=X=X=X",
"=X=X=X=X=X=X  @ h 0.7.5.n s @ =X=X=X=X=X=X=X=X=X=X=X=X=X=X=X=X=X=X=X=X=X",
"=X=X=X=X=Xo p :.y.i.s.t.i.p.7.h =X=X=X=X=X=X=X=X=X=X=X=X=X=X=X=X=X=X=X=X",
"=X=X=X=X  i :.3.y.s.s.s.i.i.s.i.h =X=X=X=X=X=X=X=X=X=X=X=X=X=X=X=X=X=X=X",
"=X=X=X=X2 v >.:.j n m q.s.u.7.p.6.1 =X=X=X=X=X=X=X=X=X=X=X=X=X=X=X=X=X=X",
"=X=X=X=X7 ;.:.i 2 & X @ E s.<.m p.n =X=X=X=X=X=X=X=X=X=X=X=X=X=X=X=X=X=X",
"=X=X=X=X2 *.>.*.T T w   O m p.h E N X =X=X=X=X=X=X=X=X=X=X=X=X=X=X=X=X=X",
"=X=X=X=Xo q v x l f q X   4 1.j M x + =X=X=X=X=X=X=X=X=X=X=X=X=X=X=X=X=X",
"=X=X=X=X=X  + & & +   =X=XO M i M 6 =X=X=X=X=X=X=X=X=X=X=X=X=X=X=X=X=X=X",
"=X=X=X=X=X=X=X=X=X=X=X# O + b 7 a . =X=X=X=X=X=X=X=X=X=X=X=X=X=X=X=X=X=X",
"=X=X=X=X=X=X=X=X=X. I ] G T r 5 D c.! * =X=X=X=X=X=X=X=X=X=X=X=X=X=XC.Z.",
"=X=X=X=X=X=X=X=X  % G c.}..X|.}.}.XXf.0 O =X=X=X=X=X=X=X=X=X=X=X=XH.G.~ ",
"=X=X=X=X=X=X=X  O Y ( x._.].].'.XX+X/.B.J =X=X=X=X=X=X=X=X=X=X=XF.#Xn.  ",
"=X=X=X=X=X=X=X  t ` $.T.).].+XOX%X&X.X^.x.: =X=X=X=X=X=X=X=X=XG #X*Xf.  ",
"=X=X=X=X=X=X=X. L } N.D.E.^.).).{.m.S I.^.I =X=X=X=X=X=X=X=X%.W.*X'.[   ",
"=X=X=X=X=X=X  $ U X.C.C.S.R.~.).%XM.O _ ].) O =X=X=X=X=X=X=Xg.@X XI.{   ",
"=X=X=X=X=X=X  , ` +.A.C.A.A.T._.@XJ.X A I.W.: =X=X=X=X=X=X# m.`.D.#.: =X",
"  > # =X=X=X  : ( +.C.B.#.#.V.U.(.g.  # Y Q O =X=X=X=X=X=XI ~.L.C.S =X=X",
"  A / C =X=X  o C ` $.&.' A : ; 5 O       : $   =X=X=X=X; v.P.Z.' # =X=X",
"O < A | A       H ..&.C.L.G.k.W P G O   H U.Q   =X=X=X  Q j.~ &.V =X=X=X",
"1 -.z G ' K -   % ^ } +.C.A.R._.oX$XD % z.oXl.O =X=X=X9 P.Q X._ o =X=X=X",
"1 >.4.>.! ..| ~ S B U _ C.C.A.!.).OXF H !.[.] O @ =X  ) k.U O.> =X=X=X=X",
"1 >.8.4.e.@.U J Q [ j.= ' A.C.R.).`.n.K._.U.B y 6.y t X.B X.Y   =X=X=X=X",
"1 >.8.y.h.Y.B.O.Y B X.$ = S _ L._.[.@XoXI.P 4 N a i _ U V } : =X=X=X=X=X",
"< >.3.0.b./.I.A.&.Z o.$ o   . B ] G.(.U.P q i t.M 5 J : ^ C   =X=X=X=X=X",
"; w.7.4.a.P.E.D.N.K ' $ p g 7 + o $ S 9 q x e a -.=.e $ t 3 6 < =X=X=X=X",
", %.z.h.r.V.D.A.C._ | $ k 1.*.x g 2 o q *.*.6 = B a k f 7 + w 4 =X=X=X=X",
": O.D.~.Q.h.x.C.&.} @.$ g 2.3.>.,.x l *.;.e o L .._ : 2 w q +   =X=X=X=X",
"  / S.I.Q.d.q.e.f.K  .$ g 1.3.4.4.>.>.;.i X   U &.S.@.t   & O =X=X=X=X=X",
"=XB %.S.V.r.t.8.9.8 ( $ q f x c c c j 4       : ^ | | ,   =X=X=X=X=X=X=X",
"=X  S $.Z.g.3.3.>.u K O X o o o o o     =X=X+ q O O O   =X=X=X=X=X=X=X=X",
"=X=X=XV O.l.8.2.k A $       =X=X      =X=X=Xo 6 O =X=X=X=X=X=X=X=X=X=X=X",
"=X=X=X=Xt ] 5.d = # =X      =X=X      =X=X=X=X=X=X=X=X=X=X=X=X=X=X=X=X=X",
"=X=X=X=X=X; 8 V = =X=X      =X        =X=X=X=X=X=X=X=X=X=X=X=X=X=X=X=X=X",
"=X=X=X=X=X=X  O =X=X=X=X=X=X=X=X=X=X=X=X=X=X=X=X=X=X=X=X=X=X=X=X=X=X=X=X",
"=X=X=X=X=X=X=X=X=X=X=X=X=X=X=X=X=X=X=X=X=X=X=X=X=X=X=X=X=X=X=X=X=X=X=X=X"
};
