/* XPM */
static const char *player[] = {
/* columns rows colors chars-per-pixel */
"65 65 231 2 ",
"   c #161C2E",
".  c #181F2F",
"X  c #181E31",
"o  c #1A212F",
"O  c #1C2333",
"+  c #1F2932",
"@  c #1D253A",
"#  c #1D2B3B",
"$  c #222633",
"%  c #242B34",
"&  c #292D35",
"*  c #21273B",
"=  c #232B3B",
"-  c #2C2D39",
";  c #312F3A",
":  c #2C3434",
">  c #2C3239",
",  c #293638",
"<  c #35343C",
"1  c #353A39",
"2  c #3B3C3C",
"3  c #2F403B",
"4  c #34443B",
"5  c #3C433A",
"6  c #3B4A39",
"7  c #454B3C",
"8  c #49543B",
"9  c #4B5B3B",
"0  c #54593F",
"q  c #55663D",
"w  c #56693E",
"e  c #61743F",
"r  c #1E3244",
"t  c #232C44",
"y  c #252E48",
"u  c #263648",
"i  c #25344B",
"p  c #373B46",
"a  c #3B3D43",
"s  c #2A3551",
"d  c #2B3C55",
"f  c #323D5D",
"g  c #333F60",
"h  c #423E42",
"j  c #2C4146",
"k  c #374746",
"l  c #3A4C42",
"z  c #3B5244",
"x  c #264556",
"c  c #2A485A",
"v  c #304E5A",
"b  c #375858",
"n  c #2C4B62",
"m  c #374769",
"M  c #2E5866",
"N  c #32596B",
"B  c #3E4D73",
"V  c #2E5E70",
"C  c #3B5978",
"Z  c #35656D",
"A  c #37677A",
"S  c #3D757B",
"D  c #474747",
"F  c #494445",
"G  c #554D4A",
"H  c #554C4B",
"J  c #435C46",
"K  c #47564B",
"L  c #565549",
"P  c #5C534D",
"I  c #505152",
"U  c #595854",
"Y  c #645653",
"T  c #645950",
"R  c #675B53",
"E  c #4B674B",
"W  c #596743",
"Q  c #57754C",
"!  c #506658",
"~  c #567556",
"^  c #5B7E52",
"/  c #657943",
"(  c #777A47",
")  c #686156",
"_  c #746559",
"`  c #7B6B5B",
"'  c #6C7151",
"]  c #4B556F",
"[  c #4F7469",
"{  c #69696B",
"}  c #6E756B",
"|  c #7A7666",
" . c #807554",
".. c #82735D",
"X. c #897864",
"o. c #827168",
"O. c #967C69",
"+. c #5E8154",
"@. c #6B8243",
"#. c #6A8549",
"$. c #738747",
"%. c #728A46",
"&. c #7C9448",
"*. c #648856",
"=. c #6B945B",
"-. c #6B955C",
";. c #719A5B",
":. c #78A35D",
">. c #7FAB5F",
",. c #5C836C",
"<. c #668A6C",
"1. c #6E966F",
"2. c #638C71",
"3. c #679175",
"4. c #6A9274",
"5. c #749771",
"6. c #779870",
"7. c #76A463",
"8. c #78A762",
"9. c #79A863",
"0. c #72A069",
"q. c #84864C",
"w. c #8A8A4E",
"e. c #87944A",
"r. c #839D4A",
"t. c #92954F",
"y. c #999851",
"u. c #A29F56",
"i. c #8AA44A",
"p. c #8AA84C",
"a. c #92AD4B",
"s. c #95B34C",
"d. c #99B64E",
"f. c #9BB94E",
"g. c #84AD5B",
"h. c #89AA58",
"j. c #9AA456",
"k. c #8FB255",
"l. c #94B452",
"z. c #9CB653",
"x. c #A0B94F",
"c. c #A7A554",
"v. c #ACAC55",
"b. c #B1AD57",
"n. c #A2B951",
"m. c #ABB45C",
"M. c #B4B657",
"N. c #B2B956",
"B. c #B2B55C",
"V. c #BAB559",
"C. c #BDBA5A",
"Z. c #978669",
"A. c #9B836A",
"S. c #849E6C",
"D. c #8D8772",
"F. c #99937A",
"G. c #A2896D",
"H. c #A8916F",
"J. c #A78B71",
"K. c #A99675",
"L. c #B49A75",
"P. c #B69A76",
"I. c #84AA61",
"U. c #B9A179",
"Y. c #BDA379",
"T. c #C1BA5D",
"R. c #C3A57B",
"E. c #C4AC78",
"W. c #CAAC7E",
"Q. c #C9B870",
"!. c #3E6482",
"~. c #3B6C85",
"^. c #3A6E85",
"/. c #3B7582",
"(. c #3C748B",
"). c #3A7A8C",
"_. c #3D7C91",
"`. c #447E86",
"'. c #3F828D",
"]. c #3E8395",
"[. c #3E8698",
"{. c #3E8899",
"}. c #4F8F91",
"|. c #448B98",
" X c #4A969B",
".X c #7A908C",
"XX c #679594",
"oX c #4B9CA1",
"OX c #4FA1A3",
"+X c #52A4A3",
"@X c #55ABA7",
"#X c #59B1AB",
"$X c #61ACA3",
"%X c #929390",
"&X c #A89E85",
"*X c #96AB94",
"=X c #B6AA86",
"-X c #B2AB8A",
";X c #8FB2A8",
":X c #ABABAF",
">X c #C7AD81",
",X c #CEB182",
"<X c #C6B68A",
"1X c #D4B483",
"2X c #D7BB89",
"3X c #C6BB94",
"4X c #D4BF91",
"5X c #CBBCA8",
"6X c #ABC8A7",
"7X c #DBC28E",
"8X c #CBC498",
"9X c #DCC896",
"0X c #E1CC98",
"qX c #E4D29C",
"wX c #D2CBAE",
"eX c #E1CAA1",
"rX c #E3D4A4",
"tX c #E8DAA7",
"yX c #EDDEA9",
"uX c #E8DAB4",
"iX c #EFE1AB",
"pX c #F0E3AF",
"aX c #EDE2B6",
"sX c #F1E5B8",
"dX c #D4D3CC",
"fX c #E6DECA",
"gX c #F3E9C5",
"hX c #EFE8D4",
"jX c #F3EBD4",
"kX c #F9F5E7",
"lX c #F4F3EE",
/* pixels */
"C.C.C.C.C.B.B.B.B.C.C.C.C.V.x.f.f.f.N.C.C.C.B.I.9.m.V.C.C.C.C.C.C.C.n.f.f.f.f.f.f.f.f.x.n.l.l.1.5.B.C.S.6.B.C.C.C.C.C.C.C.C.C.C.C.",
"V.C.C.C.B.I.9.9.9.m.M.V.C.n.f.f.f.f.f.N.B.B.I.9.9.9.B.C.C.C.C.C.V.V.V.x.f.f.f.f.f.x.n.V.C.S.6.6.B.C.C.C.C.V.V.V.C.C.C.C.C.V.V.V.V.",
"l.m.B.B.I.9.9.9.9.9.l.f.N.x.f.f.f.l.l.l.>.9.9.9.9.9.m.V.V.V.M.V.x.f.f.f.f.f.f.x.n.V.C.C.C.C.C.C.C.C.C.C.V.x.f.f.N.C.C.C.V.x.f.l.l.",
"9.9.9.9.9.9.9.9.9.>.l.f.f.f.f.f.l.:.-.=.=.=.*.*.;.7.k.f.f.f.f.f.f.f.f.f.f.f.x.V.C.V.V.V.C.C.C.C.C.C.V.V.x.f.f.f.f.V.C.C.n.f.l.>.9.",
"9.9.9.9.9.9.9.9.9.k.l.l.l.f.f.a.=.Q l j M v i , J E *.p.s.f.f.f.f.f.f.f.x.n.V.C.V.x.f.f.N.C.C.C.V.V.x.f.f.f.f.f.f.N.V.C.n.f.>.9.9.",
"9.9.9.9.9.9.9.9.9.9.9.9.9.k.p.Q 4 % @ x ).).M x x j k E #.i.s.f.f.f.f.f.N.V.V.V.x.f.f.f.f.N.V.V.x.f.f.f.f.f.f.f.f.f.f.N.z.l.>.9.9.",
">.>.>.9.9.9.9.9.9.9.9.9.8.=.E , @ r c A |.+XoX X X/.Z b k E / p.f.f.f.f.f.f.f.f.f.f.f.f.f.f.f.f.f.f.f.f.f.f.l.l.l.l.l.l.>.9.9.9.>.",
"l.f.f.g.9.9.>.>.>.9.9.8.=.J = t n A ]. XoX@X#X+X X X+XoX|.S b W i.f.f.f.f.f.l.l.l.f.f.f.f.f.f.f.f.f.f.f.f.f.g.>.>.9.9.9.9.9.9.>.l.",
"f.f.f.f.>.>.l.f.f.g.>.-.z + # n (.].|.OX@X#X#X@XOX+X@X#X#X@X}.b E r.d.f.f.l.>.9.9.k.f.f.f.f.f.f.f.f.f.f.f.f.f.f.f.g.>.>.9.9.9.l.f.",
"f.f.f.f.g.l.f.f.f.f.s.Q % # M ).].[.{.oX#X#X#X#X#X+XoX+X#X#X@X'.M J &.d.l.>.9.9.9.9.l.f.f.f.f.f.f.f.f.f.f.f.x.n.f.f.f.f.g.>.>.l.f.",
"n.f.f.f.f.f.f.f.f.f.p.6 @ d C (.].[.].|. X+X+X#X#X@XOX XoX#X#X+XS i w p.>.9.9.9.9.9.l.f.f.f.f.f.f.f.f.f.f.x.V.C.n.f.f.f.f.x.n.n.n.",
"C.n.n.f.f.f.f.f.f.f.i.6 @ m !._._.A c r # # i Z }.@X#X@X|.S +X#X XM k +.8.9.9.9.9.9.k.l.l.f.f.f.f.f.f.x.n.V.C.C.C.n.n.n.n.V.C.C.C.",
"B.B.B.z.f.f.l.l.l.l.i.4 y C (._.A i @ @ @ @ . X i S +X#X XM Z OX@X|.v Q ;.8.9.9.9.9.9.9.9.k.l.l.l.l.f.V.C.C.C.C.C.C.C.C.C.C.C.C.B.",
"I.9.9.9.k.l.>.9.9.9.-.4 t C _._.^.B m m m f t X . t Z  X@X}.c N  X Xv z =.8.9.9.9.9.9.9.9.9.9.9.>.>.m.V.V.C.C.C.C.C.C.C.C.C.C.B.I.",
">.>.>.9.9.9.9.9.8.8.;.z # n C (.(.!.B ] ] B f @ . . # V  X+XZ i S |.c k *.8.9.9.9.9.9.9.9.>.>.>.l.f.f.f.f.N.C.T.C.C.C.C.V.B.B.I.>.",
"l.f.f.g.>.>.>.9.9.9.8.+., t m C !.C ] ] B m d = + O X i ^. XA c /.^.c l =.7.7.7.7.8.9.9.>.l.f.f.f.f.x.n.n.n.V.T.C.C.C.V.x.g.>.>.l.",
"f.f.l.l.l.l.l.>.9.9.9.;.E , t s c n f g d y = j ! z + @ N (.n n A C d W r.1.3.3.3.0.7.8.l.f.f.f.x.n.V.C.C.C.C.C.C.C.T.n.f.f.f.f.f.",
"f.f.g.>.9.9.9.9.9.9.9.9.;.Q 3 % # @ @ @ @ $ l [ 2.[ , @ M ^.i c A d 1 #.1.5.5.6.4.3.3.0.l.f.f.x.V.C.C.C.C.C.C.C.C.C.V.x.f.f.f.f.f.",
"f.f.f.f.g.>.9.9.9.9.9.9.9.7.=.*.E 4 j p k [ ~ ~ ! z + O n N d V V t j ! 1.B.C.C.S.4.3.3.h.z.n.V.V.V.V.V.V.C.C.C.C.C.n.f.f.f.f.f.f.",
"f.f.f.f.f.f.g.>.>.>.9.9.9.9.8.8.7.<.2.2.} K 5 & 2 < O t n i X d i + $ & 0 t.V.C.C.S.6.6.6.B.V.V.x.f.f.f.f.N.C.C.C.C.n.f.x.n.B.n.f.",
"f.f.f.f.f.f.f.f.f.f.>.9.9.9.9.7.7.4.3.} 7 - R X.o.H y f s O . O a F.&X{ k 1 q.V.C.C.C.C.C.C.n.f.f.f.f.f.f.f.N.V.C.C.C.n.C.Q.W.m.f.",
"l.f.f.f.f.f.f.f.f.f.g.I.I.I.I.6.6.2.~ 5 o < F.5X5X:X:X:X:X%X%X%X:XfXhX:X{ $ : ( V.C.C.C.C.C.n.x.n.n.f.f.f.f.f.f.N.C.C.T.Q.2X,XB.f.",
">.l.f.f.f.f.f.f.f.f.x.V.V.V.C.C.V.^ 7 + < < D { -XfXkXkXkXjXhXhXhXuXeXF.) H < 7 y.C.C.C.C.C.n.V.C.C.n.f.f.f.f.f.f.M.T.Q.9XwX%Xc.x.",
"f.f.f.f.f.f.f.f.f.f.V.V.x.f.N.C.v.' & % R ` _ X.=XtXaXsXpXtXtXuXuXaXuXrX4XR.` > ( V.C.C.C.C.C.C.C.C.C.n.f.f.x.n.a.j.Q.9XhXdX{ &.f.",
"f.f.f.f.f.f.f.f.f.f.N.x.f.f.f.N.y.7 o 2 ..O.L.2XqXyXiXsXgXgXjXkXkXlXkXjXuX0XY.P L c.T.T.T.T.C.C.C.C.C.n.f.f.V.V.( ` eXjXlXdXU &.f.",
"n.n.n.f.f.f.f.f.f.f.f.f.f.f.f.a./ : % Y O.J.W.1X9XtXiXaXsXgXgXjXkXkXfXdXfXyX0XZ.F ( M.T.T.T.C.C.C.C.C.n.x.V.T.b.L o.hXlXkXwXU &.n.",
"V.V.V.x.f.f.f.f.f.f.f.f.f.f.f.a.q $ h o.O.H.,X1X9XtXyXyXiXiXiXiXsXfX%X{ =XrXyX7X) 7 y.C.C.V.V.V.C.C.C.C.C.C.T.E.H.wXlXlXgX8XU t.V.",
"l.l.f.f.f.f.f.f.f.f.f.f.f.f.f.i.8 o a ` O.L.1X1X2X7X0XtXiXiXiXiXsXuX| < _ 2XuXuX| & W v.V.x.f.f.N.V.V.V.V.v.u.>XuXjXlXuX9X3XU %.l.",
"9.9.k.f.l.l.l.l.f.f.f.f.f.f.d.$.: % F ` G.W.1X1X1X2X7XqXyXiXiXgXkXlX.X* h K.uXaX| & 9 i.f.f.f.f.f.f.f.f.f.&.8 %XjXjXhX9X9X=XU *.9.",
"9.9.9.k.>.8.8.8.k.d.f.f.x.n.M. .& 2 ` O.G.W.1X1X1X1X1X2X2X0XyXjXkXjX.X$ O ` 2XtX3X| W i.f.f.f.f.f.f.f.f.i.9 a :XkXuX4X2X<X| l *.9.",
"9.9.9.9.8.=.Q E Q i.f.n.V.C.c.W $ 2 ` O.L.,X1X1X1X1X1X1X2XqXiXaXgXfX| $ . L L.eXwX{ 5 %.s.f.f.f.f.f.f.s.@.5 } wXaX9X1X,XD.2 J ;.9.",
"9.9.9.9.;.J % > 1 L t.m.C.V.y.2   < _ O.L.,X1X1X1XW.W.W.,X9XrXtXfXdX{ O   % ` K.F.D % W a.f.f.f.f.f.d.r.9 I -XtXqX2X1XL.H 4 *.>.9.",
"g.9.9.9.-.4 $ L R D J *.j.m.y.2   & F R O.L.R.,XY.Z...` ` X.D.D.%X{ i .   X % > > O + w p.f.l.l.f.f.a./ 5 | 9XqX7X1XW...5 e a.f.g.",
"f.>.9.>.i.6 o 2 ` O._ D J =.t.8 O . - Y X.J.R.,XR.H.| I > % O O X X     X . . O D I = 4 &.s.>.9.k.s.r.6 U -X8X<X1X1XG.D 7 &.d.f.f.",
"f.g.>.l.i.6 O + < ` H...2 6 q 8 % . 2 ` O.L.1X1X1X2X4X-XF.| D p a p = X     - _ -X-XI , ^ 8.9.9.9.p.W k D.-X| Z.1XR.) 1 / s.f.f.f.",
"f.f.f.f.i.6 i n d i _ L.Z.F % % .   % Y O.L.L.L.R.1X2X7X9X9X3X3X5X5X%Xp . O R >XtXrXD.k ^ 7.9.9.>.*.4 U -XK.U Z.1XZ.2 9 i.f.f.f.f.",
"l.l.d.f.i.7 x (.).A v ) H.Z._ 2 X     < _ O.O.G.R.1X1X1X2XqXiXiXgXkXdX] O < J.uXjXaXF.D *.>.>.>.p.9 k K.8XX._ R.L.H 1 #.k.d.f.l.l.",
"3.3.h.d.i.7 x ).].].).[ U ..A.O.` F $   - _ O.J.W.1X1X1X1X7XtXiXiXsXwX] $ _ 4XgXgXrXD.5 q @.r.f.@.: ) 3X=XY ..R.X.& b 2.3.h.l.1.3.",
"6.6.6.z.c.7 x ).].].].|.}.F.L.L.U.L.A.X.F a H H ` Y.1X1X1X1X0XyXiXsXdX] - X.0XyXyX<XP + # = 4 q w 7 Z.=X` _ L.L.F , } 6.4.3.3.5.6.",
"C.C.C.C.c.7 x ).[.].{.{.XX=XZ.R F L X.Z.K.3X-XI & ..W.1X1X1X9XyXiXpXwX%X%X4XtXiXrXF.< r S }.Z # & ` L._ F Z.Y._ : ( V.C.S.6.6.B.C.",
"C.C.C.C.c.7 x ).[.|. XoX.X,X,XL.Z.` H a I D.=XP O F X.H.Y.,X9XyXiXiXgXkXkXgXtXqX=XH # c Z /./.r F H.Z.a H H.Z.F 8 c.C.C.C.C.C.C.C.",
"C.C.C.C.c.7 x ).[.|. XoX;X9X9X2X1XW.L.` & U U.H . O - 2 P O.>XrXiXiXgXjXgXaX0XL.P = c `.V x x i ..L.P < _ A.R 2 q.V.B.B.B.C.C.C.C.",
"C.B.B.B.j.7 x ).[.].|.oX;XwXtX9X2X1X1XL.F U U.H         . & H D.=X9XuXgXsXtX&XI s y v  X XN r < .._ < H o.Y < 7 y.B.I.9.9.m.B.C.C.",
"B.I.9.9.-.k x ).[.[.[. X$X6XqX9X7X1X1XY.H P L.H X t y @ @ . . & D ) D.-X-X| D i m d d S |.].V i p % - Y _ h + & E ;.>.>.9.9.9.m.B.",
"9.9.9.9.-.l I .XXX|.|.|.+X*X9XqXqX7X1XW.` R L.H @ d B m g s t @ . o % k a % y m C m s i M ^.).^.n t * - ; t s i j 9 r.f.g.>.>.>.9.",
"g.>.>.>.-.l P U.=X*XXX X|.*X7X7X7X2X1X,XX._ L.H @ c ^.^.C B m g s @ X . X y m ^.^.B y O + i c A ^.C f y @ @ s N N = e s.f.f.f.f.g.",
"l.l.l.l.-.l P R.1X2X8X6X$X*X1X1X1X1X1XW.G.G.L.H O c (.].].(.!.C B m s t s m !.).A f @ < Y Y a = i n m m d @ X @ # : @.d.f.f.f.f.l.",
">.9.9.9.=.l P U.1X7XqXiXwX*X%X=X1X1X1XW.G.H.L.H O d ^.].[.[.].(.!.C B B B !.(.A d @ $ H O.J.H.` & X t d f d s * & / s.l.l.l.l.l.>.",
">.>.>.>.;.6 < X.W.2X7XqXtX;X XXX%X-X<XU._ A.L.H @ c (.].].[.[.].].(.!.!.^.(.^.c @   $ P A.R.1X,XO.F % X = s s @ 9 p.f.g.>.>.>.>.>.",
"f.f.f.f.a./ 1 _ R.1X2X9XrX;X@X+X XXX.XD.D _ L.H O d C ^._.].].].].].].]._.A d @ . o + H O.R.1X1X1XH.F O & 1 2 7 e.f.f.f.f.f.f.f.f.",
"f.f.f.f.d.r.8 F G.W.1X1X2X*X+XOX X X|.`.i F A.H O s m B C !.^.^.^.^.^.A N d @ o 1 4 % - Y A.L.Y.R.Z.h : / t.t.y.v.x.f.f.f.f.f.f.f.",
"f.f.f.f.f.s.@.5 R H.1X1X1X&XXX X|.{.[.).i h o.F X @ y i i i i i i i i t @ + : 9 @.9 % @ & h F P P 2 & q p.f.f.f.f.f.f.f.f.f.f.f.f.",
"f.f.f.f.f.f.p./ 5 H G.,X1X>X.X|.[.[.[.(.k P Y - . . . O + $ & & O .   . : W q.;.=.l t d s + + & & 6 e r.s.f.f.f.f.f.f.f.f.f.f.f.f.",
"l.f.f.f.f.f.f.a.@.6 D Z.,X,X&X}.[.[.).M U P - . . . . 1 E Q Q J : . . + J -.8.9.-.k @ s s * z #.%.&.a.l.l.l.l.l.f.f.f.f.f.f.f.f.f.",
">.l.f.f.f.f.f.f.s.&.6 < X.W.-XXX[./.c p F & 1 4 + . . 4 Q +.^ z O . . , Q =.=.;.;.E : + + 4 +.8.8.8.9.9.>.>.>.>.l.f.f.f.f.f.f.f.f.",
"f.f.f.f.f.f.f.f.f.d.&.6 > ` &XXX^.x = % $ 5 / @.8 + . % J ^ ^ 4 o . : J ~ ^ ^ +.*.+.^ +.*.=.:.>.>.>.>.>.l.f.f.f.f.f.f.f.f.f.f.f.f.",
"f.f.l.l.l.l.l.d.f.f.f.r.8 > I Z x H H % 6 / @.q 1 o . O z ^ W : . o , z Q ^ +.^ ^ ^ *.=.:.>.l.f.f.f.f.f.f.f.f.f.f.f.f.f.f.f.f.f.f.",
"l.l.1.3.3.3.4.h.d.f.l.1.,.z = # = F F 9 @.%.W 5 1 : : , J @.w 1 : : : 1 9 @.%.*.+.%.%.%.r.s.f.f.f.f.f.f.f.f.f.f.f.f.f.f.f.f.f.f.l.",
"3.3.5.6.6.4.3.3.h.l.1.3.5.<.! & O > 9 @.%.q.q.(  .q.$.^ ^ #.@.@.@.@.@.@.@.%.%.%.%.%.%.%.e.d.n.x.f.f.f.f.f.f.f.f.f.f.f.f.f.f.f.l.1.",
"1.6.B.C.C.S.6.4.3.3.3.5.B.C.v.( l K / %.q.w.w.w.w.w.w.w.*.+.%.%.%.%.%.%.%.%.%.%.%.%.%.w.u.V.C.C.n.f.f.f.f.l.l.l.l.l.d.f.l.l.l.1.3.",
"x.V.C.C.C.C.C.S.6.4.5.B.C.C.C.M.u.t.^ $.q.w.w.w.w.w.w.w.w.%.%.%.%.%.%.%.%.%.q.w.w.w.t.u.M.C.C.V.x.f.f.f.l.1.3.3.3.3.h.l.1.3.3.3.3.",
"x.V.C.C.C.C.C.C.C.S.B.C.C.C.C.C.V.M.v.y.y.w.w.w.w.w.w.w.w.$.%.%.%.%.%.q.w.w.w.t.y.u.v.V.C.V.V.x.l.l.d.l.1.3.5.6.4.3.3.3.3.5.6.4.3.",
"N.C.C.C.C.C.C.C.C.C.C.C.C.T.C.C.C.C.C.V.M.b.b.b.b.b.b.b.b.b.b.a.a.a.a.c.v.v.v.v.M.M.M.V.V.x.f.l.1.3.h.1.3.5.B.C.S.4.3.3.5.B.C.S.6.",
"f.N.C.C.V.V.V.C.T.T.C.C.C.T.V.V.V.V.C.C.C.C.C.B.B.C.C.C.C.C.C.n.n.n.f.f.f.f.f.f.f.f.f.f.f.f.f.1.3.5.6.4.3.m.C.C.C.S.6.6.B.C.C.C.C.",
"f.f.N.C.n.f.f.m.C.C.C.C.C.V.x.f.f.f.N.C.C.C.B.I.9.m.C.C.C.C.C.C.C.C.n.f.f.f.f.f.f.f.f.x.n.l.l.1.5.B.C.S.6.B.C.C.C.C.C.C.C.C.C.C.C."
};
