/* XPM */
static const char *wall[] = {
/* columns rows colors chars-per-pixel */
"65 65 6 1 ",
"  c #161C2E",
". c #506A69",
"X c #669D9D",
"o c #D0DEB5",
"O c #8CC3C4",
"+ c None",
/* pixels */
"OOOOOOOOXXXXXXX......OOOOOOOOOOXXXXX.X..OOOOOOOOOOOOOOOOOOOOOOOOO",
"OOOOOOOOOOOOO.......OOOOOOOOOOOOXXXX.. ..OOOOOOOOOOOOOOOOOOOOOOOO",
"OOOOOOOOOOOXX....ooXOOOOOOOOOOOOXX....  .ooOOOOOOOOOOOOOOOOOOOOOO",
"OOOOOOOOOOOOOX...oooOOOOOOOOOOO.....     oooOOOOOOOOOOOOOOOOOOOOO",
"OOOOOOoooo...XoooXooooooooooooX.....     ooooOOOOOOOOOOOOOOOOOOOO",
"OOOOOoooooX..  XXXooooooXXXXXXXXXX...    ooooooOOOOOOOOOOOOOOOOOO",
"oooooooooo .. ..OOXXXXXXXXXXXXXXXXX...    oooooooooOOOOOOOOOOOOoo",
"oooooooo     .OOOOOOOOOXXXXXXXXXXXX...      oooXXXXXOOOOooooooooo",
"oooooo       .OOOOOOOOOXXXXXXXXXXXXX...  ..    XXXXXXXXXXXXXooooo",
"XXXXXXXXXX.  .OOOOOOOXXXXXXXXXXXXXXX...  .......XXXXXXXXXXXXXXXOO",
"XXXXXXX....  .XXOOXXXXXXXXXXXXXXXXXX... ......XXXXXXXXXXXXXXXXOOO",
"XXXXXXXX...  XXXXXXXXXXXXXXXXXXXXXXXX.. .....XXXXXXXXXXXXXXXXXXXX",
"XXXXXXXXX..  XXXXXXXXXXXXXXXXXXXXXXXX....XXXXXXXXXXXXXXXXXXXXXXXX",
"XXXXXXXXX....XXXXXXXXXXXXXXXXXXXXXXXX....XXXXXXXXXXXXXXXXXXXXXXXX",
"XXXXXXXXX....XXXXXXXXXXXXXXXXXXXXXXXX.....XXXXXXXXXXXXXXXXXXXXXXX",
"XXXXXXXXX....XXXXXXXXXXXXXXXXXXXXXXXX........XXXXXXXXXXXXXXXXXXXX",
"XXXXXXXXXX.....XXXXXXXXXXXXXXXXXXXXXX.....XXXXXXXXXXXXXXXXXXXXXXX",
"XXXXXXXXXX......XXXXXXXXXXXXXXXXXXXXX.....XXXXXXXXXXXXXXXXXXXXXXX",
"XXXXXXXXX.........XXXXXXXXXXXXXXXXXXXX....XXXXXXXXXXXXXXXXXXXXXXX",
"XXXXXXX..............XXXXXXXXXXXXXXXXX.....XXXXXXXXXXXXXXXXXXXXXX",
"XXXXXX.......OOO.......XXXXXXXXXXXXXXX.....XXXXXXXXXXXXXXXXXXXXXX",
"XXXXXXXXX....OOOOOOOOOOXXXXXXXXXXXXXXX......XXXXXXXXXXXXXXXXXXXXX",
"XXXXXXXXX....XOOOOOOOOOOOOXXXXXXXXXXX..XXX....XXXXXXXXXXXXXXXXXXX",
"XXXXXXXXX......OOOOOOOOOXXXXXXXXXXXXX...XXXXO............XXXXXXXX",
"XXXXXXXXX......XOOOOXXXXXXXXXXXXXXXXX.  .XXXOOOOOOO....XXXXXXXXXX",
"XXXXXXXXX... ...XXXXXXXXXXXXXXXXXXXX.   ..OOOOOOOOOOOOOXXXXXXXXXX",
"XXXXXXXXXX.. ...XXXXXXXXXXXXXXXXXXX..   ...OOOOOOOOOOXXXXXXXXXXXX",
"XXXX..XXXX..  ...XXXXXXXXXXXXXXXXXX..  .....XXXXXXXXXXXXXXXXXXXXX",
"XXX...XXXX..  ...XXXXXXXXXXXXXXX.....  ....XXXXXXXXXXXXXXXXXXXXXX",
"XX....XXXX..    ..XXXXXXXXXXXXX......   ...XXXXXXXXXXXXXXXXXXXXXX",
"....OOXXX...   XX....XXXXXXX.......OOO  .....XXXXXXXXXXXXXXXXXXXX",
"..OOOOXXX...   XXXOOOOOOOOOOOOOOOOOOOO   .......XXXXXXXXXXXXXXXXX",
"X.OOOXXXX..     oooOOOOOOOOOOOOOOOOooo   ...XXXXXXXXXXXXXXXXXXXXX",
"XXXXXXXX..      oooooooOOOOOOOOOoooooo   ...XXXXXXXXXXXXXXXXXXXXX",
"XXXXXXXX.        oooooooooooooOOoooooX    .....XXXXXXXXXXXXXXXXXX",
"XXXXXXX          OOOOoooooooOOOOoooXXX    .....XXXXXXXXXXXXXXXXXX",
"XXX      XX      XXXXOXXOOOXXXXXXXXXXX    X.......XXXXXXXXXXXXXXX",
"OOOOOOOOOXXXXX  XXXXXXXXXXXXXXXXXXOOXX.  XXXXOOOOXXXXXXXXXXXXXXXX",
"OOOOOOOOOXXXo   XXXXXXXXXXXXXXXOOOOOX..  XXXOOOOOOOOXXXXXXXXXXXXX",
"OOOOOOOOooooX   XXXXXXXXXXXXXXXOOOXXX..  XXOOOOOOOOOOOOOOOOXXXXXO",
"OOOOOoooooooX   XXXXXXXXXXXXXXXXXXXXX..  XXOOOOOOOOOOOOOOOOOOOOOO",
"OOoooooooooOX ..XXXXXXXXXXXXXXXXXXXX...  XXOOOOooooOOOOOOOOOOOOOO",
"ooooooooooX.....XXXXXXXXXXXXXXXXXXXX...  XXXOOOoooooooOOOOOOOOOOO",
"oooooooXXXX....XXXXXXXXXXXXXXXXXXXXX...  XXXXOOOooooooOOOOOOOOOOO",
"XXXXXXXXXXXX...XXXXXXXXXXXXXXXXXXXXX.... XXXXXXXXXXXXXXXooooooooo",
"XXXXXXXXXXXX...XXXXXXXXXXXXXXXXXXXXX.... XXXXXXXXXXXXXXXXXXoooooo",
"XXXXXXXXXXXXX..XXXXXXXXXXXXXXXXXXXXX.... XXXXXXXXXXXXXXXXXXXXXXXX",
"XXXXXXXXXXXXX...XXXXXXXXXXXXXXXXXXXX.....XXXXXXXXXXXXXXXXXXXXXXXX",
"XXXXXXXXXXXXX...XXXXXXXXXXXXXXXXXXX......XXXXXXXXXXXXXXXXXXXXXXXX",
"XXXXXXXXXXXX....XXXXXXXXXXXXXXXXX........XXXXXXXXXXXXXXXXXXXXXXXX",
"XXXXXXXXXXX......XXXXXXXXXXXXXXX........XXXXXXXXXXXXXXXXXXXXXXXXX",
"XXXXXXXXXX..XXX..XXXXXXXXXXXXXXXXXXX....XXXXXXXXXXXXXXXXXXXXXXXXX",
"XXXXXXXXX..XXXX...XXXXXXXXXXXXXXXXXXX....XXXXXXXXXXXXXXXXXXXXXXXX",
"XXXXXXX..OOOXX....XXXXXXXXXXXXXXXXXXX....XXXXXXXXXXXXXXXXXXXXXXXX",
"XXXXX.OOOOOO.....XXXXXXXXXXXXXXXXXXXX....XXXXXXXXXXXXXXXXXXXXXXXX",
"OOOOOOOOOOOXX...XXXXXXXXXXXXXXXXXXXXX...XXXXXXXXXX...............",
"XOOOOOOXXXXXX....XXXXXXXXXXXXXXXXXXXX...XXXXXXXXXXXXX.........XXX",
"XXXXXXXXXXXXX....XX...XXXXXXXXXXXXXXX ....XXXXXXXXXXXXXOOOOOOXXXX",
"XXXXXXXXXXXX. ....X....XXXXXXXXXXXXXX ......XXXXXXXXXXXXOOOOOXXXX",
"XXXXXXXXXXX..  ...X.....XXXXXXXXXXXXX ......XXXXXXXXXXXXXXXXXXXXX",
"XXXXXXXXXX...   ...X....XXXXXXXXXXXXX  ...XXXXXXXXXXXXXXXXXXXXXXX",
"XXXXXXXXX..      ....X..XXXXXXXXXXXX   ....XXXXXXXXXXXXXXXXXXXXXX",
"XXXXXXXXX.          XXXXXXXXXXXXXXX    .....XXXXXXXXXXXXXXXXXXXXX",
"XXXXX....   +++      XXXXXXXXXXXXX       ....XXXXXXXXXXXXXXXXXXXX",
"XXXX.....++++++++++++++XXXXXXXX           .....XXXXXXXXXXXXXXXXXX"
};
