/* XPM */
static const char *wall[] = {
/* columns rows colors chars-per-pixel */
"36 36 160 2 ",
"   c #181F30",
".  c #1C2434",
"X  c #1E2938",
"o  c #222C3A",
"O  c #27333F",
"+  c #273442",
"@  c #2A3642",
"#  c #2D3B46",
"$  c #2F3E48",
"%  c #2E404C",
"&  c #32424B",
"*  c #3A454D",
"=  c #324651",
"-  c #354952",
";  c #3A4D53",
":  c #374F59",
">  c #3C5056",
",  c #3D545C",
"<  c #3F595F",
"1  c #454D4F",
"2  c #42575B",
"3  c #435A5D",
"4  c #4F5E5F",
"5  c #435C63",
"6  c #466367",
"7  c #4A6364",
"8  c #4F6867",
"9  c #45636A",
"0  c #4A6569",
"q  c #4E696B",
"w  c #576A67",
"e  c #516D6C",
"r  c #53706F",
"t  c #4A6771",
"y  c #466A71",
"u  c #4A6D73",
"i  c #4E7276",
"p  c #547473",
"a  c #5C7775",
"s  c #52767A",
"d  c #5F7778",
"f  c #567A7A",
"g  c #597D7D",
"h  c #647772",
"j  c #637C75",
"k  c #617D7E",
"l  c #5A807F",
"z  c #62837F",
"x  c #557C81",
"c  c #597D83",
"v  c #568081",
"b  c #5B8484",
"n  c #5E8887",
"m  c #5F838A",
"M  c #5E8B8A",
"N  c #5F8E90",
"B  c #628382",
"V  c #6C8B85",
"C  c #628D8C",
"Z  c #6A8E8B",
"A  c #718F89",
"S  c #62908F",
"D  c #6C938F",
"F  c #71928A",
"G  c #7B998D",
"H  c #638E91",
"J  c #639392",
"K  c #6B9494",
"L  c #669C9C",
"P  c #6A9D9D",
"I  c #759F97",
"U  c #7D9C90",
"Y  c #719D9C",
"T  c #6DA19E",
"R  c #75A59F",
"E  c #79A39D",
"W  c #699FA0",
"Q  c #729EA1",
"!  c #6DA3A3",
"~  c #72A5A4",
"^  c #78A5A5",
"/  c #75A9A6",
"(  c #7BABA4",
")  c #72A7A8",
"_  c #74ABAB",
"`  c #7AADAD",
"'  c #79AFB0",
"]  c #7CB3B4",
"[  c #819D90",
"{  c #8CA696",
"}  c #81A69B",
"|  c #94B19E",
" . c #A9B89C",
".. c #87AFA2",
"X. c #87B1A5",
"o. c #8AB3A5",
"O. c #82B2AD",
"+. c #89B5AB",
"@. c #98B3A0",
"#. c #98B9A5",
"$. c #93BAAB",
"%. c #99BEAC",
"&. c #82B5B4",
"*. c #87BAB6",
"=. c #89BAB5",
"-. c #81B7B8",
";. c #84BBBB",
":. c #8ABEBC",
">. c #94BDB3",
",. c #A8BCA0",
"<. c #A0BFAC",
"1. c #9CC0AD",
"2. c #8DC1BF",
"3. c #93C0B7",
"4. c #94C3BC",
"5. c #9FC7B8",
"6. c #9EC9BE",
"7. c #A5C3AC",
"8. c #A9C4AB",
"9. c #B2C5A9",
"0. c #A3C5B3",
"q. c #A5C8B6",
"w. c #ABCCB5",
"e. c #A4CCBE",
"r. c #ABCEBB",
"t. c #B4CFB3",
"y. c #ADD0BC",
"u. c #B6D2B6",
"i. c #BDD5B6",
"p. c #B3D2BA",
"a. c #BAD6BA",
"s. c #C3D9B7",
"d. c #CBDCB6",
"f. c #C3DAB9",
"g. c #C8DBB8",
"h. c #88BFC0",
"j. c #89BFC0",
"k. c #8AC1C2",
"l. c #8BC2C3",
"z. c #89C0C1",
"x. c #8EC3C2",
"c. c #8BC3C4",
"v. c #8CC3C4",
"b. c #8CC3C5",
"n. c #8CC4C5",
"m. c #8DC4C5",
"M. c #8DC4C4",
"N. c #8EC4C4",
"B. c #8DC5C6",
"V. c #8FC6C6",
"C. c #8CC3C4",
"Z. c #93C6C3",
"A. c #92C5C2",
"S. c #94C7C3",
"D. c #91C6C5",
"F. c #93C6C2",
"G. c #9BC9C1",
"H. c #A2CCC0",
"J. c None",
"K. c black",
/* pixels */
"J.J.J.J.J.J.J.J.a J.J.J.J.8 8 8 > x m 0 8 J.J.J.8 e B Z a J.J.J.e 2 q c ",
"J.J.J.J.2 & 5 ` &.` ^ Y C Y K p D 3.n.;.&.^ S J C K ;.:.&.^ ^ Q J g O.S.",
"J.J.J.p H t c n.n.n.n.n.b.Z.k.P 8.a.Z.n.S.5./ ] ;._ ] ;.n.n.n.Z.;.J 7.f.",
"J.J.n ` n.k.` _ ;.h.x.G.y.p.=.L I 7.t.q.O./ ` ` ;.&.] ;.Z.e.y.r.&.P F | ",
"J.M L 3.S.n.n.` L ) ;.Z.Z.x.;./ M / &.&.! ;.b.b.b.n.n.b.N.Z.Z.x.;.] P ~ ",
"J.f M o.i.q.` ! ` ;.b.b.b.b.n.;.` k.b.c.) ] n.b.b.b.b.b.b.b.b.b.n.] ] n.",
"J.g ' ] O.*.) ] b.b.b.b.c.c.n.] ] n.b.b.;.` ;.b.b.b.b.b.b.b.c.c.n.;.;.n.",
"J.J k.b.;.] ) -.n.b.b.Z.H.r.3.) ` k.b.b.k.` ) ;.;.b.n.b.b.Z.e.r.:.' ;.b.",
"- J h.b.b.k.] ! ] ;.;.&.$...P ] h.b.k.;.` ! ;.h.] ` ;.;.;.&.$.U P ] k.b.",
"$ x _ h.b.b.;.L l S J J P n M -.n.b.b.k.;.] k.b.] J b J J J C f P k.b.c.",
"@ , ) k.b.k.;.] / ' ;.;.k.] ) ) k.Z.b.b.b.b.b.k.;.] / P ` ;.:.` ` ;.x.S.",
"o & Q n.c.n.b.n.n.n.n.b.b.n.k.;.6.f.p.S.n.n.n.n.n.n.b.) ` ;.] ` ! ` e.g.",
"; 7 h 0.4.;.] k.b.b.b.b.b.b.b.k.&.q.i.u.w.q.:.;.;.h.] ! ` ;.;.;.;.;.O.7.",
"3 M g j V P ;.c.b.b.b.b.b.c.c.b.;.P C Z ~ ~ ! ! J P ! ;.b.b.b.b.n.n.` b ",
"* M L b < } r.Z.n.n.b.b.b.S.e.y.S.P Y ` ;.;.k.h.] C P k.b.b.b.b.b.b.;.g ",
"o 3 b u 9 P 7.u.q.;.] c.Z.e.g.f.>.) k.n.b.b.b.b.n.;.) ] n.b.b.c.b.Z.>.A ",
"o ; M N ` ;.] &.` ! ` ] $.u.p.<.G C &.n.b.b.b.b.b.n.;.T &.c.n.S.G.a.d.@.",
"# 8 ! k.;.b.b.k.k.:./ z U 2.N.&.J 6 B G.c.b.b.b.c.c.e.| Z 4.H.i.a.s.,.j ",
". 0 J ;.] :.G.H.y.8.a Z 0.0.+.( n - 1 9.e.2.x.Z.G.e.p. .h 8.a.q.%.X.C 3 ",
"o g S n C R $.1.#.a & Q ;.) L L L p & w D ! ) ( 1.r.q.d - ` ;.' ! L L 6 ",
"O 8 p e J L L L L M 5 L ! L L L L b 8 M L L L L P ! ) b 0 L L L L L L s ",
"& p g b L L L L L J p M L L L L L M r J L L L L L L L M p M L L L L L f ",
"& r b J L L L L L b p C C P L L L J p M L L L L L L L M e C K L L L L g ",
"o 7 e p M L L L L M e ^ ;.] ! L L b p K P J C L L L L M ; H ] ! L L L b ",
"  # 7 b L L L L S J 3 q L L L L J , , ~ ] / P L L L L C > y L L L L N , ",
". ; 2 e J L L C K J - , I / ) P K k ; g J L L L L L M a > 0 / ) ) ) B s ",
"# f f H L L L L L u X * 7.y.e.4.r.{ @ e C L L L L L L c * 4 w.w.e.4.w.E ",
", L / :.&.] ` ] Q K p = P ( ( ) &.C - J / ) ! ! P W b 9 = : ~ ^ ~ / O.J ",
"* f } 8.3.4.G.e.a.i.[ 9 L L L L ! f , ] H.e.A.h.;.2.>.0.V 9 L L L P ! J ",
"& e e J P ~ X.X.X.^ n b L L L L L p 6 W ( X.` >.q.w.t.7.B g L L L L L J ",
"+ 8 r C L L L L L L M g L L L L J p f L L L L P T T T L b g L L L L L J ",
"o 8 M C P L L L L L C f J L L L J f l L L L L L L L L J p p L L L L L J ",
"o 7 f Y -.] ! ) ` ` P p J L L L L b g L L J M C C L ! ` C p J L L L L M ",
". ; e p L ! ! P ! L i > f g L L L i 8 C L L P ) P P ) ) p 0 M b L L L q ",
"J.O 7 g J L L L J g @ . - b L L x + ; g L L L L L L L s + # v J L L M # ",
"J.J.J.J.J.L L M J.J.J.J.J.J.J.J.J.J.J.J.n L L L L L C J.J.J.% f L J.J.J."
};
